<svg width="226" height="190" viewBox="0 0 226 190" fill="none" xmlns="http://www.w3.org/2000/svg">
<g clip-path="url(#clip0_401_20745)">
<path d="M69.3763 126.023C68.9494 147.379 66.3595 168.69 64.7598 190H24.7607C25.1084 185.744 25.5925 181.462 26.1074 177.209C27.4386 166.187 28.7919 155.131 30.2882 144.129C31.2101 137.349 32.0595 130.496 33.5536 123.832C42.5929 127.967 59.8595 128.43 69.3785 126.023H69.3763Z" fill="#317E84"/>
<path d="M198.614 189.998H170.042C168.97 179.219 167.672 168.451 166.527 157.678C166.235 154.928 166.215 152.096 165.863 149.358C165.597 147.272 164.547 146.092 164.327 148.911C165.819 162.601 167.372 176.308 168.723 189.998H159.933C158.958 181.667 158.131 173.283 157.517 164.908C157.092 159.104 156.687 153.199 156.406 147.391C156.249 144.147 156.197 140.878 156.194 137.632C161.301 140.064 174.636 140.411 180.489 140.271C186.03 140.137 198.42 139.479 203.228 137.195C203.314 141.238 202.779 145.105 201.477 148.924C200.396 152.098 199.8 152.954 199.494 156.586C198.904 163.566 198.746 171.252 198.603 178.265C198.524 182.171 198.68 186.091 198.612 189.996L198.614 189.998Z" fill="#124652"/>
<path d="M73.7734 124.711C74.1673 126.11 74.4027 127.58 74.6161 129.019C76.4469 141.382 76.4051 153.847 77.2984 166.221L77.5097 190.003H64.7627C66.3624 168.691 68.9523 147.383 69.3792 126.027C70.684 125.698 72.5719 125.231 73.7756 124.713L73.7734 124.711Z" fill="#124652"/>
<path d="M170.041 189.997H168.723C167.372 176.308 165.816 162.6 164.326 148.911C164.546 146.092 165.596 147.272 165.862 149.358C166.214 152.098 166.234 154.927 166.527 157.678C167.671 168.45 168.969 179.216 170.041 189.997Z" fill="#317E84"/>
<path d="M121.826 114.704L121.797 91.08C121.797 91.08 121.291 89.2001 124.066 87.2677C126.84 85.3352 127.846 83.5211 131.067 83.9883C134.289 84.4556 153.368 87.8095 153.368 87.8095C153.368 87.8095 156.348 87.7722 156.588 90.3123C156.827 92.8524 156.702 103.816 156.702 103.816L147.542 114.987L121.826 114.706V114.704Z" fill="#F1CCAB"/>
<path d="M130.214 113.891C130.652 113.549 132.207 110.603 131.521 109.261C130.491 107.247 126.788 108.083 126.546 104.797C126.458 103.593 126.821 103.156 128.042 103.305C131.869 103.768 137.31 107.39 141.207 108.149C141.682 108.241 143.249 108.638 143.694 108.533C143.546 112.218 143.06 115.495 144.297 118.983C137.405 121.468 132.458 121.845 125.501 119.426C123.63 118.774 117.85 116.743 119.663 113.869C119.865 113.547 120.695 113.67 120.781 113.725C121.615 114.253 125.505 115.258 126.715 115.258C127.926 115.258 129.778 114.234 130.216 113.891H130.214Z" fill="#FEC9B0"/>
<path d="M126.713 115.808C125.527 115.808 120.972 114.975 119.969 114.336C119.714 114.174 119.637 113.834 119.799 113.58C119.962 113.323 120.303 113.248 120.559 113.411C121.263 113.858 125.518 114.709 126.711 114.709C127.736 114.709 129.461 113.781 129.871 113.459C130.24 113.119 131.532 110.493 131.026 109.508C130.694 108.857 129.95 108.57 129.087 108.236C127.782 107.732 126.159 107.102 125.994 104.836C125.952 104.277 125.965 103.577 126.442 103.123C126.915 102.673 127.617 102.7 128.106 102.759C130.214 103.013 132.762 104.176 135.224 105.297C137.345 106.262 139.537 107.262 141.311 107.607C141.407 107.626 141.55 107.657 141.718 107.694C142.149 107.789 143.293 108.043 143.568 107.995C143.863 107.925 144.158 108.107 144.228 108.403C144.299 108.699 144.114 108.993 143.817 109.063C143.412 109.16 142.712 109.037 141.48 108.765C141.324 108.73 141.19 108.701 141.099 108.684C139.198 108.313 136.945 107.286 134.767 106.295C132.379 105.207 129.91 104.082 127.972 103.847C127.413 103.779 127.248 103.873 127.202 103.917C127.153 103.963 127.045 104.137 127.092 104.755C127.202 106.253 128.073 106.666 129.488 107.214C130.469 107.594 131.484 107.988 132.007 109.011C132.848 110.651 131.134 113.865 130.551 114.321C130.027 114.729 128.055 115.804 126.711 115.804L126.713 115.808Z" fill="#FE935D"/>
<path d="M183.472 50.0256C186.421 50.1331 189.649 52.3859 191.928 54.1955C206.829 66.0164 205.817 88.2345 205.881 105.34C205.914 114.002 206.233 123.504 205.668 132.076C205.511 134.454 205.335 136.132 203.031 137.227C198.224 139.51 185.833 140.168 180.292 140.302C174.439 140.443 161.105 140.096 155.998 137.663C152.737 136.11 154.068 130.765 153.791 127.904L154.457 119.26C152.156 119.29 146.657 120.854 144.998 119.159C142.606 117.261 143.07 109.005 143.231 108.588C143.392 108.171 144.267 107.327 144.661 107.116L155.613 101.861C156.332 99.9918 156.154 99.6803 156.332 97.7281C156.37 97.3091 156.458 96.5568 156.557 93.6986C156.559 92.3518 156.592 91.3493 156.112 89.895C155.503 88.0547 153.232 87.8375 151.603 87.4888C154.169 75.3849 157.038 61.3683 168.045 54.0113C168.078 54.178 168.808 55.8034 168.912 55.992C169.389 56.876 169.928 57.0142 170.87 57.0953C175.966 57.5362 179.921 53.6844 183.432 50.642C183.54 50.4797 183.474 50.223 183.474 50.0234L183.472 50.0256Z" fill="#FE935D"/>
<path d="M47.1785 51.5295C49.2337 55.4099 55.0626 58.0816 59.349 57.6363C61.2875 57.4367 61.8464 57.2108 62.1325 55.3616C62.1941 54.9602 62.3965 54.8154 62.5638 54.5961C63.0016 55.1576 63.4395 55.1554 63.8884 55.5766C70.8483 62.0979 74.3228 70.4925 76.8488 79.5737C78.4749 85.4216 79.1659 91.5591 80.145 97.5386C78.5981 96.92 76.1579 96.444 74.4724 96.0733C70.7691 95.2574 66.9756 94.8055 63.2745 93.9829C61.556 88.8501 59.8397 83.6953 58.2312 78.5252C57.8703 77.3648 56.8669 72.7233 56.2992 72.1267C56.0395 71.8525 55.8855 71.8766 55.5312 71.9073L61.8816 93.2942C62.0181 93.8667 60.6934 93.5201 60.2577 93.5991C59.2653 93.7745 59.7516 94.4194 60.5328 94.6366C66.3551 96.2554 73.4052 96.319 79.2209 98.3546C81.199 99.0478 81.9142 99.6488 82.121 101.816C82.3278 103.983 81.9604 109.526 81.199 111.406C78.9282 117.019 66.0866 116.978 61.1379 116.379C53.9007 115.504 45.9177 112.843 42.6809 105.856C38.9578 97.8238 38.4319 87.5493 37.4681 78.8454L36.6319 78.4769C36.6121 83.7567 37.281 89.076 38.2734 94.2571C40.9095 108.024 43.8251 114.38 58.5678 116.969C64.3197 117.978 74.413 118.324 79.4893 115.065C80.1296 119.849 78.0656 122.858 73.7748 124.705C72.5712 125.223 70.6833 125.69 69.3784 126.019C59.8595 128.426 42.5928 127.963 33.5536 123.828C27.531 121.073 26.5298 118.153 27.212 111.7C28.0899 103.376 29.9581 94.0575 31.3575 85.7068C33.1245 75.1581 34.1631 65.5001 41.4728 57.1208C43.0527 55.3112 45.878 53.2558 47.1807 51.5273L47.1785 51.5295Z" fill="#FEC374"/>
<path d="M156.385 95.7625L158.907 76.4749C159.23 75.9506 159.853 76.5714 159.882 77.0123C159.012 83.424 158.137 89.8707 157.485 96.3109C157.34 97.7564 157.144 99.2502 157.039 100.691C157.014 101.034 157.003 101.069 157.367 101.016L168.351 95.5322C172.796 87.6202 176.691 79.4186 180.772 71.3245C181.474 70.8595 181.619 72.3269 181.267 72.6955C177.212 80.5856 173.458 88.638 169.057 96.3438C161.032 100.417 152.825 104.179 144.683 108.033C143.856 108.551 144.017 111.556 144.078 112.519C144.179 114.122 144.809 119.426 146.655 119.821C147.48 119.997 151.753 119.323 152.948 119.174C158.044 118.538 163.68 117.724 168.696 116.689C177.04 114.965 180.667 113.473 186.271 107.039C191.915 100.562 196.474 93.1456 200.673 85.6833C201.025 85.2424 201.654 85.4617 201.665 86.0014C201.672 86.4115 198.116 92.2441 197.577 93.1127C193.484 99.724 185.635 111.442 178.662 114.791C172.268 117.862 161.552 119.077 154.407 119.863C152.42 120.08 146.941 121.041 145.414 120.174C145.163 120.032 144.408 119.227 144.296 118.988C143.46 117.206 142.778 111.433 142.98 109.461C143.119 108.105 143.392 107.739 144.54 107.072C147.922 105.111 152.042 103.681 155.501 101.786C156.222 101.191 156.093 100.097 156.165 99.27C156.26 98.1885 156.365 96.8373 156.385 95.7647V95.7625Z" fill="#CE5A2A"/>
<path d="M153.337 29.8399C152.988 29.1556 152.068 27.6662 151.698 26.5431C151.047 24.5667 151.016 22.1692 151.141 20.0919C151.179 19.4668 151.689 17.9181 151.555 17.497C151.507 17.3456 150.338 16.4902 150.035 16.148C148.492 14.4239 147.764 11.886 148.081 9.58935C148.712 5.00051 154.361 9.43361 155.313 8.58253C153.958 6.2223 154.598 0.949079 158.332 2.17964C159.375 2.52183 161.131 4.40607 162.018 4.40607C162.21 4.40607 164.804 3.09873 165.53 2.88376C170.989 1.27153 178.926 2.17306 182.68 6.82771C183.146 7.4068 184.013 9.34368 184.141 9.42265C184.416 9.59374 185.873 9.39632 186.412 9.46213C190.346 9.93154 192.538 13.4741 193.62 16.9574C195.202 22.0507 192.881 28.5348 190.67 33.2004C188.87 37.0018 186.212 40.926 182.788 43.42C182.77 43.3323 182.511 43.0669 182.453 42.7773C182.156 41.3076 181.82 39.8358 181.468 38.3815C185.408 38.0876 188.958 34.1019 187.913 30.0944C187.169 27.245 183.287 27.109 181.386 28.9845C180.832 29.5306 179.976 31.8996 179.577 32.0027C178.871 32.1848 177.824 29.8509 177.546 29.2565C176.385 26.7668 175.54 23.8165 175.315 21.0724C172.199 22.0047 169.673 20.4911 167.931 18.0212C163.704 20.0568 158.9 20.3683 154.438 18.8811L153.56 27.5367C153.531 28.3023 153.577 29.0722 153.56 29.8355C153.56 29.8355 153.69 30.5199 153.34 29.8355L153.337 29.8399Z" fill="#124652"/>
<path d="M183.668 49.9957C183.668 50.1931 183.734 50.4498 183.627 50.6143C180.115 53.6567 176.117 57.6752 171.023 57.2343C170.081 57.1532 169.231 56.8768 168.754 55.9906C168.651 55.8019 168.098 54.3235 168.065 54.1568C167.966 53.6501 168.155 52.924 168.065 52.4042C171.067 51.8163 173.848 49.1622 174.658 46.2711C173.531 46.8063 172.44 47.3854 171.256 47.8088C170.213 48.1817 168.453 48.7871 167.405 48.9011C158.654 49.8443 153.809 42.5312 153.338 34.6608C153.771 33.1758 153.518 31.4034 153.558 29.8416C153.578 29.0783 153.532 28.3084 153.558 27.5428L154.436 18.8872C158.898 20.3744 163.702 20.0629 167.929 18.0273C169.672 20.4972 172.198 22.0108 175.313 21.0785C175.536 23.8226 176.383 26.7729 177.545 29.2626C177.822 29.857 178.869 32.1909 179.576 32.0088C179.976 31.9057 180.83 29.5389 181.384 28.9906C183.288 27.1151 187.169 27.2511 187.911 30.1005C188.956 34.108 185.407 38.0937 181.466 38.3876C181.818 39.8419 182.154 41.3137 182.452 42.7834C182.511 43.0708 182.768 43.3362 182.786 43.4261C183.103 45.0559 183.197 47.0213 183.506 48.7344L183.666 50.0001L183.668 49.9957ZM165.205 24.1429C166.107 24.1977 167.051 24.0661 167.951 24.1451C168.541 24.1977 170.288 24.9764 170.468 24.235C170.336 21.7015 165.051 21.5348 165.207 24.1407L165.205 24.1429ZM159.052 24.3622C159.418 23.204 157.373 22.5592 156.528 22.5964C155.571 22.6381 154.83 23.4015 154.876 24.3622H159.052ZM156.568 27.6898C155.389 28.0517 155.303 31.3354 157.162 31.1534C159.022 30.9713 158.879 26.9813 156.568 27.6898ZM167.123 27.9004C165.537 28.3303 165.823 31.8421 167.685 31.557C169.722 31.2455 169.11 27.363 167.123 27.9004ZM161.468 29.8394C161.2 29.5324 158.608 32.7941 158.59 33.0091C158.557 33.4105 158.632 34.0576 158.896 34.3778C159.253 34.8122 162.516 36.7403 161.581 35.0951C161.202 34.4261 159.873 34.2353 159.928 33.2526C159.985 32.2019 162.049 31.3881 161.468 29.8373V29.8394ZM185.867 31.5899C185.052 29.8373 181.312 31.9343 181.714 33.4193C182.047 34.6433 182.874 32.7437 183.021 32.5989C183.776 31.8531 184.804 31.546 185.867 31.5899ZM159.712 39.0435C159.217 39.5721 160.419 40.4166 160.879 40.6162C162.267 41.2194 163.713 41.0944 165.103 40.5855C165.682 40.3749 167.867 39.129 167.836 38.4929C167.786 37.4685 166.19 38.9864 166.017 39.0851C164.712 39.8156 163.587 40.1271 162.069 39.866C161.589 39.7827 159.911 38.8285 159.71 39.0435H159.712Z" fill="#FEC8AC"/>
<path d="M110.439 80.082L115.493 83.8395L93.8257 90.5846L91.128 90.1876L90.0498 86.6779L110.439 80.082Z" fill="white"/>
<path d="M100.416 87.398C105.318 86.1082 110.172 84.5421 115.04 83.1207C115.957 83.079 116.32 83.6647 116.417 84.4982C116.633 86.3386 116.608 90.5633 116.63 90.923C116.652 91.2827 116.886 103.549 116.646 109.272C116.549 110.241 116.45 110.246 115.594 110.634C109.591 113.361 98.18 116.989 95.1809 117.013C92.1817 117.037 88.6434 115.626 88.5004 112.874C90.1683 112.891 95.2623 113.253 96.2062 111.902C96.3889 111.639 96.4637 111.45 96.4109 111.123C96.2305 110.95 93.2489 111.786 92.7736 111.134C92.6548 110.972 92.624 110.52 92.6746 110.465C92.7868 110.344 94.9454 110.259 95.3635 110.184C96.8136 109.928 99.8325 109.511 99.7071 107.616C97.9842 107.822 94.3975 108.945 92.822 108.456C92.1223 108.239 92.3159 107.524 93.2225 107.392C94.6902 107.179 100.264 106.861 101.005 105.731C101.344 105.214 101.441 104.38 100.699 104.321C99.2802 104.769 93.4777 106.019 92.4523 105.321C92.2279 105.17 92.1641 104.9 92.2389 104.661C92.4215 104.093 94.3623 104.393 94.9828 104.328C95.907 104.231 100.376 103.656 100.713 103.016C101.549 101.426 97.4363 100.879 96.5319 100.816C94.6836 100.686 92.6504 100.985 90.813 100.82C87.6246 100.537 88.5906 99.4975 88.5026 96.8806C88.4036 93.9325 88.2364 87.3914 88.265 86.8979C88.2936 86.4044 88.1615 85.8187 88.9317 85.5906C89.7018 85.3624 109.935 79.3544 109.935 79.3544C111.292 79.0319 112.06 80.1419 110.7 80.7802C104.572 83.0987 97.4561 84.2174 91.4005 86.5184C91.1343 86.6193 90.8526 86.7509 90.703 86.9133C90.5534 87.0756 91.5942 89.1879 92.4832 89.245C93.3721 89.302 98.9744 87.7775 100.416 87.398Z" fill="#FE935D"/>
<path d="M88.4982 96.885C88.5862 99.5019 87.6224 100.544 90.8086 100.825C92.646 100.987 94.6813 100.691 96.5275 100.82C97.4297 100.884 101.544 101.43 100.708 103.02C100.372 103.663 95.9026 104.238 94.9784 104.332C94.3601 104.396 92.4171 104.097 92.2345 104.665C92.1575 104.905 92.2235 105.174 92.4479 105.326C93.4711 106.023 99.2758 104.773 100.695 104.325C101.439 104.385 101.342 105.218 101.001 105.736C100.259 106.866 94.6857 107.186 93.2181 107.396C92.3137 107.528 92.1179 108.243 92.8176 108.46C94.3953 108.949 97.982 107.826 99.7027 107.62C99.8281 109.515 96.8069 109.932 95.3591 110.189C94.941 110.263 92.7824 110.347 92.6702 110.469C92.6196 110.524 92.6504 110.976 92.7692 111.138C93.2445 111.79 96.226 110.954 96.4065 111.128C96.4593 111.454 96.3845 111.643 96.2018 111.906C95.2579 113.26 90.1639 112.896 88.496 112.878C86.2846 112.856 84.0666 112.977 81.9014 112.439C83.0522 110.401 83.5297 103.738 83.2018 101.395C83.171 101.171 82.6385 99.4383 82.5615 99.2935L88.496 96.8828L88.4982 96.885Z" fill="#FEC8AC"/>
<path d="M79.4877 115.07C74.4136 118.33 64.3203 117.983 58.5662 116.974C43.8213 114.386 40.9079 108.029 38.2718 94.2623C37.2794 89.0812 36.6105 83.7641 36.6303 78.4821L37.4665 78.8506C38.4302 87.5545 38.9561 97.829 42.6792 105.862C45.916 112.846 53.8991 115.507 61.1363 116.384C66.085 116.983 78.9266 117.024 81.1974 111.411C81.9588 109.531 82.3174 103.896 82.1194 101.821C81.9214 99.7461 81.1974 99.0529 79.2192 98.3598C73.4036 96.322 66.3534 96.2606 60.5312 94.6418C59.75 94.4246 59.2659 93.7797 60.2561 93.6042C60.694 93.5275 62.0186 93.874 61.88 93.2993L55.5296 71.9125C55.8817 71.8818 56.0379 71.8577 56.2976 72.1319C56.8653 72.7285 57.8687 77.37 58.2295 78.5304C59.838 83.7005 61.5544 88.8575 63.2729 93.9881C66.974 94.8107 70.7675 95.2625 74.4708 96.0785C76.1563 96.4492 78.5965 96.9274 80.1434 97.5438C80.8542 97.8268 82.2052 98.6427 82.5617 99.2964C82.6387 99.439 83.1712 101.174 83.202 101.398C83.5299 103.74 83.0524 110.404 81.9016 112.442C81.5671 113.037 80.0422 114.712 79.4833 115.072L79.4877 115.07Z" fill="#FE935D"/>
<path d="M167.402 48.8996C168.45 48.7855 170.21 48.1801 171.253 47.8072C172.437 47.3838 173.526 46.8048 174.655 46.2695C173.845 49.1628 171.064 51.8147 168.062 52.4026C167.862 51.24 167.464 50.0884 167.402 48.8974V48.8996Z" fill="#F4A17D"/>
<path d="M153.338 34.659C153.248 33.1586 153.49 31.2547 153.558 29.8398C153.519 31.4038 153.772 33.1762 153.338 34.659Z" fill="#FEC8AC"/>
<path d="M47.1786 51.5316C48.5186 49.7549 49.6386 45.1002 49.8125 42.8738C49.8697 42.1258 49.9533 39.2962 49.7817 38.7478C49.5968 38.1512 48.9191 38.603 48.3954 38.614C46.2698 38.6601 44.8616 38.467 43.5633 36.6179C40.5443 32.3186 44.5909 25.6547 49.258 29.4078C49.8939 29.9189 50.5848 31.2087 50.6816 31.2789C51.5486 31.8974 52.9679 30.1339 53.562 29.7456C56.4775 27.835 59.7209 25.7644 62.2778 23.8626C62.4912 23.7025 62.5969 23.1497 62.8543 22.904C63.2152 22.5574 63.8203 22.4675 64.2076 22.1714C64.9007 21.6427 67.3806 17.5672 67.726 17.5781C68.7536 18.8855 69.5149 20.3902 70.4743 21.7371C70.8902 22.3205 71.2159 23.1782 72.0124 23.2703C72.0894 23.3405 72.1554 23.4217 72.2325 23.4897C72.3073 23.731 72.4701 23.8143 72.6725 23.9284C73.9092 24.6259 75.1062 25.3959 76.3802 26.0386C76.6597 29.3881 76.7257 32.4787 76.1206 35.7997C75.9753 36.5916 75.1898 38.943 75.137 39.0812C75.0842 39.2194 75.8433 35.1614 75.7597 34.8126C75.6937 34.5406 74.8487 34.3849 74.5825 34.4704C74.3162 34.556 73.9554 35.2184 73.8432 35.5014C72.9608 37.7388 74.9962 39.3115 75.5309 37.7344C74.4967 41.4173 73.6473 43.5494 70.6746 46.1487C68.4389 48.1032 65.5762 49.0924 62.5639 48.9082C58.4821 48.6581 55.1969 46.2255 52.4552 43.431C53.5818 47.5592 57.8 50.9372 61.9037 51.7576L62.1238 49.2372C62.1238 48.9718 62.3328 49.3513 62.3438 49.3469C62.4362 50.9065 61.5407 53.2908 62.5639 54.6048C62.4428 54.7539 62.214 55.0084 62.1326 55.3703C61.8465 57.2172 61.2876 57.4432 59.3491 57.645C55.0627 58.0881 49.2338 55.4186 47.1786 51.5382V51.5316ZM63.6421 27.4095C63.7323 27.2779 63.6861 26.8831 63.6222 26.7098C62.9907 24.9418 59.0498 26.4926 59.2676 28.3067C60.1852 28.2211 60.962 27.6705 61.8927 27.528C62.28 27.4687 63.3846 27.7846 63.6421 27.4117V27.4095ZM74.8069 26.6154C73.94 25.5735 70.6394 25.5384 70.9144 27.4292C72.3975 27.3261 73.6737 27.4687 75.0908 27.8679C75.104 27.4446 75.0952 26.962 74.8069 26.6154ZM60.9598 30.0988C59.7297 30.476 59.7583 33.7532 61.5671 33.5689C63.2108 33.4 63.4176 29.3442 60.9598 30.0988ZM71.9486 30.3181C70.7208 30.6932 70.7516 34.0493 72.5515 33.7883C74.2018 33.5492 74.3162 29.5921 71.9486 30.3181ZM67.6204 38.1643C67.9945 38.5285 69.7966 37.7673 70.1641 37.3067C71.4029 35.7558 69.0155 34.0208 68.9362 32.4678C66.639 33.2969 69.8516 34.9837 69.3499 36.4841C69.2003 36.9294 66.9515 37.5129 67.6204 38.1643ZM57.6745 34.0405C54.3915 34.5845 55.9538 39.8753 58.909 38.3552C61.2458 37.1531 59.8419 33.6808 57.6745 34.0405ZM69.1563 41.0159C68.9714 40.8207 67.6402 41.5511 67.2375 41.6191C66.2693 41.7836 65.2924 41.6323 64.388 41.2769C63.4836 40.9216 62.8631 39.9849 61.9059 39.9191C61.5429 42.6698 68.1639 43.6942 69.0485 41.8911C69.1453 41.6937 69.2377 41.0993 69.1563 41.0159Z" fill="#FEC8AC"/>
<path d="M62.1127 51.8511C58.0089 51.0307 53.6125 47.8282 52.4551 43.4258C55.1946 46.2203 58.482 48.6529 62.5638 48.903L62.4537 49.1947C62.4141 49.3439 62.2755 51.0439 62.2095 51.0702L62.1149 51.8511H62.1127Z" fill="#F4A17D"/>
<path d="M64.2103 22.1687C65.2775 21.2979 67.3833 17.5645 67.7288 17.5755C68.7564 18.8829 69.3637 20.063 70.4023 21.7695C71.3528 23.112 72.1824 23.6318 72.6731 23.9258C73.1638 24.2197 75.1068 25.3932 76.3808 26.0359C76.6602 29.3854 76.625 32.4256 76.0199 35.7466C75.8747 36.5385 75.7119 37.0825 75.5314 37.7274C74.4972 41.4103 73.6479 43.5424 70.6751 46.1417C68.4395 48.0961 65.5768 49.0854 62.5644 48.9012C62.5644 48.9012 62.362 48.8354 62.3444 49.3399C62.3444 50.996 61.5412 53.2838 62.5644 54.5977C63.0023 55.1593 63.4402 55.1571 63.8891 55.5782C70.849 62.0996 74.3234 70.4942 76.8495 79.5753C77.7274 78.3031 78.7902 77.1756 79.5802 75.8332C86.6699 63.771 77.9387 55.3391 77.2918 43.5314C76.8517 35.4988 80.4471 27.7776 78.1059 19.4948C74.7019 7.45242 58.9821 2.71003 48.5698 8.76853C37.4929 15.2131 35.5896 34.5183 29.9301 45.4003C26.5283 51.9392 20.5916 56.6618 17.1721 62.92C10.6501 74.8615 19.8192 83.8308 31.3538 85.7106C33.1207 75.162 34.1593 65.5039 41.4691 57.1247C43.049 55.315 45.8743 53.2597 47.1769 51.5312C48.517 49.7544 49.637 45.0998 49.8108 42.8734C49.868 42.1254 49.9517 39.2957 49.78 38.7474C49.5952 38.1507 48.9175 38.6026 48.3938 38.6136C46.2682 38.6596 44.8599 38.4666 43.5617 36.6175C40.5427 32.3182 44.5893 25.6542 49.2563 29.4074C49.8922 29.9184 50.5832 31.2082 50.68 31.2784C51.547 31.897 52.9662 30.1334 53.5603 29.7452C56.4759 27.8346 59.7193 25.7639 62.2762 23.8621C62.2762 23.8621 63.1387 23.0396 64.2059 22.1709L64.2103 22.1687Z" fill="#124652"/>
<path d="M159.712 39.0447C159.912 38.8297 161.591 39.7861 162.071 39.8673C163.589 40.1283 164.713 39.8146 166.018 39.0864C166.192 38.9877 167.787 37.4698 167.838 38.4941C167.869 39.1281 165.682 40.374 165.105 40.5867C163.712 41.0956 162.267 41.2229 160.88 40.6175C160.42 40.4178 159.219 39.5733 159.714 39.0447H159.712Z" fill="#124652"/>
<path d="M165.204 24.1431C165.05 21.5372 170.336 21.7039 170.466 24.2374C170.287 24.9766 168.54 24.1979 167.948 24.1475C167.048 24.0685 166.107 24.2001 165.202 24.1453L165.204 24.1431Z" fill="#124652"/>
<path d="M167.124 27.8986C169.111 27.3612 169.722 31.2459 167.685 31.5552C165.823 31.8382 165.537 28.3263 167.124 27.8986Z" fill="#124652"/>
<path d="M156.568 27.6898C158.879 26.9813 159.081 30.9669 157.162 31.1533C155.244 31.3398 155.389 28.0517 156.568 27.6898Z" fill="#124652"/>
<path d="M161.468 29.8385C162.047 31.3871 159.985 32.2031 159.928 33.2538C159.875 34.2343 161.202 34.4273 161.581 35.0964C162.514 36.7415 159.253 34.8112 158.896 34.3791C158.632 34.0588 158.557 33.4117 158.59 33.0103C158.608 32.7954 161.2 29.5336 161.468 29.8407V29.8385Z" fill="#124652"/>
<path d="M159.052 24.3611H154.876C154.83 23.3981 155.571 22.637 156.529 22.5953C157.374 22.558 159.418 23.2051 159.052 24.3611Z" fill="#124652"/>
<path d="M185.866 31.5913C184.805 31.5474 183.776 31.8545 183.021 32.6003C182.873 32.7451 182.046 34.6447 181.714 33.4207C181.311 31.9357 185.052 29.8387 185.866 31.5913Z" fill="#124652"/>
<path d="M57.6747 34.0416C59.8421 33.6819 61.2481 37.1542 58.9091 38.3563C55.9517 39.8764 54.3894 34.5856 57.6747 34.0416Z" fill="#F4A17D"/>
<path d="M69.1563 41.0147C69.2356 41.1003 69.1453 41.6925 69.0485 41.8899C68.164 43.693 61.5429 42.6686 61.906 39.918C62.8632 39.9838 63.4573 40.9094 64.3881 41.2758C65.3188 41.6421 66.2694 41.7825 67.2376 41.6179C67.6403 41.5499 68.9715 40.8195 69.1563 41.0147Z" fill="#124652"/>
<path d="M60.9598 30.0974C63.4176 29.3428 63.2108 33.3986 61.5671 33.5675C59.7583 33.7518 59.7297 30.4747 60.9598 30.0974Z" fill="#124652"/>
<path d="M71.949 30.3188C74.3166 29.595 74.2 33.5499 72.5519 33.789C70.752 34.05 70.7212 30.6939 71.949 30.3188Z" fill="#124652"/>
<path d="M67.621 38.1653C66.952 37.5138 69.2031 36.9304 69.3505 36.4851C69.8522 34.9847 66.6396 33.2979 68.9368 32.4688C69.016 34.0196 71.4057 35.7546 70.1646 37.3077C69.7972 37.7683 67.9928 38.5294 67.621 38.1653Z" fill="#124652"/>
<path d="M75.5314 37.7289C74.9967 39.306 72.9591 37.7333 73.8437 35.4959C73.9559 35.2129 74.3079 34.5505 74.583 34.4649C74.8581 34.3794 75.747 34.3114 75.9649 35.055C76.1409 35.4827 75.6568 37.3647 75.5336 37.7289H75.5314Z" fill="#F4A17D"/>
<path d="M63.6419 27.4101C63.3845 27.7851 62.2798 27.4671 61.8926 27.5263C60.9618 27.6689 60.1851 28.2195 59.2675 28.305C59.0496 26.491 62.9906 24.9402 63.6221 26.7081C63.6837 26.8814 63.7321 27.2763 63.6419 27.4079V27.4101Z" fill="#124652"/>
<path d="M74.8072 26.6149C75.0954 26.9615 75.102 27.444 75.091 27.8674C73.6762 27.4704 72.3977 27.3256 70.9147 27.4287C70.6396 25.5379 73.9402 25.573 74.8072 26.6149Z" fill="#124652"/>
<path d="M112.401 81.9432C110.35 82.9961 108.196 83.7682 106.011 84.468C103.817 85.1457 101.608 85.7446 99.3195 86.0561L99.2402 85.806C100.263 85.2576 101.32 84.8079 102.382 84.3802C105.588 83.1409 108.874 82.0946 112.282 81.5703L112.403 81.9454L112.401 81.9432Z" fill="#FE935D"/>
<path d="M146.021 101.668C145.718 101.668 145.471 101.422 145.471 101.119V95.9097L125.839 92.1456C125.54 92.0886 125.346 91.8012 125.404 91.5029C125.461 91.2046 125.749 91.0115 126.048 91.0686L146.572 95.0037V101.119C146.572 101.422 146.325 101.668 146.021 101.668Z" fill="#FE935D"/>
<path d="M146.022 96.0047C145.854 96.0047 145.689 95.9279 145.581 95.7854C145.399 95.5419 145.449 95.1997 145.694 95.0176L150.862 91.168C151.107 90.9859 151.45 91.0364 151.633 91.2799C151.815 91.5234 151.765 91.8655 151.52 92.0476L146.352 95.8972C146.253 95.9718 146.138 96.0069 146.024 96.0069L146.022 96.0047Z" fill="#FE935D"/>
</g>
<defs>
<clipPath id="clip0_401_20745">
<rect width="226" height="190" fill="white"/>
</clipPath>
</defs>
</svg>
