<svg width="20" height="20" viewBox="0 0 20 20" fill="none" xmlns="http://www.w3.org/2000/svg">
<path d="M9.21875 10.7812H1.40625C1.1849 10.7812 0.999349 10.7062 0.849609 10.5562C0.69987 10.4062 0.625 10.2204 0.625 9.99883C0.625 9.77721 0.69987 9.5918 0.849609 9.44258C0.999349 9.29336 1.1849 9.21875 1.40625 9.21875H9.21875V1.40625C9.21875 1.1849 9.29375 0.999349 9.44375 0.849609C9.59375 0.69987 9.77956 0.625 10.0012 0.625C10.2228 0.625 10.4082 0.69987 10.5574 0.849609C10.7066 0.999349 10.7812 1.1849 10.7812 1.40625V9.21875H18.5938C18.8151 9.21875 19.0007 9.29375 19.1504 9.44375C19.3001 9.59375 19.375 9.77956 19.375 10.0012C19.375 10.2228 19.3001 10.4082 19.1504 10.5574C19.0007 10.7066 18.8151 10.7812 18.5938 10.7812H10.7812V18.5938C10.7812 18.8151 10.7062 19.0007 10.5562 19.1504C10.4062 19.3001 10.2204 19.375 9.99883 19.375C9.77721 19.375 9.5918 19.3001 9.44258 19.1504C9.29336 19.0007 9.21875 18.8151 9.21875 18.5938V10.7812Z" fill="#FDFBF8"/>
</svg>
