<svg width="121" height="120" viewBox="0 0 121 120" fill="none" xmlns="http://www.w3.org/2000/svg">
<path d="M71.2997 48.7755L85.8997 44.2755L62.9997 38.3505V51.4004L71.2997 48.8005V48.7755ZM23.7247 65.5005L14.4747 62.5255C13.2997 62.1755 12.5747 60.7505 12.9247 59.5505C13.0497 59.3255 13.1497 59.0756 13.2747 58.8506L22.9997 44.3755L12.0747 32.6254C11.1247 31.5504 11.2497 30.0256 12.1997 29.1756C12.5497 28.8256 12.8997 28.5754 13.2747 28.5754L47.6747 19.6754C48.6247 19.4504 49.6997 19.9005 50.1747 20.6255L60.4997 31.5504L70.8247 20.6255C71.2997 19.9255 72.3747 19.4504 73.3247 19.6754L107.725 28.5754C108.075 28.5754 108.425 28.8006 108.8 29.1756C109.75 30.0006 109.875 31.5504 108.925 32.6254L97.9997 44.3755L107.725 58.8506L108.075 59.5505C108.425 60.7255 107.725 62.1505 106.525 62.5255L97.2747 65.5005L97.1497 86.3754C97.1497 87.4504 96.4497 88.2755 95.4997 88.6255L61.3247 100.251H61.1997V100.376H59.7747V100.251H59.6497L25.4747 88.6255C24.5247 88.2755 23.8247 87.4504 23.8247 86.3754L23.6997 65.5005H23.7247ZM19.0997 58.9755L40.7997 65.8505L47.5497 68.1004L56.3247 55.8755L50.6247 54.2255L27.1247 47.0004L19.0497 58.9755H19.0997ZM82.3247 65.2756L101.9 59.0005L93.8247 47.0254L64.6497 55.9254L73.4247 68.1505L82.3247 65.3004V65.2756ZM55.8747 33.8255L47.4497 24.8006L18.4997 32.2755L26.9247 41.4004L55.8747 33.8005V33.8255ZM73.5497 24.8006L65.1247 33.8255L94.0747 41.4255L102.5 32.3006L73.5497 24.8254V24.8006ZM58.0247 38.3255L35.1247 44.2505L49.2497 48.6505L58.0247 51.3754V38.3255ZM58.0247 61.9505L50.4247 72.4005V72.5255H50.2997V72.6504H50.1747V72.7756H50.0497V72.9005H49.9247V73.0255H49.7997L49.6747 73.1505H49.5497L49.4247 73.2754H49.1997V73.4006H47.6497V73.2754H47.5247L28.6497 67.2255V84.6754L57.9497 94.6506V62.0254L58.0247 61.9505ZM70.5997 72.3755L62.9997 61.9255V94.5505L92.2997 84.5755V67.1255L73.4497 73.1755H73.3247V73.3005H71.7747V73.1755H71.4247V73.0505H71.2997L71.1747 72.9256H71.0497V72.8004H70.9247V72.6755H70.7997V72.5505H70.6747V72.4255H70.5497V72.3006L70.5997 72.3755Z" fill="#A1A1A1"/>
</svg>
