<svg width="32" height="32" viewBox="0 0 32 32" fill="none" xmlns="http://www.w3.org/2000/svg">
<rect x="0.5" y="0.5" width="31" height="31" rx="15.5" fill="#F6F7F9"/>
<rect x="0.5" y="0.5" width="31" height="31" rx="15.5" stroke="#C62828"/>
<path d="M15.9874 5.10156C19.0124 5.10156 21.7437 6.32032 23.7 8.27657C25.6875 10.2641 26.9001 12.9891 26.9001 15.9891C26.9001 18.9891 25.6812 21.7453 23.7 23.7016C21.7437 25.6891 19.0124 26.9016 15.9874 26.9016C12.9624 26.9016 10.2625 25.6828 8.27502 23.7016C6.31877 21.7453 5.09998 19.0141 5.09998 15.9891C5.09998 12.9641 6.31877 10.2641 8.27502 8.27657C10.2625 6.32032 12.9874 5.10156 15.9874 5.10156ZM20.0251 11.414C21.1501 11.414 22.0438 12.3016 22.0438 13.4016C22.0438 14.5016 21.1563 15.4203 20.0251 15.4203C18.8938 15.4203 18.0374 14.5328 18.0374 13.4016C18.0374 12.2703 18.9251 11.414 20.0251 11.414ZM12.1062 11.3578C13.2062 11.3578 14.1249 12.2453 14.1249 13.3453C14.1249 14.4453 13.2062 15.3641 12.1062 15.3641C11.0062 15.3641 10.0875 14.4766 10.0875 13.3453C10.0875 12.2141 11.0062 11.3578 12.1062 11.3578ZM12.1625 21.8828C12.1625 22.239 11.8688 22.5078 11.5375 22.5078C11.2063 22.5078 10.9125 22.239 10.9125 21.8828C10.9125 20.664 11.5062 19.5703 12.4562 18.7703C13.375 18.0016 14.6187 17.5266 15.9874 17.5266C17.3562 17.5266 18.625 18.0016 19.5438 18.7703C20.4625 19.5703 21.0562 20.6703 21.0562 21.8828C21.0562 22.239 20.7875 22.5078 20.4312 22.5078C20.1062 22.5078 19.8375 22.239 19.8375 21.8828C19.8375 21.0515 19.425 20.2828 18.7375 19.7203C18.0563 19.1266 17.0749 18.7391 15.9812 18.7391C14.8874 18.7391 13.9375 19.1266 13.225 19.7203C12.575 20.2828 12.1562 21.0578 12.1562 21.8828H12.1625ZM22.8376 9.13282C21.0876 7.38282 18.6562 6.31406 15.9874 6.31406C13.3187 6.31406 10.9187 7.38282 9.13745 9.13282C7.38745 10.8828 6.3187 13.314 6.3187 15.9828C6.3187 18.6515 7.38745 21.0828 9.13745 22.8328C10.9187 24.5828 13.3187 25.6828 15.9874 25.6828C18.6562 25.6828 21.0876 24.5828 22.8376 22.8328C24.5876 21.0828 25.6874 18.6515 25.6874 15.9828C25.6874 13.314 24.5876 10.8828 22.8376 9.13282Z" fill="#C62828"/>
</svg>
