<svg width="25" height="24" viewBox="0 0 25 24" fill="none" xmlns="http://www.w3.org/2000/svg">
<path d="M19.0921 7.54785C19.5735 7.49617 20.034 7.79991 20.1633 8.28223L22.0784 15.4307C22.2151 15.9416 21.9299 16.464 21.4368 16.6328C21.3894 16.6739 21.3378 16.7116 21.2815 16.7441L20.218 17.3584C19.7397 17.6345 19.128 17.4705 18.8518 16.9922L16.9817 13.7539H8.26198L6.39186 16.9922C6.11575 17.4703 5.50483 17.6342 5.02662 17.3584L3.96217 16.7441C3.95197 16.7382 3.94279 16.7308 3.93287 16.7246L3.87233 16.709C3.33897 16.566 3.02237 16.0168 3.1653 15.4834L5.11061 8.22559C5.24676 7.71782 5.74982 7.40734 6.25807 7.50195V6.82422H19.0921V7.54785Z" fill="#868A93"/>
<path d="M7.73663 6.08203H17.5616C18.3216 6.08203 18.9616 6.41204 19.5316 6.93704C20.5266 7.83704 21.2416 9.38203 21.7166 10.992C22.1916 12.582 22.4266 14.2671 22.4266 15.4771C22.4266 16.3771 22.2866 17.092 22.0016 17.397L21.9766 17.422C21.9766 17.422 21.9316 17.467 21.8816 17.492C21.5716 17.752 21.0266 17.8971 20.4816 17.9171C19.9366 17.9171 19.3666 17.797 19.0566 17.537C19.0316 17.492 18.9866 17.467 18.9616 17.442L16.4016 14.407C16.3566 14.362 16.3066 14.312 16.2616 14.287C16.1916 14.262 16.0966 14.2621 16.0016 14.2621H9.31161C9.21662 14.2621 9.12164 14.262 9.05164 14.287C9.00664 14.312 8.95661 14.357 8.93161 14.407L6.34662 17.442C6.34662 17.442 6.30161 17.4871 6.27661 17.5121C5.96661 17.7971 5.39662 17.9171 4.85162 17.9171C4.30662 17.8921 3.73664 17.752 3.42664 17.492C3.40164 17.467 3.38163 17.447 3.33163 17.422V17.397C3.04663 17.087 2.90662 16.3771 2.90662 15.4771C2.90662 14.2671 3.12162 12.582 3.59662 10.992C4.07162 9.37703 4.80662 7.83704 5.78162 6.93704C6.35162 6.41704 7.01662 6.08203 7.75162 6.08203H7.73663ZM16.3766 10.7321C16.7566 10.7321 17.0666 11.042 17.0666 11.422C17.0666 11.802 16.7566 12.112 16.3766 12.112C15.9966 12.112 15.6866 11.802 15.6866 11.422C15.6866 11.042 15.9966 10.7321 16.3766 10.7321ZM17.6766 9.42703C18.0816 9.42703 18.3866 9.73703 18.3866 10.117C18.3866 10.497 18.0766 10.807 17.6766 10.807C17.2966 10.807 16.9866 10.497 16.9866 10.117C16.9866 9.73703 17.2966 9.42703 17.6766 9.42703ZM15.0716 9.42703C15.4516 9.42703 15.7616 9.73703 15.7616 10.117C15.7616 10.497 15.4516 10.807 15.0716 10.807C14.6666 10.807 14.3616 10.497 14.3616 10.117C14.3616 9.73703 14.6716 9.42703 15.0716 9.42703ZM16.3766 8.09705C16.7566 8.09705 17.0666 8.40705 17.0666 8.78705C17.0666 9.16705 16.7566 9.49704 16.3766 9.49704C15.9966 9.49704 15.6866 9.16705 15.6866 8.78705C15.6866 8.40705 15.9966 8.09705 16.3766 8.09705ZM10.3716 9.59204C10.6316 9.59204 10.8466 9.80704 10.8716 10.092C10.8716 10.352 10.6566 10.567 10.3716 10.567L9.30164 10.592L9.32663 11.662C9.32663 11.947 9.11163 12.162 8.82663 12.162C8.56663 12.162 8.35163 11.947 8.32663 11.687V10.617H7.23663C6.97663 10.617 6.76163 10.402 6.76163 10.142C6.73663 9.88203 6.97663 9.64203 7.23663 9.64203H8.30661V8.55203C8.28161 8.29203 8.52162 8.05203 8.78162 8.05203C9.04162 8.05203 9.28162 8.26703 9.28162 8.55203V9.62204L10.3716 9.59705V9.59204ZM11.7466 7.07703H7.73663C7.26163 7.07703 6.83661 7.29203 6.43161 7.64703C5.60161 8.40703 4.96162 9.80704 4.53162 11.277C4.08162 12.772 3.86664 14.3371 3.86664 15.4771C3.86664 16.1421 3.91162 16.6171 4.03162 16.7321L4.05661 16.757C4.17661 16.877 4.50663 16.9221 4.86163 16.9471C5.17163 16.9471 5.47662 16.902 5.59662 16.807L8.15662 13.772C8.29662 13.607 8.48664 13.487 8.67664 13.392C8.86664 13.322 9.08163 13.272 9.29163 13.272H15.9816C16.1966 13.272 16.4066 13.317 16.6216 13.392C16.8116 13.487 16.9766 13.607 17.1216 13.772L19.7066 16.807C19.8016 16.902 20.1116 16.9471 20.4416 16.9471C20.7716 16.9221 21.1066 16.877 21.2466 16.757V16.7321C21.3666 16.6121 21.4366 16.1371 21.4366 15.4771C21.4366 14.3371 21.2016 12.772 20.7716 11.277C20.3466 9.80704 19.7016 8.40703 18.8716 7.64703C18.4666 7.29203 18.0166 7.07703 17.5416 7.07703H11.7266H11.7466Z" fill="#868A93"/>
<rect x="8.3241" y="12.1719" width="4.08496" height="0.962891" rx="0.481445" transform="rotate(-90 8.3241 12.1719)" fill="#3E3D3E"/>
<rect x="6.76306" y="9.64844" width="4.08496" height="0.962891" rx="0.481445" fill="#3E3D3E"/>
<circle cx="16.3678" cy="8.76367" r="0.677734" fill="#FBFCFB"/>
<circle cx="16.3678" cy="11.4121" r="0.677734" fill="#FBFCFB"/>
<circle cx="15.0878" cy="10.1191" r="0.677734" fill="#FBFCFB"/>
<circle cx="17.6478" cy="10.1191" r="0.677734" fill="#FBFCFB"/>
</svg>
