<svg width="25" height="24" viewBox="0 0 25 24" fill="none" xmlns="http://www.w3.org/2000/svg">
<path d="M8.71197 13.2366C8.76493 12.1719 9.64355 11.3359 10.7095 11.3359H14.6235C15.6895 11.3359 16.5681 12.1719 16.621 13.2366L16.9221 19.2873C16.9789 20.4295 16.0681 21.3867 14.9245 21.3867H10.4085C9.26489 21.3867 8.35414 20.4295 8.41096 19.2873L8.71197 13.2366Z" fill="#D1D2D6"/>
<path d="M8.60084 15.4893C8.62738 14.957 9.0667 14.5391 9.59964 14.5391L15.7311 14.5394C16.2638 14.5394 16.703 14.9571 16.7298 15.4892L16.9737 20.341C17.0024 20.9123 16.547 21.3912 15.975 21.3912H9.35763C8.78578 21.3912 8.33039 20.9126 8.35887 20.3414L8.60084 15.4893Z" fill="#F3DBCA"/>
<rect x="8.7489" y="10.1016" width="7.82666" height="1.89844" rx="0.949219" fill="#EB8545"/>
<rect x="12.9366" y="13.3203" width="2.82788" height="0.916016" rx="0.458008" fill="#EB8545"/>
<rect x="12.9366" y="15.0547" width="2.82788" height="0.916016" rx="0.458008" fill="#EB8545"/>
<rect x="12.9366" y="16.7734" width="2.82788" height="0.916016" rx="0.458008" fill="#EB8545"/>
<rect x="12.9366" y="18.4922" width="2.82788" height="0.916016" rx="0.458008" fill="#EB8545"/>
<path d="M12.6671 3.08984C13.3762 3.09011 13.9512 3.66493 13.9513 4.37402C13.9513 4.5765 13.9019 4.76716 13.8185 4.9375C13.8058 4.98055 13.7889 5.0227 13.7609 5.05957C13.4754 5.43325 13.1156 6.29679 13.4757 7.23926C14.9657 7.66306 16.0703 9.20686 16.0704 11.0479H9.23059C9.23069 9.18922 10.3566 7.63363 11.8683 7.22754C12.1931 6.36429 11.9167 5.56865 11.6486 5.15723L11.6212 5.11816C11.6126 5.10603 11.6031 5.09448 11.5948 5.08203L11.5792 5.05957C11.5658 5.04203 11.5569 5.02212 11.547 5.00293C11.5406 4.99164 11.5345 4.98025 11.5284 4.96875C11.5278 4.96712 11.5271 4.96551 11.5265 4.96387C11.4349 4.78717 11.382 4.58677 11.382 4.37402C11.3821 3.66477 11.9578 3.08984 12.6671 3.08984Z" fill="#EFAE83"/>
</svg>
