<svg width="24" height="24" viewBox="0 0 24 24" fill="none" xmlns="http://www.w3.org/2000/svg">
<path d="M5.08301 14.165H19.1514L19.4551 10.1455L21.8037 10.3232L21.3496 16.3291L19.6328 16.1982V16.3311H4.03027V16.2402L2.98535 16.3721L2.23438 10.3955L4.57227 10.1016L5.08301 14.165Z" fill="#ECBD5D"/>
<rect x="5.08057" y="5.71094" width="13.9202" height="8.3418" rx="1.5" fill="#F5CD72"/>
<path d="M2.97735 9.41782H3.9024C4.0924 9.41782 4.25742 9.46282 4.42242 9.51282V7.92282C4.42242 7.23282 4.70731 6.59282 5.18231 6.14282C5.63231 5.66782 6.27234 5.38281 6.96234 5.38281H17.0673C17.7573 5.38281 18.3973 5.66782 18.8473 6.14282C19.3223 6.59282 19.6074 7.23282 19.6074 7.92282V9.51282C19.7724 9.46782 19.9374 9.41782 20.1274 9.41782H21.0523C21.2673 9.41782 21.4774 9.46282 21.6674 9.55782C21.8824 9.65282 22.0473 9.77282 22.1873 9.93782C22.3273 10.1278 22.4474 10.3178 22.4974 10.5328C22.5474 10.7228 22.5674 10.9378 22.5224 11.1728L21.6923 16.4878C21.6673 16.7228 21.4573 16.9128 21.2173 16.9128H19.6973V18.1228C19.6973 18.4078 19.4823 18.6228 19.2223 18.6228H18.1773C17.9173 18.6228 17.7023 18.4078 17.7023 18.1228V16.9128H6.43231V18.1228C6.43231 18.4078 6.19731 18.6228 5.93231 18.6228H4.91241C4.65241 18.6228 4.41241 18.4078 4.41241 18.1228V16.9128H2.79742C2.53742 16.9128 2.32242 16.6978 2.29742 16.4628L1.46734 11.1728C1.44234 10.9378 1.44238 10.7228 1.51238 10.5328C1.55738 10.3178 1.67732 10.1278 1.82232 9.93782C1.96232 9.77282 2.13234 9.65282 2.34234 9.55782C2.53234 9.46282 2.74733 9.41782 2.95733 9.41782H2.97735ZM13.0374 11.8378H18.6124V7.92282C18.6124 7.49782 18.4474 7.11781 18.1624 6.83281C17.8774 6.54781 17.4973 6.35782 17.0723 6.35782H6.96734C6.54234 6.35782 6.16237 6.54781 5.87737 6.83281C5.59237 7.11781 5.4024 7.49782 5.4024 7.92282V11.8378H11.0024C11.3824 11.8378 11.7624 11.9778 12.0224 12.1928H12.0474C12.3074 11.9778 12.6624 11.8378 13.0424 11.8378H13.0374ZM18.6124 12.8328H13.0374C12.8724 12.8328 12.7524 12.8578 12.6574 12.9528H12.6324C12.5624 13.0228 12.5124 13.0928 12.5124 13.1878V13.5678H18.6124V12.8328ZM10.9974 12.8328H5.39739V13.5678H11.5174V13.1878C11.5174 13.0928 11.4724 13.0228 11.3974 12.9528C11.3024 12.8828 11.1624 12.8328 10.9924 12.8328H10.9974ZM18.7324 16.9128H18.6873V17.6478H18.7324V16.9128ZM5.44732 16.9128H5.4024V17.6478H5.44732V16.9128ZM3.9024 10.3878H2.97735C2.90735 10.3878 2.81238 10.4128 2.76238 10.4328C2.69238 10.4778 2.62232 10.5278 2.57232 10.5728C2.52732 10.6428 2.47733 10.7128 2.45233 10.7878C2.45233 10.8578 2.42733 10.9278 2.45233 11.0028L3.21233 15.9378H20.7924L21.5773 11.0028C21.5773 10.9328 21.5773 10.8628 21.5523 10.7878C21.5523 10.7178 21.5023 10.6478 21.4573 10.5728C21.4073 10.5228 21.3374 10.4778 21.2674 10.4328C21.1974 10.4078 21.1273 10.3878 21.0523 10.3878H20.1274C19.9874 10.3878 19.8424 10.4578 19.7474 10.5528C19.6524 10.6478 19.6074 10.7678 19.6074 10.9328V14.0428C19.6074 14.3278 19.3724 14.5428 19.1074 14.5428H4.91741C4.65741 14.5428 4.41741 14.3278 4.41741 14.0428V10.9328C4.41741 10.7678 4.3724 10.6478 4.2774 10.5528C4.1824 10.4578 4.04239 10.3878 3.89739 10.3878H3.9024Z" fill="#ECBD5D"/>
<path d="M4.38892 16.9102H6.46973V18.1523C6.46973 18.4285 6.24587 18.6523 5.96973 18.6523H4.88892C4.61277 18.6523 4.38892 18.4285 4.38892 18.1523V16.9102Z" fill="#86878D"/>
<path d="M17.6379 16.9102H19.7188V18.1523C19.7188 18.4285 19.4949 18.6523 19.2188 18.6523H18.1379C17.8618 18.6523 17.6379 18.4285 17.6379 18.1523V16.9102Z" fill="#86878D"/>
<path d="M5.33984 11.8555H11.4998C11.7759 11.8555 11.9998 12.0793 11.9998 12.3555V13.5645H5.33984V11.8555Z" fill="#D9A653"/>
<path d="M18.6597 11.8555H12.4998C12.2236 11.8555 11.9998 12.0793 11.9998 12.3555V13.5645H18.6597V11.8555Z" fill="#D9A653"/>
<circle cx="9.62708" cy="8.3634" r="0.421997" fill="#DDAD59"/>
<circle cx="9.62708" cy="9.88293" r="0.421997" fill="#DDAD59"/>
<circle cx="14.4454" cy="8.3634" r="0.421997" fill="#DDAD59"/>
<circle cx="14.4454" cy="9.88293" r="0.421997" fill="#DDAD59"/>
</svg>
