<svg width="24" height="24" viewBox="0 0 24 24" fill="none" xmlns="http://www.w3.org/2000/svg">
<path d="M15.7826 12.133C15.9476 11.968 16.1126 11.823 16.3026 11.683L15.2826 9.73798L14.9276 10.403L13.5526 13.013H13.5276V13.038L13.2926 13.463C13.2926 13.463 13.3376 13.508 13.3626 13.533V13.558H13.3876V13.583H13.4126V13.608H13.4376V13.633H13.4626V13.658C13.6526 13.873 13.7726 14.108 13.8426 14.368H14.6726C14.7926 13.563 15.1476 12.753 15.7876 12.138L15.7826 12.133ZM10.7326 13.533L10.7576 13.508L8.7876 9.71298L7.74258 11.708C7.90758 11.828 8.07258 11.968 8.24258 12.133C8.97758 12.893 9.3576 13.863 9.3576 14.863C9.3576 15.863 8.97758 16.833 8.24258 17.593C7.48258 18.328 6.4876 18.708 5.5126 18.708C4.5376 18.708 3.54259 18.328 2.78259 17.593C2.02259 16.833 1.64258 15.838 1.64258 14.863C1.64258 13.888 2.02259 12.893 2.78259 12.133C3.54259 11.373 4.5126 10.993 5.5126 10.993C5.9626 10.993 6.43758 11.088 6.86258 11.253L9.49759 6.29297H8.1676C7.9076 6.29297 7.6926 6.05797 7.6926 5.79297C7.6926 5.52797 7.9076 5.29297 8.1676 5.29297H10.3026C10.5876 5.29297 10.8026 5.52797 10.8026 5.79297C10.8026 5.88797 10.7776 5.95798 10.7326 6.02798L9.59259 8.18799H14.8376L15.6926 6.40796H15.0026C14.7426 6.40796 14.5276 6.19298 14.5276 5.93298C14.5276 5.64798 14.7426 5.43298 15.0026 5.43298H17.6576C17.9176 5.43298 18.1576 5.64798 18.1576 5.93298C18.1576 6.19298 17.9226 6.40796 17.6576 6.40796H16.7776L15.7576 8.49799L17.1826 11.228C17.6076 11.063 18.0626 10.993 18.5126 10.993C19.4876 10.993 20.4826 11.373 21.2426 12.133C21.9776 12.893 22.3576 13.863 22.3576 14.863C22.3576 15.863 21.9776 16.833 21.2426 17.593C20.4826 18.328 19.4876 18.708 18.5126 18.708C17.5376 18.708 16.5426 18.328 15.7826 17.593C15.1426 16.953 14.7876 16.168 14.6676 15.338H13.8376C13.7676 15.648 13.6026 15.933 13.3626 16.168C13.0076 16.523 12.5326 16.713 12.0576 16.713C11.5826 16.713 11.0826 16.523 10.7276 16.168C10.3726 15.813 10.1826 15.338 10.1826 14.863C10.1826 14.388 10.3726 13.913 10.7276 13.533H10.7326ZM11.6076 13.038C11.7476 13.013 11.8926 12.988 12.0576 12.988C12.1776 12.988 12.2926 13.013 12.4126 13.038L12.6476 12.588H12.6726L14.3326 9.17297H9.58759L11.6026 13.038H11.6076ZM12.0576 13.988C11.8226 13.988 11.6076 14.058 11.4176 14.223C11.2526 14.413 11.1576 14.628 11.1576 14.863C11.1576 15.078 11.2526 15.313 11.4176 15.478C11.6076 15.643 11.8226 15.738 12.0576 15.738C12.2726 15.738 12.5076 15.643 12.6726 15.478C12.8376 15.313 12.9326 15.073 12.9326 14.863V14.818C12.9076 14.603 12.8376 14.413 12.6976 14.248H12.6726V14.223C12.5076 14.058 12.2676 13.988 12.0576 13.988ZM5.5126 11.968C4.7776 11.968 4.0426 12.253 3.4726 12.823C2.9026 13.393 2.61758 14.128 2.61758 14.863C2.61758 15.598 2.9026 16.333 3.4726 16.903C4.0426 17.448 4.7776 17.733 5.5126 17.733C6.2476 17.733 6.98258 17.448 7.55258 16.903C8.09758 16.333 8.3826 15.598 8.3826 14.863C8.3826 14.128 8.09758 13.393 7.55258 12.823C7.45758 12.728 7.36258 12.658 7.26758 12.588L5.93759 15.078C5.81759 15.313 5.51258 15.408 5.27258 15.293C5.03758 15.173 4.94258 14.868 5.08258 14.628L6.4126 12.113C6.1026 12.018 5.8176 11.973 5.5126 11.973V11.968ZM17.6326 12.113L18.9376 14.628C19.0576 14.863 18.9626 15.173 18.7226 15.293C18.6526 15.338 18.5826 15.338 18.5076 15.338H15.6626C15.7576 15.908 16.0176 16.453 16.4676 16.903C17.0376 17.448 17.7726 17.733 18.5076 17.733C19.2426 17.733 19.9776 17.448 20.5476 16.903C21.0926 16.333 21.3776 15.598 21.3776 14.863C21.3776 14.128 21.0926 13.393 20.5476 12.823C19.9776 12.253 19.2426 11.968 18.5076 11.968C18.1976 11.968 17.9126 12.013 17.6276 12.108L17.6326 12.113ZM15.6676 14.368H17.7076L16.7576 12.563C16.6626 12.633 16.5676 12.728 16.4726 12.823C16.0226 13.248 15.7626 13.798 15.6676 14.363V14.368Z" fill="#5DA2E1"/>
<circle cx="5.51514" cy="14.8081" r="3.35186" stroke="#4B4B4B" stroke-width="1.1"/>
<circle cx="18.5115" cy="14.8081" r="3.35186" stroke="#4B4B4B" stroke-width="1.1"/>
</svg>
