<svg width="25" height="24" viewBox="0 0 25 24" fill="none" xmlns="http://www.w3.org/2000/svg">
<path d="M7.44739 7.59593H8.91739V6.12595C8.91739 5.20095 9.29738 4.34593 9.93738 3.70593C10.5524 3.09093 11.4074 2.71094 12.3324 2.71094C13.2574 2.71094 14.1374 3.09093 14.7524 3.70593C15.3674 4.34593 15.7724 5.20095 15.7724 6.12595V7.59593H17.2174C17.4774 7.59593 17.6924 7.78593 17.7174 8.02094L19.6624 20.7159C19.7074 21.0009 19.5224 21.2359 19.2574 21.2859H5.49738C5.23738 21.2859 4.99738 21.0709 4.99738 20.7859C4.99738 20.7609 5.02237 20.7409 5.02237 20.6909L6.96738 8.02094C7.01238 7.76093 7.20238 7.59593 7.44238 7.59593H7.44739ZM15.2774 9.06593C15.8224 9.06593 16.2524 9.49094 16.2524 10.0409C16.2524 10.3959 16.0624 10.7309 15.7774 10.8959V11.0159C15.7774 11.9659 15.3724 12.8209 14.7574 13.4359C14.1424 14.0509 13.2874 14.4559 12.3374 14.4559C11.3874 14.4559 10.5574 14.0509 9.94238 13.4359C9.30238 12.8209 8.92239 11.9659 8.92239 11.0159V10.8959C8.63739 10.7309 8.44739 10.3959 8.44739 10.0409C8.44739 9.49594 8.87239 9.06593 9.42239 9.06593C9.97239 9.06593 10.3974 9.49094 10.3974 10.0409C10.3974 10.3959 10.2074 10.7309 9.89737 10.8959V11.0159C9.89737 11.7059 10.1824 12.2959 10.6324 12.7459C11.0574 13.1959 11.6774 13.4559 12.3424 13.4559C13.0074 13.4559 13.6474 13.1959 14.0724 12.7459C14.5224 12.2959 14.7824 11.7009 14.7824 11.0159V10.8959C14.4974 10.7309 14.3074 10.3959 14.3074 10.0409C14.3074 9.49594 14.7324 9.06593 15.2824 9.06593H15.2774ZM14.0674 4.41594C13.6424 3.96594 13.0224 3.68094 12.3374 3.68094C11.6524 3.68094 11.0574 3.96594 10.6274 4.41594C10.1774 4.84094 9.89236 5.46095 9.89236 6.12595V7.59593H14.7824V6.12595C14.7824 5.46095 14.5224 4.84594 14.0724 4.41594H14.0674ZM16.8224 8.56593H7.87738L6.07239 20.3109H18.6224L16.8174 8.56593H16.8224Z" fill="#E1824A"/>
<path d="M6.87694 8.00522C6.9131 7.75989 7.12361 7.57812 7.37159 7.57812H17.2862C17.5342 7.57812 17.7447 7.75989 17.7809 8.00522L19.6534 20.7103C19.6979 21.0122 19.4639 21.2832 19.1588 21.2832H5.49908C5.19391 21.2832 4.95992 21.0122 5.00442 20.7103L6.87694 8.00522Z" fill="#B6582A"/>
<path d="M15.2798 9.06641C15.279 9.06641 15.2781 9.06641 15.2773 9.06641H15.2823C15.2815 9.06641 15.2806 9.06641 15.2798 9.06641C15.8236 9.06771 16.2523 9.49225 16.2523 10.0414C16.2523 10.3964 16.0623 10.7314 15.7773 10.8964V11.0164C15.7773 11.9664 15.3723 12.8214 14.7573 13.4364C14.1423 14.0514 13.2873 14.4564 12.3373 14.4564C11.3873 14.4564 10.5573 14.0514 9.94232 13.4364C9.30232 12.8214 8.92233 11.9664 8.92233 11.0164V10.8964C8.63733 10.7314 8.44733 10.3964 8.44733 10.0414C8.44733 9.49641 8.87233 9.06641 9.42233 9.06641C9.97233 9.06641 10.3973 9.49141 10.3973 10.0414C10.3973 10.3964 10.2073 10.7314 9.89731 10.8964V11.0164C9.89731 11.7064 10.1823 12.2964 10.6323 12.7464C11.0573 13.1964 11.6773 13.4564 12.3423 13.4564C13.0073 13.4564 13.6473 13.1964 14.0723 12.7464C14.5223 12.2964 14.7823 11.7014 14.7823 11.0164V10.8964C14.4973 10.7314 14.3073 10.3964 14.3073 10.0414C14.3073 9.49724 14.731 9.06771 15.2798 9.06641Z" fill="#E1824A"/>
</svg>
