<svg width="25" height="24" viewBox="0 0 25 24" fill="none" xmlns="http://www.w3.org/2000/svg">
<rect x="9.02014" y="20.125" width="1.39624" height="1.29688" rx="0.5" fill="#C5C6C8"/>
<rect x="14.9161" y="20.125" width="1.39819" height="1.29688" rx="0.5" fill="#C5C6C8"/>
<rect x="6.98669" y="3.25781" width="11.3599" height="16.6602" fill="#00AEC1"/>
<path d="M17.4767 19.6133V20.6133H7.85657V19.6133H17.4767ZM17.9767 19.1133V4.0625C17.9767 3.78636 17.7528 3.5625 17.4767 3.5625H7.85657C7.59773 3.5625 7.38467 3.75917 7.35901 4.01123L7.35657 4.0625V19.1133C7.35657 19.3894 7.58043 19.6133 7.85657 19.6133V20.6133L7.77942 20.6113C7.0124 20.5725 6.39738 19.9575 6.35852 19.1904L6.35657 19.1133V4.0625C6.35657 3.25995 6.98684 2.60461 7.77942 2.56445L7.85657 2.5625H17.4767L17.5538 2.56445C18.3464 2.60461 18.9767 3.25995 18.9767 4.0625V19.1133L18.9747 19.1904C18.9359 19.9575 18.3209 20.5725 17.5538 20.6113L17.4767 20.6133V19.6133C17.7528 19.6133 17.9767 19.3894 17.9767 19.1133Z" fill="#00AEC1"/>
<path d="M17.4772 9.70313L17.528 9.70557C17.7801 9.73112 17.9772 9.9442 17.9772 10.2031C17.9772 10.462 17.7801 10.6751 17.528 10.7007L17.4772 10.7031L7.85608 10.7031C7.57994 10.7031 7.35608 10.4793 7.35608 10.2031C7.35608 9.92698 7.57994 9.70313 7.85608 9.70313L17.4772 9.70313Z" fill="#1B0000"/>
<rect x="15.6154" y="6.59766" width="1" height="2.18359" rx="0.5" fill="#1B0000"/>
<rect x="15.6154" y="11.6289" width="1" height="2.18359" rx="0.5" fill="#1B0000"/>
<rect x="6.23718" y="2.58594" width="12.9705" height="17.7773" rx="1.25" stroke="#D9D9D9" stroke-width="0.5"/>
</svg>
