<svg width="25" height="24" viewBox="0 0 25 24" fill="none" xmlns="http://www.w3.org/2000/svg">
<path d="M3.29407 11.8966L2.79285 9.02944L3.62819 8.75102L4.40778 9.55845L5.54932 11.1455L5.74421 10.8114L6.27322 9.41924C6.43099 9.1965 6.77438 8.75102 6.88575 8.75102C7.02497 8.75102 7.47045 8.25 7.60966 8.25H8.11082L9.30805 8.75102C10.8765 8.7603 14.1025 8.77329 14.4589 8.75102C14.8153 8.72874 15.9995 8.40772 16.5471 8.25L17.4937 9.02944L18.1619 9.8927L18.5239 11.3962C18.6353 11.8695 18.8691 12.844 18.9137 12.9554C18.9582 13.0667 18.6724 14.4681 18.5239 15.1549L17.8 15.7118L16.5471 18.0505L15.2942 18.3568L13.1781 18.5517C11.7303 18.496 8.80131 18.3791 8.66767 18.3568C8.53403 18.3345 7.90664 18.032 7.60966 17.8835L6.74654 16.7698L5.54932 15.1549L4.40778 14.9322L3.29407 11.8966Z" fill="#EFA49D"/>
<path d="M19.321 9.15869C18.7659 9.17688 18.149 9.32122 17.9099 9.39111L17.4935 10.5234L19.5986 10.2227L20.8477 10.5234L21.0791 11.0786L21.241 11.842L21.0791 12.6285L20.4314 13.3687L19.4829 14.0858L18.6039 14.2246V15.4506H18.8121L19.4829 15.2656L20.7089 14.5485L21.6342 13.8776L22.1894 12.8135L22.6058 11.5875L22.1894 10.5234L21.6342 9.69064L20.7089 9.27474C20.4776 9.22848 19.8762 9.1405 19.321 9.15869Z" fill="#EFA49D"/>
<path d="M8.63614 5.86969C8.99114 5.72969 9.37115 5.63469 9.80115 5.55969C10.0361 5.51469 10.3011 5.46467 10.5611 5.43967V5.39468C10.5611 4.98968 10.7011 4.58967 11.0111 4.25467C11.3211 3.94467 11.7462 3.80469 12.1512 3.80469C12.5562 3.80469 12.9561 3.94467 13.2661 4.25467C13.5761 4.58467 13.7411 4.98968 13.7411 5.39468V5.43967C14.0012 5.46467 14.2411 5.50969 14.5011 5.55969C14.9061 5.62969 15.3061 5.72469 15.6661 5.86969C16.3061 6.08469 16.7561 6.36968 17.0411 6.67468C17.2561 6.90968 17.3711 7.19468 17.3711 7.47968C17.3711 7.61968 17.3462 7.76466 17.2762 7.90466C17.5612 8.18966 17.8211 8.51968 18.0611 8.82968C18.5111 8.66468 18.9861 8.56968 19.4361 8.51968C20.0311 8.47468 20.6211 8.54468 21.1461 8.73468C21.4061 8.82968 21.6462 8.94969 21.8362 9.08969C22.4312 9.49469 22.8311 10.0647 23.0011 10.7047C23.1911 11.3447 23.1411 12.0547 22.8811 12.7697C22.7611 13.0997 22.5961 13.4347 22.3811 13.7447C21.9311 14.4347 21.3111 15.0047 20.6011 15.4047C19.9861 15.7847 19.2712 16.0197 18.5862 16.1397C18.2562 16.8297 17.8012 17.4697 17.2112 18.0397C17.0712 18.2047 16.9012 18.3497 16.7112 18.5147C16.5712 18.6347 16.4261 18.7297 16.2611 18.8447V19.6997C16.2611 19.9847 16.0461 20.1997 15.7861 20.1997H8.62112C8.36112 20.1997 8.14615 19.9847 8.14615 19.6997V18.9647L8.05115 18.9197C7.86115 18.7797 7.67113 18.6597 7.50613 18.5147C7.34113 18.3497 7.17613 18.2047 7.00613 18.0397C6.31613 17.3747 5.82113 16.5947 5.46613 15.7597C3.45113 15.4747 3.16614 13.7447 2.85614 11.9397C2.66614 10.7997 2.47614 9.63967 1.76614 9.06967C1.64614 8.97467 1.55115 8.83467 1.55115 8.66467C1.55115 8.37967 1.76615 8.16467 2.05115 8.16467H3.59113C3.75613 8.16467 3.90112 8.23467 3.99612 8.37967L5.39615 10.2997C5.72615 9.39968 6.27614 8.56968 6.98615 7.82968C6.94114 7.70968 6.91614 7.59467 6.91614 7.47467C6.91614 7.18967 7.03615 6.90468 7.27115 6.66968C7.53115 6.35968 8.00615 6.07469 8.64615 5.86469L8.63614 5.86969ZM15.2811 18.9897H9.11115V19.2247H15.2811V18.9897ZM15.7762 9.04968L15.7511 9.07468H15.7061L15.6812 9.09967H15.6561C14.6611 9.45467 13.4011 9.61969 12.1461 9.61969C10.8911 9.61969 9.60614 9.45467 8.63614 9.09967H8.59113L8.56613 9.07468H8.51614V9.04968H8.44614V9.02469H8.40115V8.99966C8.16615 8.92966 7.97615 8.83468 7.80615 8.73969C7.73615 8.69468 7.66615 8.64467 7.61615 8.59967C6.81115 9.42967 6.28615 10.4247 6.02615 11.4697V11.4947L6.00113 11.5397V11.5647V11.6347L5.97614 11.6597V11.7047V11.7497L5.95114 11.7747V11.8447C5.95114 11.8947 5.92615 11.9397 5.92615 11.9647V11.9897L5.90115 12.0597C5.87615 12.3447 5.85614 12.6547 5.85614 12.9397C5.85614 14.5297 6.47115 16.1447 7.68115 17.3547C7.82115 17.4947 7.96614 17.6397 8.10614 17.7597C8.22614 17.8547 8.34115 17.9497 8.46115 18.0197H15.7211C15.8411 17.9497 15.9561 17.8547 16.0761 17.7597C16.2161 17.6397 16.3611 17.4997 16.5011 17.3547C17.7361 16.1447 18.3261 14.5297 18.3261 12.9397C18.3261 11.3497 17.7561 9.82968 16.6161 8.64468C16.5462 8.66968 16.4762 8.71468 16.4012 8.76468C16.2362 8.85968 15.9961 8.95468 15.7611 9.04968H15.7762ZM7.95114 7.59967L7.97614 7.62466C8.04614 7.71966 8.16615 7.81467 8.30615 7.88467C8.47115 7.97967 8.63614 8.07468 8.85114 8.14468H8.87613L8.90115 8.16968H8.94614C9.82614 8.47968 10.9862 8.61969 12.1512 8.61969C13.3162 8.61969 14.4761 8.47968 15.3311 8.16968H15.4012V8.14468C15.6162 8.07468 15.8061 8.00467 15.9461 7.90967C16.0861 7.83967 16.1812 7.74468 16.2762 7.67468L16.3011 7.64969C16.3461 7.57969 16.3961 7.52968 16.3961 7.48468C16.3961 7.43968 16.3511 7.38967 16.3011 7.31967C16.1361 7.12967 15.8011 6.93969 15.3261 6.77469C15.0161 6.67969 14.6862 6.58468 14.3062 6.51468C14.0212 6.46968 13.6911 6.41968 13.3811 6.39468C13.3361 6.43968 13.3111 6.46468 13.2611 6.51468L13.2361 6.53967L13.2112 6.56467H13.1861V6.58969L13.1611 6.61469H13.1361V6.63968H13.1111L13.0862 6.66467L13.0611 6.68967H13.0361V6.71469H13.0111L12.9861 6.73969L12.9612 6.76468H12.9361L12.9111 6.78967H12.8861L12.8611 6.81467H12.8362L12.8111 6.83969H12.7861L12.7611 6.86469H12.7361L12.7112 6.88968H12.6661V6.91467H12.5961L12.5711 6.93967H12.5262L12.5011 6.96469H12.4061V6.98969H12.2411L12.2161 7.01468H12.0011L11.9761 6.98969H11.8811C11.5511 6.94468 11.2411 6.79967 10.9811 6.53967V6.51468H10.9561V6.48969H10.9312L10.9061 6.46469V6.43967H10.8811V6.41467C10.5511 6.43967 10.2412 6.48467 9.93115 6.53467C9.57615 6.60467 9.22113 6.69968 8.91113 6.79468C8.43613 6.95968 8.10613 7.14969 7.93613 7.33969C7.89113 7.40969 7.86615 7.45967 7.86615 7.50467C7.86615 7.52967 7.86613 7.57466 7.91113 7.62466L7.95114 7.59967ZM18.5562 9.68967C18.6012 9.78467 18.6511 9.85468 18.6761 9.94968C18.9361 9.85468 19.2211 9.80967 19.4811 9.78467C19.9061 9.73967 20.3361 9.78468 20.7161 9.92468C20.8811 9.96968 21.0261 10.0447 21.1411 10.1397C21.5461 10.3997 21.7561 10.7797 21.8311 11.1847C21.9011 11.5647 21.8562 11.9697 21.7112 12.3497C21.6162 12.6097 21.4961 12.8497 21.3561 13.0597C21.0711 13.4647 20.6912 13.8447 20.2411 14.1497C19.8862 14.3847 19.5061 14.5997 19.1011 14.7447C19.0761 14.8397 19.0561 14.9347 19.0061 15.0547C19.3861 14.9347 19.7661 14.7697 20.0961 14.5797C20.6911 14.2247 21.1861 13.7747 21.5661 13.2047C21.7311 12.9697 21.8761 12.7047 21.9711 12.4447C22.1611 11.9247 22.1861 11.4247 22.0661 10.9747C21.9461 10.5497 21.6862 10.1697 21.3062 9.90466C21.1662 9.80966 20.9962 9.73968 20.8062 9.66968C20.4012 9.52968 19.9762 9.47967 19.5262 9.50467C19.1962 9.52967 18.8861 9.59967 18.5511 9.69467L18.5562 9.68967ZM19.0311 10.8497C19.2211 11.5397 19.3411 12.2247 19.3411 12.9397C19.3411 13.1547 19.3161 13.3647 19.2961 13.5797C19.4361 13.5097 19.5561 13.4397 19.7011 13.3647C20.0311 13.1047 20.3411 12.8197 20.5311 12.5097C20.6511 12.3697 20.7211 12.1997 20.7911 12.0097C20.8861 11.7947 20.9111 11.5597 20.8861 11.3447C20.8411 11.2047 20.7661 11.0347 20.6011 10.9397C20.5561 10.8947 20.4811 10.8697 20.3861 10.8197C20.1261 10.7497 19.8661 10.6997 19.5811 10.7497C19.3911 10.7497 19.2261 10.7947 19.0361 10.8447L19.0311 10.8497ZM5.07614 14.6247C4.93614 14.0797 4.88614 13.5097 4.88614 12.9397C4.88614 12.4397 4.93115 11.9647 5.02615 11.4697L3.34113 9.14468H3.08115C3.50615 9.90468 3.65113 10.8547 3.81613 11.7797C4.00613 12.9897 4.22114 14.1747 5.07614 14.6247ZM11.6761 5.77469V5.79968H11.7011V5.82468H11.7261C11.7961 5.91968 11.9161 5.96468 12.0361 5.98969H12.3211V5.96469H12.3661L12.3911 5.93967H12.4361V5.91467H12.4612L12.4861 5.88968H12.5111V5.86469H12.5361V5.83969H12.5611V5.81467H12.5862C12.7062 5.69467 12.7511 5.52968 12.7511 5.38968C12.7511 5.22468 12.7062 5.07969 12.5862 4.96469C12.4662 4.84469 12.3011 4.77469 12.1611 4.77469C11.9961 4.77469 11.8511 4.84469 11.7361 4.96469H11.7112C11.5912 5.08469 11.5461 5.22468 11.5461 5.38968C11.5461 5.52968 11.5911 5.64968 11.6861 5.76968L11.6761 5.77469Z" fill="#EFA49D"/>
<path d="M7.9447 18.832H16.2745V19.709C16.2745 19.9851 16.0507 20.209 15.7745 20.209H8.4447C8.16856 20.209 7.9447 19.9851 7.9447 19.709V18.832Z" fill="#DE6959"/>
<ellipse cx="12.1783" cy="7.40625" rx="5.30103" ry="2.21094" fill="#DE6959"/>
<circle cx="12.1783" cy="5.19531" r="1.69531" fill="#EFA49D"/>
</svg>
