<svg width="24" height="24" viewBox="0 0 24 24" fill="none" xmlns="http://www.w3.org/2000/svg">
<path d="M14.4072 8.66406C14.6834 8.66406 14.9072 8.88792 14.9072 9.16406V10.2637C14.9072 10.2788 14.9066 10.2938 14.9053 10.3086H15.4155V18.8164H6.68848V10.3086H7.46533C7.46401 10.2938 7.46338 10.2788 7.46338 10.2637V9.16406C7.46339 8.88793 7.68724 8.66406 7.96338 8.66406H14.4072Z" fill="#E46959"/>
<path d="M6.97382 18.4878H10.9588C10.9338 18.3928 10.9088 18.2978 10.9088 18.2028V18.1578V18.1328V18.1078V18.0628L10.8838 18.0378V18.0128V17.9878V17.9628V17.9378V17.9128V17.8428V17.6778V17.6078C10.8838 17.6078 10.9088 17.5378 10.9088 17.5128V17.4428V17.3728L10.9338 17.2778V17.2078V17.1378L10.9588 17.0678L10.9838 16.9978V16.9028L11.0088 16.8328L11.0338 16.7628V16.6928L11.0588 16.6228L11.0838 16.5528L11.1088 16.4828L11.1338 16.4128L11.1588 16.3428L11.1838 16.2728L11.2088 16.2278L11.2338 16.1578L11.2588 16.0878L11.2838 16.0178L11.3288 15.9478L11.3538 15.9028L11.3788 15.8328L11.4238 15.7628L11.4488 15.6928L11.4738 15.6478L11.5188 15.5778L11.5438 15.5078L11.5888 15.4628L11.6138 15.3928L11.6588 15.3228L11.6838 15.2778L11.7288 15.2078L11.7738 15.1628L11.7988 15.0928L11.8438 15.0228L11.8888 14.9778L11.9338 14.9078L11.9588 14.8628L12.0038 14.7928L12.0488 14.7478L12.0938 14.6778L12.1388 14.6328L12.1638 14.5628L12.2138 14.5178L12.2588 14.4478L12.3038 14.4028L12.3488 14.3328L12.3938 14.2878L12.4438 14.2178L12.4888 14.1728L12.5338 14.1028L12.5788 14.0578L12.6238 13.9878L12.6738 13.9428L12.7188 13.8728L12.7638 13.8278L12.8088 13.7578L12.8338 13.7328L12.8588 13.6878L12.8838 13.6628L12.9088 13.6378L12.9338 13.6128L12.9588 13.5678L13.0038 13.5228L13.0488 13.4778L13.0738 13.4528V13.4278L13.0988 13.4028L13.1688 13.3078L13.1938 13.2828L13.2188 13.2578L13.2438 13.2328L13.2888 13.1628V13.1378L13.3138 13.1128L13.3588 13.0628L13.3838 13.0378V13.0128L13.4288 12.9678L13.4738 12.9228V12.8978L13.4988 12.8728L13.5238 12.8478L13.5488 12.8228V12.7978H13.5738V12.7528L13.5988 12.7278L13.6238 12.7028L13.6688 12.6328L13.6938 12.6078L13.7188 12.5828V12.5578L13.7638 12.5128L13.7888 12.4878V12.4428H13.8138V12.4178L13.8588 12.3728V12.3478L13.8838 12.3228L13.9338 12.2528V12.2278L13.9788 12.1828V12.1578L14.0038 12.1328V12.1078H14.0288V12.0828H14.0538V12.0578H14.0788V12.0328C14.1238 11.9878 14.1738 11.9628 14.1988 11.9378H14.2438V11.9128H14.3138V11.8878H14.4338C14.5038 11.8878 14.5738 11.9128 14.6488 11.9328H14.6738V11.9578H14.6988V11.9828H14.7438V12.0078H14.7688V12.0328H14.7938V12.0578L14.8188 12.0828L14.8438 12.1078V12.1328L14.8688 12.1578V12.1828H14.8938V12.2078L14.9188 12.2328V12.2578H14.9438V12.2828L14.9688 12.3078V12.3328L14.9938 12.3578V12.3828H15.0188V12.4078H15.0438V12.4328L15.0688 12.4578V12.4828H15.0938V12.5078V12.5328H15.1188V12.5578H15.1438V12.5828L15.1688 12.6078L15.1938 12.6328V12.6578L15.2188 12.6828V12.7078H15.2438V12.7328H15.2688V12.7578L15.2938 12.7828V12.8078H15.3188V12.8328L15.3438 12.8578L15.3688 12.8828L15.3938 12.9078V12.9328L15.4188 12.9578V12.1728C15.4188 11.2478 15.0388 10.3928 14.4238 9.7778C13.8088 9.1378 12.9538 8.75781 12.0038 8.75781H10.4138C9.46379 8.75781 8.6088 9.1378 7.9938 9.7778C7.3788 10.3928 6.99881 11.2478 6.99881 12.1728V18.6028L6.97382 18.4878ZM12.0538 18.7978C12.1938 19.0828 12.3638 19.2978 12.5738 19.4878C13.0488 19.9128 13.7388 20.1528 14.4488 20.1528C15.1588 20.1528 15.8238 19.9178 16.3238 19.4878C16.7288 19.1328 16.9888 18.6078 17.0138 17.9228C17.0388 16.5928 16.3238 15.5978 15.5188 14.5778L15.4938 14.5528L15.3738 14.4128L15.3288 14.3428L15.3038 14.2978L15.2088 14.2028L15.0438 13.9878L15.0188 13.9628L14.9238 13.8428L14.8538 13.7478L14.8088 13.6778L14.7838 13.6528V13.6278L14.7388 13.6028V13.5778L14.7138 13.5528L14.6888 13.5078L14.6638 13.4828L14.6188 13.4128H14.5938V13.3878L14.5688 13.3628V13.3378H14.5438V13.3128L14.5188 13.2878L14.4938 13.2628L14.4688 13.2378V13.2128L14.4438 13.1878H14.4188V13.2128L14.3938 13.2378V13.2628H14.3688L14.3438 13.2878V13.3128L14.3188 13.3378L14.2938 13.3628V13.3878L14.2688 13.4128L14.2438 13.4378L14.2188 13.4628V13.4878H14.1938V13.5128L14.1688 13.5378V13.5628H14.1438V13.5878L14.1188 13.6128L14.0938 13.6378L14.0688 13.6628V13.6878H14.0438V13.7128L14.0188 13.7378V13.7628H13.9938L13.9688 13.7878V13.8128H13.9438V13.8378L13.9188 13.8628V13.8878H13.8938L13.8688 13.9128V13.9378L13.8438 13.9628L13.8188 13.9878V14.0128H13.7938L13.7688 14.0378V14.0628L13.7438 14.0878L13.7188 14.1128V14.1378H13.6938V14.1628L13.6688 14.1878H13.6438V14.2128L13.6188 14.2378V14.2628H13.5938V14.2878L13.5688 14.3128H13.5438V14.3378L13.4988 14.3828L13.4538 14.4528L13.4288 14.4978L13.3838 14.5428L13.3388 14.5878L13.2938 14.6328L13.2688 14.7028L13.2238 14.7478L13.1788 14.7928L13.1288 14.8378L13.1038 14.8828L13.0588 14.9528L13.0138 14.9978L12.9888 15.0428L12.9438 15.0878L12.8988 15.1378L12.8738 15.2078L12.8288 15.2528L12.7838 15.2978L12.7588 15.3428L12.7138 15.4128L12.6888 15.4578L12.6438 15.5028L12.6188 15.5478L12.5738 15.6178L12.5488 15.6628L12.5238 15.7078L12.4788 15.7528L12.4538 15.8228L12.4088 15.8678L12.3838 15.9128L12.3588 15.9828L12.3338 16.0278L12.2888 16.0728L12.2638 16.1178L12.2388 16.1878L12.2138 16.2328L12.1888 16.3028L12.1638 16.3478L12.1388 16.3928L12.1138 16.4628L12.0888 16.5078L12.0638 16.5778L12.0388 16.6228L12.0138 16.6928L11.9888 16.7428L11.9638 16.7878V16.8578L11.9388 16.9278L11.9138 16.9778V17.0478L11.8888 17.0928V17.1628L11.8638 17.2078V17.2778L11.8388 17.3478V17.3978V17.4678V17.5378L11.8138 17.6078V17.6528V17.7228V17.7928V17.8628V17.8878V17.9128V17.9378L11.8388 17.9628V17.9878C11.8388 18.1078 11.8638 18.2028 11.8838 18.3178C11.9088 18.4578 11.9288 18.5778 12.0038 18.6978V18.7428L12.0538 18.7978ZM16.3738 14.0978C17.2738 15.2128 18.0338 16.3278 17.9888 17.9178C17.9638 18.9128 17.5638 19.6728 16.9688 20.2178C16.2788 20.8128 15.3788 21.1178 14.4538 21.1178C13.5288 21.1178 12.6038 20.8078 11.9388 20.2178C11.6788 20.0028 11.4638 19.7428 11.2988 19.4578H6.4838C6.2238 19.4578 6.00879 19.2428 6.00879 18.9578V12.0528C6.00879 10.8428 6.50879 9.75281 7.28879 8.94281C7.66879 8.58781 8.09382 8.27781 8.56882 8.06281V5.61783C8.56882 5.35783 8.78382 5.14282 9.06882 5.14282H9.8988V3.88281H8.71381C8.45381 3.88281 8.2388 3.64781 8.2388 3.38281C8.2388 3.11781 8.45381 2.88281 8.71381 2.88281H14.5288C14.6238 2.88281 14.7188 2.93281 14.8138 3.00281L16.4488 4.23782C16.6638 4.40282 16.6838 4.71283 16.5188 4.92783C16.3538 5.14283 16.0438 5.18783 15.8288 5.02283L14.3588 3.88281H12.4838V5.14282H13.3138C13.5988 5.14282 13.8138 5.35783 13.8138 5.61783V8.06281C14.2888 8.27781 14.7138 8.58281 15.0938 8.94281C15.8988 9.74781 16.3738 10.8428 16.3738 12.0528V14.0928V14.0978ZM11.5088 5.1528V3.89282H10.8688V5.1528H11.5088ZM12.8338 6.12781H9.53381V7.66782H12.8338V6.12781Z" fill="#E46959"/>
<path d="M8.56104 5.64062C8.56104 5.36448 8.78489 5.14062 9.06104 5.14062H13.3218C13.5979 5.14062 13.8218 5.36448 13.8218 5.64062V8.05664H8.56104V5.64062Z" fill="#EE9389"/>
<rect x="8.62817" y="12" width="5.12646" height="4.14062" rx="0.25" fill="#F5C6C2"/>
<path d="M18.0776 17.6186C18.0776 19.652 16.4293 21.3003 14.3959 21.3003C12.3625 21.3003 10.7141 19.652 10.7141 17.6186C10.7141 15.5852 14.3959 10.9844 14.3959 10.9844C14.3959 10.9844 18.0776 15.5852 18.0776 17.6186Z" fill="#FEFFFE"/>
<rect x="14.7258" y="14.0938" width="0.77417" height="3.56745" rx="0.387085" transform="rotate(-27.0267 14.7258 14.0938)" fill="#9BE1FF"/>
</svg>
