<svg width="24" height="24" viewBox="0 0 24 24" fill="none" xmlns="http://www.w3.org/2000/svg">
<path d="M12.0005 10.375C13.9667 10.3751 15.5732 11.5026 15.6875 12.9248C16.4481 13.4024 16.9097 14.028 16.9097 14.7139C16.9097 14.8176 16.898 14.9198 16.8774 15.0205C18.0207 15.5067 18.7222 16.1627 18.7222 16.8857C18.7222 17.2005 18.5882 17.5016 18.3438 17.7827C18.5886 18.064 18.7227 18.3656 18.7227 18.6807C18.7227 20.1784 15.7127 21.3926 12 21.3926C8.2874 21.3925 5.27783 20.1784 5.27783 18.6807C5.27783 18.3659 5.41134 18.0643 5.65576 17.7832C5.41128 17.5021 5.27734 17.2005 5.27734 16.8857C5.27734 16.1637 5.97727 15.5084 7.11768 15.0225C7.09687 14.9211 7.08545 14.8183 7.08545 14.7139C7.08545 14.0263 7.54911 13.3989 8.31299 12.9209C8.42986 11.5005 10.036 10.375 12.0005 10.375Z" fill="#414141"/>
<path d="M4.24902 7.61719C5.51061 7.61719 6.53369 8.93585 6.53369 10.5625C6.53369 12.1892 5.51061 13.5078 4.24902 13.5078C2.98749 13.5077 1.96484 12.1891 1.96484 10.5625C1.96484 8.9359 2.98749 7.61727 4.24902 7.61719Z" fill="#414141"/>
<path d="M19.7461 7.43359C21.0077 7.43359 22.0308 8.75225 22.0308 10.3789C22.0308 12.0056 21.0077 13.3242 19.7461 13.3242C18.4846 13.3241 17.4619 12.0055 17.4619 10.3789C17.4619 8.75231 18.4846 7.43368 19.7461 7.43359Z" fill="#414141"/>
<path d="M8.91846 2.89844C10.18 2.89852 11.2026 4.21715 11.2026 5.84375C11.2026 7.47035 10.18 8.78898 8.91846 8.78906C7.65687 8.78906 6.63428 7.4704 6.63428 5.84375C6.63428 4.2171 7.65687 2.89844 8.91846 2.89844Z" fill="#414141"/>
<path d="M14.9434 2.89844C16.2049 2.89852 17.2275 4.21715 17.2275 5.84375C17.2275 7.47035 16.2049 8.78898 14.9434 8.78906C13.6818 8.78906 12.6592 7.4704 12.6592 5.84375C12.6592 4.2171 13.6818 2.89844 14.9434 2.89844Z" fill="#414141"/>
<path d="M17.3703 13.057C16.856 12.297 16.776 11.2684 16.9646 10.2627C17.0446 9.74838 17.2103 9.25696 17.4275 8.79981C17.616 8.33696 17.8618 7.90267 18.1303 7.57696C18.6732 6.84553 19.3246 6.43981 19.9189 6.65696C21.4618 6.8741 22.2789 7.90267 22.5475 9.09696C22.656 9.63981 22.656 10.2341 22.5475 10.777C22.4389 11.3484 22.2503 11.8912 21.9532 12.377C21.2503 13.5141 20.0846 14.2741 18.5932 13.977C18.5932 13.977 18.1703 13.8227 17.896 13.6112C17.6218 13.3998 17.3703 13.057 17.3703 13.057ZM19.5646 7.71981C19.4846 7.66838 19.2675 7.90838 18.9932 8.2341C18.8046 8.50267 18.5875 8.85696 18.4218 9.23981C18.2618 9.61696 18.1246 10.0512 18.0446 10.4627C17.856 11.4684 17.9932 12.4398 18.776 12.9027C19.7532 13.0627 20.536 12.5484 20.9989 11.7884C21.216 11.4341 21.376 11.0284 21.4618 10.5941C21.5418 10.1598 21.5418 9.7541 21.4618 9.34838C21.2732 8.55981 20.7303 7.88553 19.7018 7.74838C19.6503 7.74838 19.5932 7.71981 19.5646 7.71981ZM14.4389 3.24553C14.3875 3.21696 14.1932 3.46267 13.976 3.83981C13.816 4.13696 13.6503 4.51981 13.5418 4.89696C13.4332 5.33124 13.3532 5.76553 13.3246 6.17124C13.2732 7.17696 13.5418 8.12553 14.3532 8.4741C15.3589 8.52553 16.0618 7.93124 16.416 7.11981C16.576 6.7141 16.6846 6.27981 16.7132 5.84553C16.7418 5.43981 16.6846 5.00553 16.5532 4.62267C16.2846 3.8341 15.6332 3.26838 14.5989 3.26838C14.5475 3.26838 14.4903 3.26838 14.4389 3.23981V3.24553ZM13.0046 3.29696C13.4675 2.50838 14.0618 2.02267 14.6846 2.15981C16.2275 2.18838 17.1818 3.07981 17.5875 4.24553C17.776 4.75981 17.856 5.33124 17.8332 5.89696C17.8046 6.46838 17.6732 7.0341 17.456 7.54838C16.8846 8.7941 15.776 9.71981 14.2046 9.58267C14.2046 9.58267 14.1246 9.58267 14.0675 9.5541C12.6046 9.03981 12.1418 7.57696 12.2218 6.10838C12.2503 5.5941 12.3303 5.07981 12.4675 4.58838C12.6275 4.10267 12.7932 3.66838 13.0103 3.28553V3.29696H13.0046ZM3.70176 6.82267C4.27319 6.5541 4.97605 6.8741 5.59891 7.52553C5.89605 7.82267 6.19319 8.22838 6.43891 8.66267C6.68462 9.09696 6.90176 9.58267 7.06176 10.0741C7.49605 11.4855 7.38748 12.9998 6.11319 13.8455C6.06176 13.8741 6.00462 13.897 5.97605 13.9255C4.48462 14.4398 3.18176 13.817 2.34176 12.7312C1.98748 12.297 1.71891 11.7827 1.55319 11.2398C1.39319 10.697 1.33605 10.1027 1.39319 9.55981C1.50176 8.3141 2.20462 7.22838 3.69605 6.82267H3.70176ZM4.78748 8.28553C4.49034 7.98838 4.27319 7.79981 4.19319 7.82267C4.13605 7.85124 4.11319 7.8741 4.05605 7.8741C3.05034 8.11981 2.56462 8.85124 2.48462 9.66267C2.45605 10.0684 2.51319 10.5027 2.62176 10.9084C2.75891 11.3141 2.97605 11.7198 3.21605 12.0455C3.78748 12.7484 4.59891 13.1827 5.54748 12.8855C6.27891 12.3427 6.27891 11.3427 6.01034 10.3884C5.87319 9.98267 5.68462 9.57696 5.46748 9.22267C5.27891 8.84553 5.03319 8.51981 4.78748 8.2741V8.28553ZM9.07319 2.15981C9.69605 2.02267 10.296 2.5141 10.7532 3.29696C10.9418 3.6741 11.1303 4.10838 11.2675 4.59981C11.4275 5.08553 11.5132 5.60553 11.536 6.11981C11.616 7.58267 11.1589 9.04553 9.69034 9.56553C9.63891 9.5941 9.58176 9.5941 9.55319 9.5941C7.95319 9.73124 6.86748 8.80553 6.30176 7.55981C6.08462 7.04553 5.94748 6.4741 5.92462 5.90838C5.89605 5.33696 5.97605 4.77124 6.14176 4.25696C6.57605 3.09124 7.52462 2.1941 9.06748 2.17124V2.15981H9.07319ZM9.77605 3.83981C9.55891 3.46267 9.37034 3.21696 9.29034 3.24553C9.26176 3.2741 9.21034 3.2741 9.15319 3.2741C8.12462 3.2741 7.47319 3.84553 7.19891 4.62838C7.06176 5.00553 7.01034 5.43981 7.03891 5.85124C7.06748 6.28553 7.14748 6.71981 7.33605 7.12553C7.69034 7.93696 8.39319 8.53696 9.39891 8.47981C10.2103 8.12553 10.4846 7.17696 10.4275 6.17696C10.3989 5.77124 10.3189 5.33696 10.2103 4.90267C10.1018 4.52553 9.94176 4.14267 9.77605 3.84553V3.83981Z" fill="black"/>
<path d="M18.8606 16.5248C18.3463 15.439 17.5577 14.4905 17.232 14.1362C16.5806 12.7819 16.0092 11.7248 15.1977 10.9933C14.4034 10.2448 13.4206 9.8219 12.0034 9.73047C10.3806 9.75904 9.67201 10.1819 8.80344 10.9933C7.99201 11.7248 7.42058 12.7819 6.76915 14.1362C6.44344 14.4905 5.65487 15.439 5.14058 16.5248C4.78629 17.2333 4.54058 18.0162 4.56915 18.7762C4.62629 19.5876 4.95201 20.3476 5.79201 20.919C6.33487 21.2962 7.08915 21.599 8.09487 21.759C9.15201 21.919 10.152 21.8619 11.2377 21.8105H12.7634C13.8492 21.8619 14.8492 21.919 15.9063 21.759C16.912 21.599 17.6663 21.2962 18.2092 20.919C19.0492 20.3476 19.3749 19.5876 19.432 18.7762C19.4606 18.0162 19.2149 17.2333 18.8606 16.5248ZM17.5577 20.0276C17.152 20.2962 16.552 20.5133 15.7406 20.6505C14.792 20.8105 13.8434 20.759 12.8149 20.7019H11.1863C10.1577 20.759 9.20915 20.8105 8.26058 20.6505C7.44915 20.5133 6.84915 20.2962 6.44344 20.0276C5.92915 19.6733 5.71201 19.2105 5.68344 18.7248C5.68344 18.1819 5.87772 17.5876 6.14629 17.0162C6.63201 15.959 7.39201 15.0905 7.60915 14.9019L7.68915 14.8219L7.74629 14.7133C8.34058 13.439 8.86058 12.4333 9.56344 11.8105C10.1463 11.2505 10.8949 10.9362 11.9977 10.8505C13.3292 10.879 13.7863 11.1876 14.4377 11.8105C15.1406 12.4333 15.6606 13.439 16.2549 14.7133L16.312 14.8219L16.392 14.9019C16.6092 15.0905 17.3692 15.959 17.8549 17.0162C18.1234 17.5876 18.3177 18.1819 18.3177 18.7248C18.2892 19.2105 18.072 19.6733 17.5577 20.0276Z" fill="black"/>
</svg>
