<svg width="24" height="24" viewBox="0 0 24 24" fill="none" xmlns="http://www.w3.org/2000/svg">
<path d="M5.27455 3.41115C7.81455 3.74115 9.09461 6.61617 10.3296 9.39117C11.6096 12.2362 12.8195 14.9911 15.2395 14.2811C15.2895 14.2562 15.3596 14.2562 15.4296 14.2562C16.1396 14.3512 16.8545 14.5861 17.5195 14.8961C18.6595 15.4661 19.6545 16.2961 20.3645 17.1761C21.0995 18.0761 21.5296 19.0511 21.4346 19.8111C21.4096 19.9761 21.3646 20.1661 21.2946 20.3111C21.1996 20.5011 21.0345 20.5962 20.8445 20.5962H12.9446C12.8746 20.5962 12.7795 20.5711 12.7095 20.5261C11.5245 19.9561 10.5246 17.8462 9.52956 15.7312C8.50956 13.6212 7.51459 11.4862 6.56459 11.2212L6.01955 20.1161C5.99455 20.3761 5.78455 20.5911 5.51955 20.5911H4.42958C4.16958 20.5911 3.92958 20.3761 3.92958 20.0911L3.40956 10.8862C3.33956 10.7912 3.2696 10.6711 3.1946 10.5561C2.4596 9.22614 2.40955 7.80616 2.76955 6.54616C3.09955 5.29116 3.85959 4.22115 4.68959 3.62615C4.78459 3.58115 4.87951 3.50614 4.97451 3.46114C5.06951 3.41614 5.18956 3.39116 5.28456 3.41616L5.27455 3.41115Z" fill="#D34632"/>
</svg>
