<svg width="24" height="24" viewBox="0 0 24 24" fill="none" xmlns="http://www.w3.org/2000/svg">
<rect x="2.27002" y="4.11719" width="19.3184" height="12.2363" fill="#93969F"/>
<path d="M2.46405 3.32031H22.064C22.324 3.32031 22.5391 3.53531 22.5391 3.82031V16.2753C22.5391 16.5353 22.324 16.7753 22.064 16.7753H14.7791L15.064 18.1253H15.9641C16.4391 18.1253 16.864 18.3153 17.174 18.6253C17.504 18.9553 17.694 19.3853 17.694 19.8603C17.694 20.1453 17.479 20.3603 17.194 20.3603H7.32404C7.03904 20.3603 6.82404 20.1453 6.82404 19.8603C6.82404 19.3853 7.01406 18.9603 7.34406 18.6253L7.36902 18.6003C7.67902 18.3153 8.10402 18.1253 8.55402 18.1253H9.45404L9.73901 16.7753H2.45404C2.19404 16.7753 1.979 16.5403 1.979 16.2753V3.82031C1.979 3.53531 2.19404 3.32031 2.45404 3.32031H2.46405ZM14.6591 19.1003H8.55902C8.36902 19.1003 8.17902 19.1703 8.05902 19.3153L7.98901 19.3853H16.5291L16.484 19.3353V19.3103C16.344 19.1903 16.154 19.0953 15.9641 19.0953H14.6591V19.1003ZM13.7841 16.7753H10.749L10.4641 18.1253H14.069L13.7841 16.7753ZM4.26904 5.05531H20.259C20.519 5.05531 20.734 5.29031 20.734 5.55531V14.2853C20.734 14.5703 20.519 14.7853 20.259 14.7853H4.26904C4.00904 14.7853 3.79401 14.5703 3.79401 14.2853V5.55531C3.79401 5.29531 4.00904 5.05531 4.26904 5.05531ZM21.564 4.29531H2.96405V15.7803H21.564V4.29531Z" fill="#B2B5BE"/>
<rect x="3.79883" y="5.0625" width="16.9436" height="9.78711" rx="0.5" fill="#6E717A"/>
<path d="M12.9157 5.0625H17.592L12.034 14.8496H7.35767L12.9157 5.0625Z" fill="#868A93"/>
<path d="M7.85864 18.6562H16.9106V19.8848H7.85864V18.6562Z" fill="#B2B5BE"/>
</svg>
