<svg width="25" height="24" viewBox="0 0 25 24" fill="none" xmlns="http://www.w3.org/2000/svg">
<path fill-rule="evenodd" clip-rule="evenodd" d="M18.9988 3.9707L18.5335 4.84277L19.4324 5.32227L19.1771 5.80078L20.6102 6.84766L19.4461 8.44141L18.2396 7.56006L17.2879 9.3457V13.9492H17.7073V18.0957H17.8651V17.4395H18.6863L18.6859 16.7812H19.0579V16.3438H20.699V17.6582H20.3275V18.0957H19.5062V18.7539H18.4466V19.4102H17.1204V19.8477H16.0384V20.2793H14.825V20.6094H10.4749V20.2793H9.09064V19.9531H7.76642V19.5332H6.68292V18.9648H5.70441V18.3066H4.88361V17.5625H4.06329L4.06281 16.248H5.70441V16.9043H6.32697V16.3438H6.68292L6.68243 15.0781L6.24445 14.9609L7.50519 10.2554L8.32404 10.4746V9.64844H13.7278V8.41943L13.6307 8.36768L13.7278 8.18506V6.06836H14.1815L15.1365 4.27734L15.5989 4.52393L15.8943 4.12012L16.1785 3.58789L16.8226 3.93115L17.2879 3.05859L18.9988 3.9707ZM10.2547 14.7197L9.35089 14.4775L8.99396 15.8096L8.32404 15.6299V16.9043H7.96808V18.2188H8.32404V18.6387H9.40753V18.9648H10.7318V19.2949H14.3973V18.9648H15.4788V18.5332H16.0662V15.6055H15.0316V14.5117H13.7278V13.9492H10.4612L10.2547 14.7197Z" fill="#D86B19"/>
<path d="M19.1235 4.44862L20.7135 6.27363C20.8335 6.41363 20.9285 6.55861 20.9985 6.72361L21.0235 6.74861C21.0935 6.91361 21.1185 7.10362 21.1185 7.29362C21.1185 7.50862 21.0935 7.69863 21.0235 7.86363C20.9535 8.02863 20.8335 8.19363 20.6935 8.33863L20.5735 8.43361C20.4335 8.57361 20.2885 8.69362 20.0984 8.76362C19.9334 8.83362 19.7435 8.85862 19.5535 8.85862C19.2235 8.85862 19.0534 8.73861 18.8434 8.62361C18.7934 8.59861 18.7235 8.55361 18.6785 8.52861L18.2735 8.38862L17.9185 8.83863L18.0385 16.9536C18.1335 16.8836 18.2285 16.8136 18.2985 16.7386C18.5835 16.5236 18.8685 16.2636 19.0835 16.0036C19.3185 15.7686 19.6035 15.6486 19.8885 15.5986C20.1985 15.5736 20.5035 15.6436 20.7685 15.8336L20.8135 15.8786C20.9535 15.9736 21.0735 16.0936 21.1435 16.2336C21.2385 16.3986 21.2835 16.5636 21.3085 16.7536C21.3335 16.9186 21.3085 17.1086 21.2635 17.2736C21.1935 17.4386 21.1235 17.5836 20.9785 17.7236L20.9535 17.7486C20.6435 18.1036 20.3135 18.4136 19.9585 18.7236C17.8485 20.4536 15.0234 21.3336 12.2234 21.3086C9.42345 21.2836 6.6235 20.3836 4.5835 18.5586C4.2535 18.2486 3.94345 17.9186 3.65845 17.5636C3.44345 17.3036 3.34845 16.9686 3.34845 16.6636C3.37345 16.3536 3.51348 16.0686 3.75348 15.8336L3.79846 15.7886C3.91846 15.6936 4.05849 15.5986 4.20349 15.5536C4.34349 15.5086 4.51349 15.4836 4.70349 15.4836C4.86849 15.5086 5.03349 15.5286 5.20349 15.6036C5.34349 15.6986 5.48846 15.7936 5.60846 15.9336C5.72846 16.0736 5.84346 16.1936 5.98846 16.3386L5.9635 13.4436C5.9635 12.8286 6.0585 12.2586 6.2735 11.7336C6.4885 11.1886 6.81847 10.7136 7.24847 10.2886C7.69847 9.86362 8.17348 9.52861 8.69348 9.31361C9.23848 9.09861 9.80846 9.00361 10.4235 9.00361L13.0334 9.02861C13.0584 7.84361 13.1985 6.51361 13.8385 5.37361C14.5735 4.02361 15.9735 2.97862 18.5835 2.69362C18.8435 2.66862 19.1035 2.85863 19.1285 3.11863V3.16362V4.44362L19.1235 4.44862ZM19.9785 6.91862L18.2935 4.99861C18.1985 4.90361 18.1534 4.78363 18.1534 4.64363V3.74363C16.2534 4.05363 15.2335 4.85862 14.6885 5.85362C14.0485 6.94362 13.9985 8.31861 13.9985 9.53361C13.9985 9.81861 13.7835 10.0336 13.5235 10.0336L10.3935 9.98863C9.91849 9.98863 9.46848 10.0586 9.06348 10.2236C8.65848 10.3886 8.27846 10.6486 7.92346 10.9836C7.59346 11.3136 7.32845 11.6936 7.16345 12.0986C6.99845 12.5036 6.92847 12.9536 6.92847 13.4286L6.95349 17.3686C6.95349 17.4886 6.92846 17.6036 6.85846 17.6986C6.69346 17.9136 6.38346 17.9586 6.16846 17.7936C5.93346 17.6036 5.69345 17.4136 5.47845 17.1986C5.24345 17.0086 5.0535 16.7936 4.8385 16.5586C4.8135 16.5336 4.79349 16.5136 4.76849 16.4886C4.72349 16.4886 4.6985 16.4636 4.6485 16.4636C4.5985 16.4636 4.55344 16.4636 4.52844 16.4886C4.50344 16.4886 4.45847 16.5136 4.43347 16.5336L4.40845 16.5586C4.36345 16.6036 4.33848 16.6786 4.31348 16.7486C4.31348 16.8186 4.33848 16.8886 4.38348 16.9636C4.64348 17.2736 4.92846 17.5786 5.23846 17.8436C7.08846 19.5036 9.6285 20.3336 12.2135 20.3586C14.7985 20.3836 17.3835 19.5736 19.3335 17.9836C19.6435 17.7236 19.9485 17.4386 20.2335 17.1286L20.2585 17.0786C20.2585 17.0786 20.3035 17.0336 20.3285 16.9836V16.8636C20.3285 16.8186 20.3035 16.7686 20.3035 16.7436C20.2785 16.7186 20.2585 16.6986 20.2335 16.6736L20.1885 16.6236C20.1435 16.5986 20.0685 16.5786 19.9985 16.5786C19.9285 16.5786 19.8585 16.6236 19.8085 16.6736C19.5235 16.9836 19.2134 17.2686 18.9084 17.5036C18.5284 17.8136 18.1485 18.0736 17.8185 18.2636C17.7485 18.3086 17.6535 18.3336 17.5585 18.3336C17.2985 18.3586 17.0835 18.1186 17.0835 17.8586L16.9435 8.69862C16.9435 8.60362 16.9685 8.48362 17.0385 8.38862L17.7035 7.50862C17.8235 7.31862 18.0835 7.24861 18.2985 7.34361L19.0334 7.62861C19.1734 7.67361 19.2685 7.74862 19.3635 7.79362C19.4335 7.83862 19.5035 7.88862 19.5535 7.88862C19.6235 7.88862 19.6935 7.88863 19.7435 7.86363C19.7885 7.83863 19.8634 7.79363 19.9084 7.74363L20.0035 7.64863C20.0485 7.60363 20.0985 7.52862 20.1235 7.48362C20.1485 7.43362 20.1485 7.36362 20.1485 7.29362C20.1485 7.24862 20.1485 7.17361 20.1235 7.12861C20.0985 7.05861 20.0535 6.98862 19.9835 6.91362L19.9785 6.91862ZM15.8735 18.1186C15.8485 17.1236 15.4484 16.2186 14.7834 15.5786C14.1184 14.8886 13.1935 14.4886 12.1735 14.4886C11.1535 14.4886 10.2535 14.8936 9.56348 15.5786C8.94848 16.1936 8.54347 17.0486 8.49347 17.9736C9.03847 18.2086 9.60849 18.3786 10.2035 18.5186C10.8935 18.6586 11.6285 18.7536 12.3885 18.7536C13.0535 18.7536 13.7185 18.6836 14.3335 18.5636C14.8785 18.4436 15.3785 18.3036 15.8735 18.1136V18.1186ZM15.4684 14.8886C16.3234 15.7186 16.8434 16.8836 16.8434 18.1886V18.4486C16.8434 18.6386 16.7234 18.8286 16.5334 18.8986C15.9184 19.1586 15.2285 19.3736 14.5185 19.5136C13.8285 19.6536 13.1185 19.7286 12.3835 19.7286C11.5535 19.7286 10.7685 19.6336 10.0085 19.4686C9.22348 19.3036 8.51349 19.0636 7.82349 18.7336C7.63349 18.6886 7.49347 18.4986 7.49347 18.2836V18.1886C7.49347 16.8836 8.03847 15.7236 8.86847 14.8886C9.72347 14.0336 10.8835 13.5136 12.1685 13.5136C13.4535 13.5136 14.6334 14.0336 15.4684 14.8886Z" fill="#D86B19"/>
</svg>
