<svg width="24" height="24" viewBox="0 0 24 24" fill="none" xmlns="http://www.w3.org/2000/svg">
<rect x="7.02637" y="2.91406" width="10.1277" height="18.3828" fill="#4C4E51"/>
<rect x="8.32275" y="4.29297" width="7.4585" height="13.7559" fill="#222222"/>
<path d="M7.61761 2.1875H16.3726C16.7776 2.1875 17.1576 2.3525 17.4176 2.6375L17.4426 2.6625C17.7026 2.9225 17.8476 3.2775 17.8476 3.6575V20.3625C17.8476 20.7675 17.6826 21.1225 17.4226 21.3825L17.3976 21.4275C17.1376 21.6625 16.7826 21.8075 16.3776 21.8075H7.62262C7.21762 21.8075 6.8626 21.6675 6.6026 21.3825H6.57758C6.31758 21.1225 6.15259 20.7675 6.15259 20.3625V3.6575C6.15259 3.2525 6.3176 2.8975 6.6026 2.6375C6.8626 2.3525 7.21762 2.1875 7.62262 2.1875H7.61761ZM12.0076 18.8625C12.4576 18.8625 12.8126 19.2175 12.8126 19.6475C12.8126 20.0975 12.4576 20.4525 12.0076 20.4525C11.5576 20.4525 11.1776 20.0975 11.1776 19.6475C11.1776 19.2225 11.5576 18.8625 12.0076 18.8625ZM16.3726 3.1825H7.61761C7.49761 3.1825 7.3576 3.2275 7.2876 3.3225C7.1926 3.3925 7.14758 3.5375 7.14758 3.6525V20.3575C7.14758 20.4775 7.1926 20.6175 7.2876 20.6875C7.3576 20.7825 7.50261 20.8275 7.61761 20.8275H16.3726C16.5126 20.8275 16.6326 20.7825 16.7026 20.7075L16.7276 20.6825C16.8226 20.5875 16.8676 20.4675 16.8676 20.3525V3.6475C16.8676 3.5275 16.8226 3.4125 16.7476 3.3175H16.7226C16.6276 3.2225 16.5076 3.1775 16.3676 3.1775L16.3726 3.1825Z" fill="#868A93"/>
<rect x="7.65137" y="3.66797" width="8.72583" height="14.8887" rx="1" fill="#222222"/>
<path d="M12.627 3.66797H15.0532L12.0532 18.5566H9.62695L12.627 3.66797Z" fill="#B2B5BE"/>
</svg>
