<svg width="25" height="24" viewBox="0 0 25 24" fill="none" xmlns="http://www.w3.org/2000/svg">
<path d="M13.7926 3.66046C14.0688 3.18217 14.6805 3.01811 15.1588 3.29425L16.0856 3.82941C16.5639 4.10554 16.7279 4.71733 16.4518 5.19562L15.5963 6.67706C15.8344 6.85986 15.9879 7.14667 15.9879 7.47003V9.36456C15.9879 9.91685 15.5402 10.3646 14.9879 10.3646H9.67933C9.12704 10.3646 8.67933 9.91685 8.67933 9.36456V7.47003C8.67933 7.1754 8.80666 6.91086 9.00941 6.72784L8.12464 5.19562C7.84854 4.7174 8.01176 4.10561 8.48988 3.82941L9.41761 3.29425C9.8959 3.01811 10.5077 3.18217 10.7838 3.66046L12.2877 6.26495L13.7926 3.66046Z" fill="#EC955D"/>
<path d="M9.41248 10.5H15.4847L18.9847 20.5977H5.41248L9.41248 10.5Z" fill="#EC955D"/>
<path d="M11.9198 6.27539L9.82984 3.85539L8.61985 4.2354C8.75985 4.4254 8.87986 4.6404 8.97486 4.8754C9.18986 5.3254 9.28485 5.8254 9.28485 6.3454C9.28485 6.6754 9.23983 6.98539 9.16483 7.29539C9.09483 7.53039 9.02484 7.7704 8.92984 7.9854L9.59485 9.9554H15.0748L15.7648 7.9854C15.6448 7.7704 15.5749 7.53539 15.5049 7.29539C15.4349 6.98539 15.3848 6.6804 15.3848 6.3454C15.3848 5.8254 15.4798 5.3254 15.6948 4.8754C15.7898 4.6604 15.9098 4.4504 16.0248 4.2354L14.7448 3.85539L12.6548 6.3004C12.4898 6.4904 12.1798 6.5154 11.9648 6.3504C11.9398 6.3254 11.9198 6.30039 11.9198 6.28039V6.27539ZM8.57483 11.7054C8.57483 11.7054 8.57486 11.6604 8.59986 11.6354L8.88483 10.9254L7.93485 8.1004C7.88985 7.9804 7.88984 7.8404 7.95984 7.7204C8.07984 7.5054 8.17485 7.29539 8.21985 7.05539C8.28985 6.84039 8.31485 6.6054 8.31485 6.3454C8.31485 5.9654 8.24486 5.5854 8.09986 5.2554C7.93486 4.9254 7.71984 4.61539 7.45984 4.35539C7.41484 4.28539 7.36483 4.21539 7.31983 4.12039C7.24983 3.86039 7.38984 3.60039 7.64984 3.52539L9.85483 2.8154C10.0198 2.7654 10.2348 2.81539 10.3548 2.98039L12.2748 5.2354L14.1948 3.0054C14.3148 2.8404 14.5048 2.7704 14.7148 2.8154L17.0148 3.52539C17.0848 3.55039 17.1548 3.5754 17.2298 3.6454C17.4198 3.8354 17.3948 4.1454 17.2048 4.3354C16.9448 4.5954 16.7299 4.90539 16.5649 5.26039C16.4249 5.59039 16.3499 5.9704 16.3499 6.3504C16.3499 6.6104 16.3748 6.85039 16.4448 7.06039C16.4898 7.29539 16.5848 7.5104 16.7048 7.7254C16.7498 7.8204 16.7748 7.96039 16.7298 8.10539L15.7798 10.9304L19.5999 20.4904C19.6449 20.5604 19.6698 20.6304 19.6698 20.7054C19.6698 20.9904 19.4348 21.2054 19.1698 21.2054H5.47983C5.43483 21.2054 5.35983 21.1804 5.28983 21.1554C5.05483 21.0604 4.93485 20.7754 5.02985 20.5404L8.56485 11.7154L8.57483 11.7054ZM9.76483 11.3754H14.9148L14.8198 11.1154C14.7948 11.0454 14.7948 10.9954 14.7948 10.9254H9.88483C9.88483 10.9954 9.88484 11.0654 9.85984 11.1404L9.76483 11.3754ZM15.3149 12.3454H9.35984L6.20484 20.2204H18.4699L15.3149 12.3454Z" fill="#EC955D"/>
<rect x="9.71228" y="10.125" width="5.25903" height="0.808594" rx="0.404297" fill="#E1824A"/>
<rect x="9.49817" y="11.4297" width="5.68726" height="0.808594" rx="0.404297" fill="#E1824A"/>
<circle cx="12.2877" cy="6.54492" r="0.435547" fill="#FEFFFE"/>
<circle cx="12.2877" cy="7.91211" r="0.435547" fill="#FEFFFE"/>
</svg>
