<svg width="24" height="24" viewBox="0 0 24 24" fill="none" xmlns="http://www.w3.org/2000/svg">
<path d="M16.4224 3.70068L16.4551 3.66846L21.0342 8.24756L18.8394 10.4424L16.9886 8.75275L16.916 20.4883H7.06055L7.0045 8.57214L4.96191 10.4414L2.76758 8.24707L7.34668 3.66797L7.38379 3.70508L7.4209 3.66846L11.5884 3.33594H12.2222L16.3901 3.66797L16.4224 3.70068Z" fill="#67C088"/>
<rect x="9.7207" y="2.94531" width="4.53296" height="2.80078" fill="#448354"/>
<path d="M11.6148 6.42159L9.50478 3.9516L8.88976 4.0716L11.9998 7.63159L15.1098 4.0716L14.4948 3.9516L12.3848 6.42159L12.3598 6.4466V6.47159H12.3348L12.3098 6.4966H12.2848V6.52159C12.2848 6.52159 12.2598 6.52159 12.2598 6.54659H12.2148V6.5716H12.1698C12.1698 6.5716 12.1448 6.59659 12.1198 6.59659H12.0498V6.6216H11.9548L11.9298 6.59659H11.8798C11.8798 6.59659 11.8348 6.5966 11.8348 6.5716H11.7898V6.54659H11.7448L11.7198 6.52159L11.6948 6.4966H11.6698V6.47159H11.6448V6.4466H11.6198V6.42159H11.6148ZM7.74978 4.28659L7.03978 4.40659L3.33977 7.9166L4.83477 10.0516L6.46978 8.48659C6.65978 8.29659 6.96978 8.2966 7.15978 8.5116C7.25478 8.6066 7.29976 8.7266 7.29976 8.8416V20.0866H16.6948V8.8416C16.6948 8.5566 16.9098 8.3416 17.1948 8.3416C17.3348 8.3416 17.4548 8.41159 17.5498 8.50659L19.1648 10.0466L20.6598 7.91159L16.9598 4.4016L16.2248 4.28159L12.3598 8.67159C12.1948 8.88659 11.8848 8.9066 11.6698 8.7166L11.6198 8.67159L7.75478 4.28159L7.74978 4.28659ZM9.62478 2.95659C9.81478 2.93159 9.97978 3.00659 10.0998 3.14659L11.9998 5.3516L13.8998 3.14659C14.0198 3.00659 14.1848 2.91159 14.3748 2.95659L17.2698 3.4766C17.3648 3.4766 17.4598 3.52159 17.5298 3.59659L21.6348 7.5116C21.7998 7.6766 21.8498 7.93659 21.7048 8.12659L19.6648 11.0466C19.6648 11.0466 19.6198 11.0966 19.5948 11.1166C19.4048 11.3316 19.0948 11.3316 18.9048 11.1416L17.6698 9.9766V20.5566C17.6698 20.8416 17.4548 21.0566 17.1948 21.0566H6.80477C6.54477 21.0566 6.32976 20.8416 6.32976 20.5566V9.9766L5.09478 11.1416C5.09478 11.1416 5.04977 11.1666 5.02477 11.1866C4.80977 11.3516 4.50476 11.2816 4.35976 11.0666L2.31978 8.14659C2.15478 7.95659 2.17977 7.67159 2.36477 7.50659L6.44478 3.61659C6.51478 3.54659 6.60979 3.4766 6.72979 3.4766L9.62478 2.95659Z" fill="#67C088"/>
<path d="M9.21848 3.35643C9.26774 2.92283 9.80994 2.75601 10.0944 3.08692L12.3377 5.69619C12.5726 5.96948 12.4501 6.39405 12.1056 6.50004L9.4739 7.30978C9.12944 7.41577 8.78938 7.13355 8.83006 6.77545L9.21848 3.35643Z" fill="#4BA78A"/>
<path d="M14.7234 3.35643C14.6742 2.92283 14.132 2.75601 13.8475 3.08692L11.6042 5.69619C11.3693 5.96948 11.4918 6.39405 11.8363 6.50004L14.468 7.30978C14.8125 7.41577 15.1525 7.13355 15.1118 6.77545L14.7234 3.35643Z" fill="#4BA78A"/>
<rect x="11.6208" y="5.74219" width="0.758301" height="3.98078" rx="0.37915" fill="#4BA78A"/>
</svg>
