<svg width="24" height="24" viewBox="0 0 24 24" fill="none" xmlns="http://www.w3.org/2000/svg">
<path d="M12.0072 11.1828C12.4322 11.1828 12.8622 11.3728 13.1472 11.6578C13.4322 11.9678 13.6222 12.3678 13.6222 12.8228C13.6222 13.2778 13.4322 13.6778 13.1472 13.9628C12.8622 14.2728 12.4372 14.4378 12.0072 14.4378C11.5572 14.4378 11.1522 14.2728 10.8422 13.9628C10.5572 13.6778 10.3672 13.2728 10.3672 12.8228C10.3672 12.3728 10.5572 11.9678 10.8422 11.6578C11.1522 11.3728 11.5522 11.1828 12.0072 11.1828ZM6.83215 5.82281L2.7522 9.71283C2.9422 10.2828 3.2272 10.8528 3.6322 11.3028C4.0122 11.7528 4.48723 12.0878 5.03223 12.2978L5.05713 12.2728H5.1272L5.15222 12.2478C5.69722 12.0578 6.14718 11.6328 6.48218 11.0628C6.90718 10.3278 7.17219 9.40281 7.24219 8.57281V8.35782L7.26721 8.33282V8.28781V8.24283V8.19781V8.15283V8.10782V7.98782V7.89282V7.82281V7.75284V7.70782V7.68283L7.24219 7.65784V7.63281V7.56284V7.51782V7.49283V7.42282V7.39783V7.32782V7.28284L7.21716 7.25781V7.23282V7.13782V7.09283V7.06781L7.19214 7.04282V7.01782V6.92282V6.89783C7.14214 6.61283 7.0722 6.37781 7.0022 6.16281L6.97717 6.11783V6.09283H6.95215V6.06781V6.04282H6.92713V6.01782V5.99283L6.90222 5.96783V5.94281L6.8772 5.91782C6.8522 5.87282 6.85215 5.84782 6.83215 5.82281ZM1.8772 9.21283L6.26721 4.98782V4.96283C6.10221 4.74783 6.12716 4.46282 6.33716 4.29782C6.40716 4.22782 6.47713 4.20283 6.55213 4.17783L9.20715 3.65784C9.46715 3.58784 9.72722 3.77781 9.77722 4.03781V4.13281C9.80222 4.93781 10.0621 5.88784 10.5621 6.59784C10.9421 7.11784 11.4172 7.49783 12.0072 7.52283C12.5772 7.49783 13.0771 7.11784 13.4321 6.59784C13.9321 5.88784 14.2172 4.93781 14.2172 4.13281C14.2172 3.84781 14.4322 3.63281 14.7172 3.63281C14.7422 3.63281 14.7621 3.63284 14.8121 3.65784L17.4672 4.17783C17.7272 4.24783 17.8922 4.50783 17.8472 4.77283C17.8222 4.84283 17.7772 4.93782 17.7272 4.98782L22.1172 9.21283C22.2572 9.35283 22.3072 9.52284 22.2572 9.68784C22.0672 10.4928 21.6622 11.3028 21.0922 11.9428C20.6672 12.4428 20.1172 12.8678 19.5022 13.1278L17.8422 19.9828C17.7972 20.2178 17.5822 20.3628 17.3672 20.3628H13.3322C13.1172 20.3628 12.9522 20.2228 12.8822 20.0328L12.0022 17.9228L11.1022 20.0578C11.0322 20.2478 10.8422 20.3678 10.6522 20.3678H6.61719C6.38219 20.3678 6.16721 20.1778 6.14221 19.9628L4.48218 13.1278C3.86718 12.8678 3.31721 12.4378 2.89221 11.9428C2.32221 11.3028 1.91718 10.4978 1.73218 9.68784C1.70718 9.52284 1.73219 9.35783 1.87219 9.21283H1.8772ZM7.47217 4.99283C7.61217 5.20783 7.73215 5.41781 7.82715 5.63281V5.65784H7.85217V5.68283V5.70782H7.8772V5.73282V5.75781V5.78284H7.90222V5.80783V5.83282H7.92713C8.02213 6.11782 8.09221 6.42781 8.14221 6.75781V6.78284L8.16724 6.80783V6.94781L8.19214 6.97284V7.06781V7.13782L8.21716 7.20782V7.25284V7.32281V7.36783V7.39282V7.43784V7.48282V7.50781L8.24219 7.53284V7.55783V7.60281V7.74283V7.81284V7.86282V8.00284V8.09784V8.14282V8.21283V8.25781V8.30783V8.42783L8.21716 8.47284C8.17216 9.49284 7.86214 10.6578 7.31714 11.5578C6.86714 12.2928 6.27221 12.8878 5.51221 13.1728L7.0072 19.3878H10.3271L11.5621 16.4678C11.6121 16.3478 11.6821 16.2528 11.8221 16.2078C12.0571 16.1128 12.3422 16.2328 12.4622 16.4678L13.6722 19.3878H16.9922L18.4872 13.1728C17.7272 12.8878 17.1371 12.2928 16.6821 11.5578C16.1371 10.6578 15.8522 9.49284 15.7822 8.47284V8.35281L15.7572 8.30783V8.25781V8.21283V8.14282V8.09784V8.00284V7.86282V7.81284V7.74283V7.62283L15.7822 7.59784V7.55283V7.48282V7.43784V7.39282V7.36783V7.32281V7.25284L15.8071 7.22781V7.20282V7.13281V7.06284V7.01782L15.8322 6.97284V6.94781V6.82782L15.8572 6.80283V6.73282V6.70782V6.68283C15.8822 6.63783 15.8822 6.61284 15.8822 6.56284V6.53781L15.9072 6.49283V6.46783C15.9322 6.34783 15.9522 6.23282 15.9772 6.13782H16.0022V6.11282C16.0022 6.06782 16.0271 6.01784 16.0521 5.97284V5.94781V5.92282L16.0771 5.89783V5.87283V5.84784L16.1022 5.82281V5.79782L16.1272 5.77283V5.72781H16.1522V5.70282L16.1771 5.65784V5.63281C16.2721 5.41781 16.3922 5.20783 16.5322 4.99283L15.1572 4.73282C15.0622 5.56282 14.7322 6.46283 14.2572 7.15283C13.7122 7.93783 12.9522 8.48284 12.0272 8.50284H12.0022C11.0772 8.47784 10.3172 7.93283 9.77222 7.15283C9.29722 6.46283 8.98719 5.56282 8.87219 4.73282L7.49719 4.99283H7.47217ZM21.2372 9.71283L17.1572 5.82281C17.1572 5.82281 17.1322 5.86782 17.1072 5.89282V5.91782V5.94281H17.0822V5.96783V5.99283H17.0571V6.01782V6.04282H17.0322V6.06781V6.09283L17.0072 6.11783V6.16281C16.9122 6.42281 16.8172 6.70784 16.7922 7.06284C16.7672 7.15784 16.7672 7.27782 16.7472 7.39282V7.41782V7.48782V7.51282V7.55783V7.62784V7.69781V7.74283V7.78781L16.7222 7.81284V7.88281V7.97781V8.09784V8.14282V8.18784L16.7472 8.23282V8.27783V8.56284C16.8422 9.39284 17.0772 10.3178 17.5322 11.0528C17.8872 11.6478 18.3622 12.1228 18.9572 12.2878C19.5022 12.0728 19.9772 11.7428 20.3572 11.2928C20.7622 10.8428 21.0472 10.2728 21.2372 9.70282V9.71283ZM12.4572 12.3478C12.3372 12.2278 12.1722 12.1578 12.0072 12.1578C11.8172 12.1578 11.6522 12.2278 11.5322 12.3478C11.4122 12.4678 11.3422 12.6328 11.3422 12.8228C11.3422 12.9878 11.4122 13.1528 11.5322 13.2728C11.6522 13.3928 11.8172 13.4628 12.0072 13.4628C12.1722 13.4628 12.3372 13.3928 12.4572 13.2728C12.5772 13.1528 12.6472 12.9878 12.6472 12.8228C12.6472 12.6328 12.5772 12.4678 12.4572 12.3478Z" fill="#F5CD72"/>
<path d="M17.4121 4.92773L17.3521 5.07617L22.0864 9.81055L19.0381 12.8584L17.3838 19.7769H13.1675L13.0186 18.0293H10.9487L10.7842 19.7769H6.56787L4.89893 12.8003L1.91309 9.81445L6.69043 5.03662L6.64697 4.92773L9.08643 3.94531L10.5786 7.65088V7.58203H13.5083L14.9731 3.94531L17.4121 4.92773Z" fill="#F5CD72"/>
<path d="M12.5881 13.1978C12.5881 12.8728 12.3247 12.6094 11.9998 12.6094C11.6748 12.6094 11.4114 12.8728 11.4114 13.1978C11.4114 13.5227 11.6748 13.7861 11.9998 13.7861V14.5361C11.2606 14.5361 10.6614 13.9369 10.6614 13.1978C10.6614 12.4586 11.2606 11.8594 11.9998 11.8594C12.7389 11.8594 13.3381 12.4586 13.3381 13.1978C13.3381 13.9369 12.7389 14.5361 11.9998 14.5361V13.7861C12.3247 13.7861 12.5881 13.5227 12.5881 13.1978Z" fill="#EC955D"/>
<path d="M12.5881 9.63525C12.5881 9.3103 12.3247 9.04688 11.9998 9.04688C11.6748 9.04688 11.4114 9.3103 11.4114 9.63525C11.4114 9.96021 11.6748 10.2236 11.9998 10.2236V10.9736C11.2606 10.9736 10.6614 10.3744 10.6614 9.63525C10.6614 8.89609 11.2606 8.29688 11.9998 8.29688C12.7389 8.29688 13.3381 8.89609 13.3381 9.63525C13.3381 10.3744 12.7389 10.9736 11.9998 10.9736V10.2236C12.3247 10.2236 12.5881 9.96021 12.5881 9.63525Z" fill="#EC955D"/>
<path d="M7.8006 5.67849C8.03369 6.49632 8.20873 7.83029 7.98859 9.21462C7.76767 10.6037 7.14239 12.0743 5.74543 13.1028C5.57865 13.2256 5.34429 13.19 5.2215 13.0232C5.09871 12.8564 5.13431 12.6221 5.30109 12.4993C6.49442 11.6207 7.04788 10.354 7.24787 9.09646C7.44854 7.83433 7.28667 6.61191 7.07941 5.88455L7.8006 5.67849ZM7.33722 5.42068C7.5363 5.36397 7.74374 5.47948 7.8006 5.67849L7.07941 5.88455C7.02264 5.68537 7.13805 5.47744 7.33722 5.42068Z" fill="#EC955D"/>
<path d="M16.1992 5.67849C15.9661 6.49632 15.791 7.83029 16.0112 9.21462C16.2321 10.6037 16.8574 12.0743 18.2543 13.1028C18.4211 13.2256 18.6555 13.19 18.7783 13.0232C18.901 12.8564 18.8654 12.6221 18.6987 12.4993C17.5053 11.6207 16.9519 10.354 16.7519 9.09646C16.5512 7.83433 16.7131 6.61191 16.9203 5.88455L16.1992 5.67849ZM16.6625 5.42068C16.4635 5.36397 16.256 5.47948 16.1992 5.67849L16.9203 5.88455C16.9771 5.68537 16.8617 5.47744 16.6625 5.42068Z" fill="#EC955D"/>
</svg>
