<svg width="24" height="24" viewBox="0 0 24 24" fill="none" xmlns="http://www.w3.org/2000/svg">
<path d="M16.8813 3.83789L18.0864 4.54004L19.3579 5.74414L19.8179 7.05859L20.2124 8.33105L20.3433 9.40332L19.8179 11.4199L19.1606 12.8223L17.4946 14.4229L15.7202 15.0361H11.1616L9.54053 14.6631L8.66357 13.0635V12.1436L8.51025 10.3037V8.7041L8.66357 7.65234L9.54053 5.74414L10.3071 4.91309L11.6655 4.14551L13.0024 3.53223L14.7339 3.35547L16.8813 3.83789ZM14.4272 4.25391C11.692 4.25391 9.47412 6.47177 9.47412 9.20703C9.47438 11.9421 11.6921 14.1592 14.4272 14.1592C17.1622 14.159 19.3791 11.942 19.3794 9.20703C19.3794 6.47185 17.1624 4.25404 14.4272 4.25391Z" fill="#ABD3F4"/>
<path d="M5.60017 19.2439L4.02082 17.1912L3.75244 17.0334C3.8419 16.8912 4.04611 16.6068 4.14728 16.6068C4.24845 16.6068 4.45266 16.7333 4.54212 16.7965L5.07909 16.9544L5.60017 16.6068L6.65844 15.3751L7.41653 14.696L8.06406 14.0327L8.23779 13.5746L8.64908 12.8008L10.9701 15.1218L9.80135 15.5482L8.49049 16.6068L7.17963 17.7597L6.56368 18.6126L6.81638 19.2439V19.6549H6.32678L5.60017 19.2439Z" fill="#5DA2E1"/>
<path d="M13.5629 12.4177C13.3729 12.6077 13.063 12.6077 12.873 12.4177C12.658 12.2277 12.658 11.9177 12.873 11.7277L13.753 10.8277L12.8279 9.90271L11.9279 10.7827C11.7379 10.9977 11.428 10.9977 11.238 10.7827C11.048 10.5927 11.048 10.2827 11.238 10.0927L12.138 9.21271L11.238 8.31272C11.048 8.12272 11.048 7.81272 11.238 7.62271C11.428 7.43271 11.7379 7.43271 11.9279 7.62271L12.8279 8.50272L13.753 7.5777L12.873 6.67771C12.658 6.48771 12.658 6.17771 12.873 5.98771C13.063 5.79771 13.3729 5.79771 13.5629 5.98771L14.4429 6.8877L15.3429 5.98771C15.5329 5.79771 15.8429 5.79771 16.0329 5.98771C16.2229 6.17771 16.2229 6.48771 16.0329 6.67771L15.1529 7.5777L16.0779 8.50272L16.9779 7.62271C17.1679 7.43271 17.4779 7.43271 17.6679 7.62271C17.8579 7.81272 17.8579 8.12272 17.6679 8.31272L16.7679 9.21271L17.6679 10.0927C17.8579 10.2827 17.8579 10.5927 17.6679 10.7827C17.4779 10.9977 17.1679 10.9977 16.9779 10.7827L16.0779 9.90271L15.1529 10.8277L16.0329 11.7277C16.2229 11.9177 16.2229 12.2277 16.0329 12.4177C15.8429 12.6077 15.5329 12.6077 15.3429 12.4177L14.4429 11.5177L13.5629 12.4177ZM12.758 19.3477C12.803 19.2777 12.853 19.2077 12.878 19.1327V19.1077L12.9029 19.0627V19.0377V19.0127H12.9279V18.9877V18.9627V18.9377L12.9529 18.9127V18.8877V18.8627V18.8377L12.9779 18.8127V18.7877V18.7627V18.7377V18.7127V18.6877L13.003 18.6627V18.6377V18.6127V18.5677V18.5427V18.5177V18.4727V18.4277V18.4027V18.3777V18.3277C13.003 18.3277 13.0029 18.2577 12.9779 18.2327V18.1627V18.1177L12.9529 18.0927V18.0677V18.0427V17.9977L12.9279 17.9727C12.9279 17.9727 12.9279 17.9277 12.9029 17.9027V17.8777L12.878 17.8327V17.8077L12.8529 17.7827V17.7577V17.7327C12.8279 17.6877 12.8079 17.6627 12.7829 17.6127L12.758 17.5677C12.713 17.4977 12.663 17.4277 12.618 17.3527C12.428 17.3977 12.2379 17.4927 12.0979 17.6127C11.9779 17.7077 11.8829 17.8277 11.8129 17.9677C11.7879 18.0627 11.7629 18.1577 11.7879 18.2527C11.8129 18.3227 11.8579 18.4177 11.9529 18.4677C12.1879 18.6327 12.358 18.7977 12.498 18.9427C12.618 19.0827 12.713 19.2027 12.758 19.3227V19.3477ZM13.6829 19.7027C13.4479 20.1777 13.088 20.5827 12.613 20.8427H12.5879C12.5879 20.8427 12.5429 20.8877 12.5179 20.8877L12.493 20.9127C12.443 20.9377 12.398 20.9577 12.373 20.9577L12.2779 21.0027C11.7079 21.2377 11.0929 21.2627 10.5229 21.1227C9.88287 20.9327 9.28788 20.5277 8.90788 19.9127L8.86296 19.8427C8.48296 19.1777 8.41292 18.4427 8.57792 17.7777C8.76792 17.1127 9.17291 16.5227 9.81291 16.1427L9.85795 16.0977C10.523 15.7427 11.2579 15.6477 11.9479 15.8377C12.6129 16.0277 13.228 16.4527 13.608 17.1177V17.1427L13.633 17.1677L13.6579 17.2127L13.6829 17.2377V17.2627L13.7079 17.3077V17.3327L13.733 17.3577L13.758 17.4027V17.4277L13.7829 17.4527V17.4977L13.8079 17.5227V17.5477L13.8329 17.5927V17.6177L13.858 17.6427V17.6877L13.883 17.7127V17.7577V17.7827L13.9079 17.8077V17.8527V17.8777L13.9329 17.9027V17.9527V17.9777V18.0227L13.9579 18.0477V18.0727V18.1177V18.1427V18.1877L13.983 18.2127V18.2377V18.2827V18.3777V18.4027V18.4477V18.4927V18.5627V18.6327L13.6979 19.7027H13.6829ZM11.8329 20.1277C11.8329 20.1277 11.8779 20.0827 11.9029 20.0577C11.9279 20.0077 11.9479 19.9627 11.9479 19.9177C11.9229 19.8477 11.8779 19.7527 11.7829 19.6327C11.6879 19.5127 11.548 19.4177 11.378 19.3027C11.093 19.0877 10.928 18.8277 10.858 18.5427C10.763 18.2327 10.7879 17.9277 10.9029 17.6177C11.0229 17.3577 11.2129 17.0977 11.4729 16.8827C11.5179 16.8377 11.568 16.8127 11.638 16.7627C11.213 16.6677 10.758 16.7177 10.358 16.9527C9.93295 17.1877 9.64788 17.5927 9.52788 18.0227C9.40788 18.4477 9.45791 18.9477 9.69291 19.3527L9.71794 19.3777C9.95294 19.7827 10.3329 20.0677 10.7879 20.1827C11.1179 20.2777 11.4979 20.2527 11.8329 20.1377V20.1277ZM13.9679 18.7077V18.7777L13.9429 18.8027V18.8727V18.9177L13.9179 18.9877V19.0127V19.0627L13.8929 19.0877V19.1327V19.1577L13.868 19.1827V19.2277L13.8429 19.2527V19.2977L13.8179 19.3427V19.3677L13.7929 19.3927V19.4377L13.7679 19.4827L13.743 19.5277V19.5527L13.7179 19.5777V19.6027L13.6929 19.6477V19.6727H13.6679V19.6977L13.9529 18.7027L13.9679 18.7077ZM17.0279 13.6527L16.9079 13.7227C15.6979 14.3877 14.348 14.5077 13.113 14.1727C11.878 13.8427 10.7429 13.0327 10.0279 11.8477V11.8227L9.98295 11.7527C9.29295 10.5427 9.15295 9.1427 9.48295 7.86271C9.81295 6.60271 10.648 5.46772 11.878 4.75272L11.9029 4.7277C13.1129 4.0377 14.5129 3.8977 15.7929 4.2277C17.0479 4.5577 18.1879 5.39271 18.9029 6.62271C19.6129 7.85772 19.7579 9.25769 19.4229 10.5377C19.0929 11.7927 18.2579 12.9577 17.0279 13.6477V13.6527ZM16.6479 12.7477C17.5729 12.1777 18.2129 11.2777 18.4729 10.2777C18.7579 9.25771 18.6379 8.11771 18.0679 7.12271L18.0429 7.09772C17.4729 6.10272 16.5479 5.43771 15.5279 5.17771C14.4829 4.89271 13.3429 5.01271 12.3479 5.58271C11.3529 6.17771 10.6879 7.10272 10.4279 8.12271C10.1429 9.14271 10.2629 10.2577 10.8079 11.2327L10.8329 11.2777C11.4029 12.2977 12.328 12.9627 13.373 13.2227C14.393 13.5077 15.483 13.3877 16.483 12.8427L16.5779 12.7477H16.6479ZM6.13798 20.3677L3.29289 17.5227C3.10289 17.3327 3.10289 17.0227 3.29289 16.8327L3.98295 16.1427C4.17295 15.9527 4.4829 15.9527 4.6729 16.1427L5.09794 16.5677L6.63798 15.0027C7.27798 14.3627 7.72796 13.6277 7.98796 12.8427C8.24796 12.0377 8.29797 11.1827 8.12797 10.3027C7.91297 8.99771 8.10287 7.6677 8.64787 6.4827C9.19287 5.3427 10.073 4.34772 11.258 3.65772C12.778 2.77772 14.5329 2.5877 16.0979 3.0177C17.6879 3.4427 19.113 4.46269 19.988 6.00769L20.013 6.03272C20.868 7.55272 21.058 9.28272 20.628 10.8477C20.203 12.4377 19.183 13.8627 17.638 14.7377L17.613 14.7627C16.948 15.1427 16.2629 15.3777 15.5729 15.4977C14.8379 15.6377 14.078 15.6377 13.368 15.5227C12.468 15.3577 11.6129 15.4027 10.8079 15.6627C10.0229 15.9227 9.28787 16.3727 8.64787 17.0127L7.08293 18.5527L7.50798 18.9777C7.69798 19.1677 7.69798 19.4777 7.50798 19.6677L6.81791 20.3577C6.62791 20.5477 6.31797 20.5477 6.12797 20.3577L6.13798 20.3677ZM4.33293 17.1877L6.46794 19.3227L6.06291 18.8977C5.87291 18.7077 5.87291 18.3977 6.06291 18.2077L7.96293 16.3327C8.69793 15.5727 9.57787 15.0277 10.5229 14.7427C11.4729 14.4327 12.4679 14.3627 13.5379 14.5527C14.1329 14.6477 14.7729 14.6727 15.4129 14.5527C16.0079 14.4327 16.5779 14.2427 17.1429 13.9127H17.1679C18.4479 13.1527 19.3279 11.9427 19.6829 10.6127C20.0379 9.28271 19.8979 7.81269 19.1629 6.50769V6.4827C18.4029 5.2027 17.193 4.32272 15.863 3.96772C14.513 3.58772 13.038 3.75271 11.733 4.48771V4.5127C10.738 5.0827 9.97788 5.9127 9.52788 6.8877C9.07788 7.8827 8.91295 9.0227 9.10295 10.1377C9.29295 11.1827 9.22289 12.2027 8.91289 13.1277C8.62789 14.0777 8.08292 14.9527 7.32292 15.7127L5.44792 17.5877C5.25792 17.7777 4.94798 17.7777 4.75798 17.5877L4.33293 17.1827V17.1877ZM14.4429 8.2677L13.5179 9.21772L14.4429 10.1427L15.3929 9.21772L14.4429 8.2677Z" fill="#5DA2E1"/>
<circle cx="11.229" cy="18.5508" r="2.81641" fill="#FEFFFE"/>
<path d="M11.229 15.7344C11.6962 15.7344 12.1365 15.8489 12.5244 16.0503C12.4333 16.1748 12.3549 16.3132 12.2886 16.4585C12.0408 17.0015 11.9262 17.707 11.9292 18.3975C11.9322 19.0881 12.0529 19.793 12.3018 20.335C12.4072 20.5645 12.5425 20.7775 12.71 20.9458C12.2796 21.2125 11.7725 21.3672 11.229 21.3672C10.6969 21.3672 10.1994 21.2193 9.7749 20.9629C9.95047 20.792 10.0921 20.5725 10.2012 20.335C10.45 19.793 10.5708 19.088 10.5737 18.3975C10.5767 17.7071 10.4621 17.0014 10.2144 16.4585C10.145 16.3065 10.0614 16.1626 9.96484 16.0337C10.345 15.8424 10.7744 15.7344 11.229 15.7344Z" fill="#86C869"/>
<path d="M9.53857 16.2979C9.61816 16.3971 9.6924 16.5195 9.75928 16.666C9.96804 17.1235 10.0765 17.7521 10.0737 18.3955C10.071 19.0388 9.9571 19.668 9.74658 20.1265C9.63469 20.3701 9.50476 20.5463 9.36328 20.6597C8.78047 20.1437 8.4126 19.3904 8.4126 18.5508C8.4126 17.6296 8.85482 16.8117 9.53857 16.2979Z" fill="#86C869"/>
<path d="M12.9468 16.3193C13.6148 16.8343 14.0454 17.6421 14.0454 18.5508C14.0454 19.3803 13.6864 20.1257 13.1157 20.6411C12.9833 20.5273 12.8621 20.3568 12.7563 20.1265C12.5458 19.668 12.432 19.0388 12.4292 18.3955C12.4264 17.752 12.5349 17.1235 12.7437 16.666C12.8057 16.53 12.8737 16.4146 12.9468 16.3193Z" fill="#86C869"/>
<rect x="8.95532" y="12.3008" width="3.30078" height="0.861328" rx="0.430664" transform="rotate(45 8.95532 12.3008)" fill="#0D7FE7"/>
</svg>
