<svg width="25" height="24" viewBox="0 0 25 24" fill="none" xmlns="http://www.w3.org/2000/svg">
<path d="M4.63831 7.73438H9.61877V7.25391H11.5148V8.19824L13.1881 9.01562L13.1959 8.99512L22.818 13.6953L22.8531 13.6992L22.8453 13.7085L22.8585 13.7153L22.8234 13.7368L20.4694 16.7383L12.1569 16.5698V15.9844H8.01233V16.5703H4.02844V14.9961H3.06409V14.5156H2.74231V7.25391H4.63831V7.73438Z" fill="#5DA2E1"/>
<path d="M11.7457 7.53383C12.2207 7.84383 12.6956 8.12884 13.1456 8.38884L13.3807 8.12883C13.5957 7.96383 13.9006 7.96386 14.0906 8.15386C14.2556 8.34386 14.2557 8.65386 14.0657 8.84386L14.0206 8.88884C14.4256 9.12384 14.8256 9.33886 15.2056 9.52886L15.4407 9.29384C15.6057 9.07884 15.9157 9.05886 16.1307 9.24886C16.3207 9.41386 16.3457 9.72386 16.1757 9.93886L16.1057 10.0088C16.5107 10.1988 16.8907 10.3888 17.2457 10.5538L17.4106 10.3389C17.5756 10.1239 17.8856 10.0789 18.1006 10.2439C18.3156 10.4339 18.3357 10.7189 18.1707 10.9339L18.1456 10.9788C18.9506 11.3338 19.6407 11.6188 20.2357 11.8788C22.2507 12.7088 23.2257 13.1338 23.2957 14.1788C23.3207 14.2738 23.2706 14.3689 23.2256 14.4639C21.5156 17.8339 19.1456 17.6438 15.7756 17.3838C14.8256 17.3138 13.8056 17.2439 12.6656 17.2439C12.5256 17.2439 12.4057 17.1738 12.3107 17.0788C11.8107 16.6288 11.0306 16.3888 10.2006 16.3888C9.37062 16.3888 8.49063 16.6489 7.90063 17.1239C7.80563 17.1939 7.71064 17.2439 7.59064 17.2439H4.67065C4.29065 17.2439 3.96068 17.0789 3.69568 16.8389C3.46068 16.5789 3.29065 16.2438 3.29065 15.8638V15.6738L2.43567 14.8188C2.29567 14.6788 2.20067 14.5339 2.12567 14.3689C2.05567 14.2039 2.03064 14.0138 2.03064 13.8488V8.22383C2.03064 8.03383 2.05567 7.86884 2.12567 7.70384C2.19567 7.53884 2.29067 7.39383 2.43567 7.25383L2.81567 6.87386C2.91067 6.77886 3.03063 6.70884 3.14563 6.63884C3.38063 6.51884 3.64568 6.47386 3.88068 6.49886C4.16568 6.52386 4.42564 6.61885 4.59064 6.80885C4.63564 6.85385 4.68565 6.92886 4.73065 6.99886L4.89563 7.35384H4.92065C5.01565 7.37884 5.11063 7.37883 5.20563 7.37883H8.69568C8.74068 7.35383 8.76567 7.35385 8.81567 7.33385L9.67065 6.76384C9.86065 6.66884 10.0507 6.59884 10.2407 6.57384C10.4557 6.54884 10.6457 6.57385 10.8557 6.64385C11.0457 6.71385 11.2107 6.80884 11.3757 6.95384C11.5157 7.09384 11.6107 7.26384 11.6857 7.45384L11.7307 7.54884L11.7457 7.53383ZM5.41064 14.4838C5.12564 14.4838 4.91064 14.2688 4.91064 13.9838C4.91064 13.7238 5.12564 13.5088 5.41064 13.5088H8.30566C8.59066 13.5088 8.80566 13.7238 8.80566 13.9838C8.80566 14.2688 8.59066 14.4838 8.30566 14.4838H5.41064ZM16.4407 13.1338C16.2757 13.3488 15.9657 13.3938 15.7507 13.2288C15.5357 13.0638 15.5157 12.7538 15.6807 12.5388L16.6307 11.3288C16.2507 11.1638 15.8457 10.9738 15.4457 10.7588L14.3306 12.0388C14.1656 12.2288 13.8556 12.2538 13.6406 12.0838C13.4506 11.8938 13.4256 11.5838 13.5906 11.3938L14.5657 10.2789C14.1607 10.0639 13.7356 9.82885 13.2856 9.58885L12.0756 10.7739C11.8606 10.9639 11.5557 10.9639 11.3657 10.7739C11.2007 10.5839 11.2006 10.2738 11.3906 10.0838L12.4106 9.06386C11.9856 8.82886 11.5306 8.54384 11.0806 8.25884C10.9856 8.21384 10.9157 8.11885 10.8657 8.02385L10.7957 7.76384C10.7707 7.71884 10.7256 7.66886 10.7006 7.62386C10.6556 7.59886 10.6056 7.55385 10.5356 7.55385C10.4906 7.52885 10.4157 7.50886 10.3707 7.52886C10.3257 7.52886 10.2756 7.55384 10.2056 7.57384L9.35065 8.11885C9.23065 8.18885 9.11567 8.25883 8.99567 8.28383C8.87567 8.32883 8.73566 8.32884 8.61566 8.32884H5.22064C5.05564 8.32884 4.84063 8.32884 4.65063 8.25884L4.58063 8.23384C4.36563 8.16384 4.17563 8.01885 4.08063 7.80885L3.89062 7.45384H3.82068C3.75068 7.45384 3.65563 7.45386 3.58563 7.49886C3.56063 7.52386 3.54062 7.52384 3.51562 7.54384L3.13562 7.92384C3.09062 7.96884 3.06565 8.01886 3.04065 8.06386C3.01565 8.08886 3.01562 8.15884 3.01562 8.20384V13.8288C3.01562 13.8738 3.01565 13.9239 3.04065 13.9689C3.06565 14.0139 3.08562 14.0639 3.13562 14.0889L4.13068 15.1088C4.22568 15.2038 4.27063 15.3239 4.27063 15.4639V15.8439C4.27063 15.9389 4.31562 16.0588 4.39062 16.1288C4.46062 16.1988 4.55566 16.2238 4.67566 16.2238H7.42566C8.18566 15.6788 9.20562 15.3938 10.2006 15.3938C11.1956 15.3938 12.1707 15.6788 12.8557 16.2238C13.9257 16.2488 14.9457 16.3188 15.8707 16.3888C18.8107 16.6238 20.9007 16.7938 22.3007 14.1088C22.1607 13.7288 21.3507 13.3738 19.8557 12.7588C19.1907 12.4738 18.4306 12.1438 17.5306 11.7388L16.4407 13.1138V13.1338Z" fill="#5DA2E1"/>
<rect x="4.91809" y="13.5156" width="3.8999" height="0.960938" rx="0.480469" fill="#ABD3F4"/>
<rect x="10.9069" y="10.5859" width="4.0048" height="1.01319" rx="0.506593" transform="rotate(-45.7806 10.9069 10.5859)" fill="#ABD3F4"/>
<rect x="13.0992" y="11.8867" width="4.14401" height="1.0484" rx="0.524202" transform="rotate(-48.4724 13.0992 11.8867)" fill="#ABD3F4"/>
<rect x="15.2147" y="13.0742" width="4.20421" height="1.06364" rx="0.531818" transform="rotate(-52.0328 15.2147 13.0742)" fill="#ABD3F4"/>
</svg>
