<svg width="32" height="32" viewBox="0 0 32 32" fill="none" xmlns="http://www.w3.org/2000/svg">
<rect x="0.5" y="0.5" width="31" height="31" rx="15.5" fill="#F6F7F9"/>
<rect x="0.5" y="0.5" width="31" height="31" rx="15.5" stroke="#4CAF50"/>
<path d="M16.0126 5.10156C19.0063 5.10156 21.7376 6.32032 23.7251 8.27657C25.6814 10.2641 26.9 12.9891 26.9 15.9891C26.9 18.9891 25.6814 21.7453 23.7251 23.7016C21.7376 25.6891 19.0126 26.9016 16.0126 26.9016C13.0126 26.9016 10.2875 25.6828 8.30002 23.7016C6.31252 21.7453 5.1001 19.0141 5.1001 15.9891C5.1001 12.9641 6.31877 10.2641 8.30002 8.27657C10.2875 6.32032 12.9876 5.10156 16.0126 5.10156ZM19.0063 14.1141C19.0063 14.4391 18.7376 14.7391 18.3813 14.7391C18.0563 14.7391 17.7876 14.4453 17.7876 14.1141C17.7876 13.5516 18.0563 13.0141 18.4688 12.6578L18.5251 12.6265C18.9126 12.3015 19.4438 12.0953 20.0375 12.0953C20.6313 12.0953 21.1938 12.3328 21.5813 12.6578C22.025 13.0141 22.2939 13.5453 22.2939 14.1141C22.2939 14.4391 22.0251 14.7391 21.6689 14.7391C21.3439 14.7391 21.0751 14.4453 21.0751 14.1141C21.0751 13.9078 20.9563 13.7266 20.8063 13.5828C20.6 13.4328 20.3313 13.3453 20.0375 13.3453C19.7438 13.3453 19.4751 13.4328 19.2938 13.5828H19.2625C19.0875 13.7328 18.9938 13.9078 18.9938 14.1141H19.0063ZM11.0876 14.0578C11.0876 14.3828 10.7939 14.6516 10.4626 14.6516C10.1314 14.6516 9.83765 14.3828 9.83765 14.0578C9.83765 13.4641 10.1063 12.9578 10.5501 12.6016L10.5814 12.5703C10.9939 12.2453 11.5313 12.039 12.1251 12.039C12.7188 12.039 13.2501 12.2453 13.6688 12.6016C14.1126 12.9578 14.3813 13.4641 14.3813 14.0578C14.3813 14.3828 14.1125 14.6516 13.7563 14.6516C13.4313 14.6516 13.1625 14.3828 13.1625 14.0578C13.1625 13.8516 13.0438 13.6703 12.8938 13.5266C12.6876 13.3766 12.4188 13.2578 12.1251 13.2578C11.8313 13.2578 11.5626 13.3453 11.3564 13.4953V13.5266C11.1814 13.6765 11.0876 13.8516 11.0876 14.0578ZM11.3876 16.7516H20.6438C20.9688 16.7516 21.2376 17.0453 21.2376 17.3766V18.0266C21.2376 19.4828 20.675 20.7828 19.725 21.7328C18.775 22.6828 17.4438 23.2766 16.0188 23.2766C14.5938 23.2766 13.2626 22.6828 12.3126 21.7328C11.3626 20.7828 10.7689 19.4766 10.7689 18.0266V17.3766C10.7689 17.0516 11.0626 16.7516 11.3939 16.7516H11.3876ZM20.0188 18.0016H12.0126V18.0328C12.0126 19.1578 12.4563 20.1391 13.1688 20.8828C13.9125 21.5953 14.9188 22.0703 16.0188 22.0703C17.1188 22.0703 18.1251 21.5953 18.8376 20.8828C19.5813 20.1391 20.025 19.1641 20.025 18.0328V18.0016H20.0188ZM22.8625 9.13282C21.1125 7.38282 18.6813 6.31406 16.0126 6.31406C13.3438 6.31406 10.9126 7.38282 9.1626 9.13282C7.4126 10.8828 6.34384 13.314 6.34384 15.9828C6.34384 18.6515 7.4126 21.0828 9.1626 22.8328C10.9126 24.5828 13.3438 25.6828 16.0126 25.6828C18.6813 25.6828 21.1125 24.5828 22.8625 22.8328C24.6125 21.0828 25.6813 18.6515 25.6813 15.9828C25.6813 13.314 24.6125 10.8828 22.8625 9.13282Z" fill="#4CAF50"/>
</svg>
