<svg width="32" height="32" viewBox="0 0 32 32" fill="none" xmlns="http://www.w3.org/2000/svg">
<rect x="0.5" y="0.5" width="31" height="31" rx="15.5" fill="#F6F7F9"/>
<rect x="0.5" y="0.5" width="31" height="31" rx="15.5" stroke="#FFB300"/>
<path d="M15.9875 5.10156C19.0125 5.10156 21.7126 6.32032 23.7001 8.27657C25.6564 10.2641 26.9 12.9891 26.9 15.9891C26.9 18.9891 25.6564 21.7453 23.7001 23.7016C21.7126 25.6891 19.0125 26.9016 15.9875 26.9016C12.9625 26.9016 10.2626 25.6828 8.27515 23.7016C6.3189 21.7453 5.1001 19.0141 5.1001 15.9891C5.1001 12.9641 6.3189 10.2641 8.27515 8.27657C10.2626 6.32032 12.9875 5.10156 15.9875 5.10156ZM20.0188 11.414C21.1188 11.414 22.0377 12.3016 22.0377 13.4016C22.0377 14.5016 21.1188 15.4203 20.0188 15.4203C18.9188 15.4203 18 14.5328 18 13.4016C18 12.2703 18.9188 11.414 20.0188 11.414ZM12.1001 11.3578C13.2001 11.3578 14.0875 12.2453 14.0875 13.3453C14.0875 14.4453 13.2001 15.3641 12.1001 15.3641C11.0001 15.3641 10.0813 14.4766 10.0813 13.3453C10.0813 12.2141 11.0001 11.3578 12.1001 11.3578ZM10.9189 18.1516C10.9189 17.7953 11.2126 17.5266 11.5439 17.5266C11.8751 17.5266 12.1689 17.7953 12.1689 18.1516C12.1689 18.9828 12.5814 19.7516 13.2376 20.3453C13.9501 20.9078 14.9251 21.2953 15.9938 21.2953C17.0626 21.2953 18.0377 20.9078 18.7502 20.3453C19.4314 19.7516 19.8502 18.9828 19.8502 18.1516C19.8502 17.7953 20.1189 17.5266 20.4439 17.5266C20.8001 17.5266 21.0689 17.7953 21.0689 18.1516C21.0689 19.3703 20.4751 20.4641 19.5251 21.2641C18.6376 22.0328 17.3626 22.5078 15.9938 22.5078C14.6251 22.5078 13.3814 22.0328 12.4626 21.2641C11.5126 20.4641 10.9189 19.3641 10.9189 18.1516ZM22.8375 9.16406C21.0875 7.38281 18.6563 6.31406 15.9875 6.31406C13.3188 6.31406 10.8876 7.38281 9.13757 9.16406C7.38757 10.9141 6.31882 13.314 6.31882 15.9828C6.31882 18.6515 7.38757 21.0828 9.13757 22.8328C10.8876 24.5828 13.3188 25.6516 15.9875 25.6516C18.6563 25.6516 21.0875 24.5828 22.8375 22.8328C24.5875 21.0828 25.6563 18.6515 25.6563 15.9828C25.6563 13.314 24.5875 10.9141 22.8375 9.16406Z" fill="#FFB300"/>
</svg>
