<svg width="263" height="70" viewBox="0 0 263 70" fill="none" xmlns="http://www.w3.org/2000/svg">
<path d="M58.582 50.6721C57.4238 49.514 55.889 48.8791 54.2529 48.8791C52.6169 48.8791 51.0785 49.5174 49.9238 50.6721C49.2471 51.3453 48.5355 51.9977 47.7994 52.6046C47.0634 53.2116 46.289 53.7907 45.4971 54.3279C44.7017 54.8651 43.875 55.3674 43.0308 55.8244C42.0157 56.3756 41.639 57.6453 42.1901 58.664C42.5703 59.3616 43.289 59.7593 44.032 59.7593C44.3703 59.7593 44.7122 59.6791 45.0296 59.5047C45.9889 58.9814 46.9343 58.4093 47.8413 57.7953C48.7448 57.1849 49.6273 56.5256 50.4645 55.8349C51.3017 55.1442 52.1145 54.4046 52.8855 53.6337C53.2517 53.2674 53.7366 53.0651 54.2564 53.0651C54.7762 53.0651 55.261 53.2674 55.6273 53.6337C55.9936 54 56.1959 54.4849 56.1959 55.0046C56.1959 55.5244 55.9936 56.0093 55.6273 56.3756C49.9796 62.0233 42.4657 65.1349 34.4773 65.1349C26.489 65.1349 18.975 62.0233 13.3273 56.3756C7.67965 50.7279 4.56802 43.214 4.56802 35.2256C4.56802 27.2372 7.67965 19.7233 13.3273 14.0756C15.6506 11.7523 18.2913 9.86163 21.1971 8.42442L19.5855 13.3221L34.4808 3.22326L16.7669 0L20.4855 4.11977C16.7145 5.81512 13.3169 8.1593 10.3657 11.114C3.92267 17.5535 0.375 26.114 0.375 35.2221C0.375 44.3302 3.92267 52.8907 10.3622 59.3302C16.8017 65.7698 25.3657 69.3174 34.4738 69.3174C43.582 69.3174 52.1424 65.7698 58.582 59.3302C59.7401 58.1721 60.375 56.6372 60.375 55.0012C60.375 53.3651 59.7366 51.8267 58.582 50.6721Z" fill="#F98C4B"/>
<path d="M34.2719 58.2684C33.9893 58.2684 33.7102 58.2474 33.4312 58.2091C33.0405 58.1532 32.6533 58.0625 32.28 57.9335C31.9102 57.8044 31.5509 57.6405 31.2126 57.4451C30.3893 56.9707 29.5312 56.5277 28.6626 56.13C27.7939 55.7323 26.8939 55.373 25.9905 55.0626C25.0835 54.7486 24.1521 54.4765 23.2207 54.2532C22.0974 53.9846 21.4033 52.8544 21.6753 51.7277C21.9439 50.6044 23.0742 49.9102 24.2009 50.1823C25.2614 50.437 26.3253 50.7474 27.3579 51.1032C28.387 51.4591 29.4091 51.8672 30.3998 52.3207C31.3905 52.7707 32.3672 53.2765 33.3056 53.8207C33.4137 53.8835 33.5288 53.9358 33.6474 53.9742C33.766 54.016 33.8881 54.0439 34.0102 54.0614C34.1358 54.0788 34.2614 54.0823 34.387 54.0753C34.516 54.0684 34.6486 54.0474 34.7777 54.0125C34.9067 53.9777 35.0288 53.9323 35.1474 53.873C35.2591 53.8172 35.3672 53.7509 35.4649 53.6707C35.5626 53.5939 35.6533 53.5102 35.7335 53.4125C35.8172 53.3184 35.887 53.2172 35.9498 53.1056C36.0126 52.9974 36.0649 52.8858 36.1033 52.7672C36.1451 52.6486 36.173 52.5265 36.1905 52.4044C36.2079 52.2788 36.2114 52.1532 36.2044 52.0277C36.1974 51.8951 36.1765 51.766 36.1416 51.637C36.1067 51.5114 36.0614 51.3858 36.0021 51.2707C35.9463 51.1591 35.8765 51.0509 35.7998 50.9498C35.7265 50.8556 35.6393 50.7614 35.5451 50.6812C35.4509 50.6009 35.3498 50.5277 35.2416 50.4649C34.4149 49.987 33.5567 49.5439 32.6916 49.1498C31.823 48.7521 30.923 48.3928 30.0195 48.0823C29.1126 47.7684 28.1812 47.4963 27.2498 47.273C26.3079 47.0463 25.3486 46.8649 24.3998 46.7323C23.437 46.5998 22.4567 46.5125 21.487 46.4707C20.5033 46.4323 19.5091 46.4428 18.5288 46.5021C17.5346 46.5614 16.53 46.673 15.5428 46.8335C14.5416 46.9939 13.5335 47.2102 12.5463 47.4753C11.43 47.7719 10.2823 47.1125 9.98232 45.9963C9.68232 44.88 10.3451 43.7323 11.4614 43.4323C12.5846 43.1323 13.7323 42.8846 14.873 42.6998C15.9963 42.5184 17.1439 42.3893 18.2777 42.323C19.3974 42.2567 20.5312 42.2428 21.6509 42.2881C22.7602 42.3335 23.88 42.4312 24.9753 42.5846C26.0602 42.7346 27.1521 42.9439 28.2265 43.1986C29.287 43.4532 30.3509 43.7637 31.3835 44.1195C32.4126 44.4753 33.4346 44.8835 34.4253 45.337C35.4126 45.787 36.3893 46.2893 37.3312 46.8335C37.673 47.0288 37.9939 47.2591 38.287 47.5137C38.587 47.7719 38.8591 48.0614 39.0998 48.3719C39.3474 48.6928 39.5637 49.0346 39.7451 49.3939C39.93 49.7637 40.0765 50.1509 40.1846 50.5521C40.2928 50.9532 40.3591 51.3649 40.3835 51.773C40.4079 52.1742 40.3905 52.5788 40.3346 52.98C40.2788 53.3707 40.1881 53.7579 40.0591 54.1312C39.9335 54.4974 39.7695 54.8567 39.5742 55.1986C39.3788 55.5405 39.1486 55.8614 38.8939 56.1544C38.6358 56.4509 38.3463 56.7265 38.0358 56.9707C37.7184 57.2184 37.3765 57.4346 37.0172 57.6125C36.6474 57.7974 36.2567 57.9439 35.8591 58.0521C35.4579 58.1602 35.0463 58.2265 34.6381 58.2509C34.516 58.2579 34.3939 58.2614 34.2753 58.2614L34.2719 58.2684Z" fill="#F98C4B"/>
<path d="M51.396 12.8683C51.3995 12.2857 51.1657 11.7171 50.7541 11.302C50.346 10.8939 49.7809 10.6602 49.2018 10.6602H49.1878C44.7123 10.6916 40.5018 12.4497 37.3378 15.6171C35.2274 17.7276 33.7483 20.302 32.9809 23.1067C32.5588 22.566 32.1018 22.0462 31.6099 21.5509C28.446 18.3834 24.2355 16.6253 19.7599 16.5939H19.746C19.1669 16.5939 18.6018 16.8276 18.1937 17.2357C17.782 17.6474 17.5483 18.2195 17.5518 18.802C17.5832 23.2776 19.3413 27.4881 22.5088 30.652C25.2053 33.3485 28.6588 35.0195 32.3844 35.4764V40.2136C32.3844 41.3683 33.3227 42.3067 34.4774 42.3067C35.632 42.3067 36.5704 41.3683 36.5704 40.2136V29.5427C40.2995 29.0857 43.7495 27.4113 46.446 24.7183C49.6134 21.5509 51.3716 17.3439 51.403 12.8648L51.396 12.8683ZM25.4634 27.6974C23.6111 25.845 22.3971 23.5148 21.9367 20.9892C24.4657 21.4462 26.7925 22.6602 28.6448 24.516C30.4971 26.3683 31.7111 28.6985 32.1716 31.2241C29.6425 30.7671 27.3157 29.5532 25.4634 27.6974ZM36.7692 25.2869C37.2262 22.7578 38.4402 20.4311 40.296 18.5788C42.1483 16.7264 44.4785 15.5125 47.0041 15.052C46.5471 17.5811 45.3332 19.9078 43.4774 21.7602C41.625 23.6125 39.2948 24.8264 36.7692 25.2869Z" fill="#4BA78A"/>
<path d="M249.126 26.9961C251.745 26.9961 254.053 27.5307 256.028 28.624L256.394 28.834C258.191 29.9116 259.604 31.3947 260.625 33.2725L260.823 33.6533C261.782 35.577 262.251 37.8057 262.251 40.3213C262.251 42.3514 261.941 44.1956 261.31 45.8447C260.715 47.4853 259.837 48.9088 258.675 50.1064L258.668 50.1133C257.504 51.2777 256.113 52.1732 254.504 52.8027L254.493 52.8076L254.276 52.2207L254.492 52.8076C252.879 53.4036 251.088 53.6963 249.126 53.6963C246.67 53.6963 244.488 53.2263 242.598 52.2666L242.224 52.0684C240.251 50.9766 238.716 49.4228 237.627 47.4199L237.625 47.416C236.535 45.3766 236.001 43.0049 236.001 40.3213C236.001 38.2953 236.293 36.4697 236.89 34.8545L236.893 34.8477L237.014 34.542C237.635 33.03 238.49 31.7227 239.584 30.6289C240.677 29.5046 241.971 28.6455 243.459 28.0508L243.76 27.9346C245.373 27.3052 247.165 26.9961 249.126 26.9961ZM249.126 32.9961C247.999 32.9961 247.035 33.2688 246.214 33.7969L246.207 33.8008L246.2 33.8057C245.396 34.2937 244.739 35.0674 244.247 36.1748C243.793 37.2385 243.551 38.6124 243.551 40.3213C243.551 42.8728 244.101 44.7046 245.103 45.916L245.295 46.1309C246.275 47.1715 247.535 47.6963 249.126 47.6963C250.253 47.6963 251.217 47.4236 252.038 46.8955L252.335 46.6875C253.009 46.1734 253.55 45.4599 253.951 44.5244L253.955 44.5176L254.044 44.3076C254.474 43.2443 254.701 41.922 254.701 40.3213C254.701 37.727 254.147 35.9204 253.155 34.7822L253.149 34.7764L253.626 34.3711L253.149 34.7754C252.144 33.5923 250.823 32.9961 249.126 32.9961Z" fill="#4BA78A" stroke="#4BA78A" stroke-width="1.25"/>
<path d="M215.256 16.3008C216.358 16.3008 217.3 16.5956 217.983 17.2705H217.984C218.714 17.9571 219.031 18.9295 219.031 20.0762V37.0635L226.303 29.3955L226.314 29.3838C226.993 28.705 227.602 28.1639 228.137 27.7715L228.259 27.6865C228.883 27.2763 229.668 27.1006 230.557 27.1006C231.514 27.1007 232.344 27.3571 232.932 27.9678L233.141 28.1816C233.596 28.6953 233.831 29.3185 233.831 30.0254C233.831 30.8706 233.427 31.6496 232.76 32.3545L232.761 32.3555L225.68 39.8428L233.609 48.3955H233.61C234.295 49.1181 234.668 49.9395 234.578 50.8379L234.576 50.8369C234.527 51.6355 234.18 52.3148 233.565 52.8477L233.557 52.8564L233.547 52.8643C232.915 53.3694 232.135 53.6006 231.256 53.6006C230.247 53.6005 229.367 53.4028 228.667 52.9502L228.659 52.9453L228.652 52.9404C228.067 52.5383 227.435 51.9545 226.755 51.208L219.031 43.1289V49.7754C219.031 50.9359 218.746 51.9221 218.064 52.6143C217.381 53.3083 216.405 53.6006 215.256 53.6006C214.146 53.6005 213.199 53.3027 212.515 52.6182L212.501 52.6045C211.827 51.888 211.531 50.9144 211.531 49.7754V20.0762C211.531 18.9398 211.826 17.9727 212.515 17.2842L212.646 17.1602C213.318 16.563 214.215 16.3008 215.256 16.3008Z" fill="#4BA78A" stroke="#4BA78A" stroke-width="1.25"/>
<path d="M197.659 26.9961C199.699 26.9961 201.433 27.3765 202.822 28.1807L203.08 28.3369C204.346 29.1435 205.295 30.3159 205.933 31.8232L206.056 32.1221C206.65 33.6397 206.935 35.4969 206.935 37.6709V49.7715C206.935 50.9103 206.638 51.8832 205.964 52.5996L205.958 52.6064L205.951 52.6133C205.266 53.2981 204.319 53.5957 203.209 53.5957C202.097 53.5957 201.143 53.2969 200.431 52.626L200.417 52.6133L200.404 52.5996C199.73 51.8832 199.435 50.9103 199.435 49.7715V37.9707C199.435 36.127 199.074 34.924 198.482 34.2246L198.478 34.2197L198.473 34.2139C197.929 33.541 197.04 33.1465 195.659 33.1465C193.971 33.1465 192.678 33.6772 191.714 34.7002L191.713 34.6992C190.779 35.6921 190.284 37.0438 190.284 38.8213V49.7715C190.284 50.9317 189.999 51.9173 189.317 52.6094C188.634 53.3034 187.658 53.5957 186.509 53.5957C185.399 53.5956 184.452 53.2979 183.768 52.6133L183.754 52.5996C183.08 51.8832 182.784 50.9103 182.784 49.7715V30.8711C182.784 29.7347 183.079 28.7676 183.768 28.0791L183.897 27.9561C184.565 27.3615 185.443 27.0957 186.459 27.0957C187.543 27.0957 188.47 27.398 189.151 28.0791L189.275 28.2119C189.719 28.7128 189.975 29.3439 190.079 30.0693C190.645 29.4493 191.298 28.9199 192.039 28.4844L192.355 28.3037C193.946 27.4294 195.719 26.9961 197.659 26.9961Z" fill="#4BA78A" stroke="#4BA78A" stroke-width="1.25"/>
<path d="M167.015 26.9961C169.472 26.9961 171.54 27.3706 173.185 28.1572H173.184C174.869 28.9469 176.138 30.158 176.969 31.7812L177.119 32.084C177.845 33.6195 178.189 35.526 178.189 37.7715V49.7715C178.189 50.9007 177.916 51.8681 177.283 52.585L177.277 52.5918L177.271 52.5986C176.622 53.2905 175.72 53.5957 174.665 53.5957C173.608 53.5957 172.7 53.2904 172.022 52.6133L172.009 52.5996L171.996 52.585C171.572 52.1049 171.311 51.512 171.184 50.834C170.546 51.6242 169.76 52.2605 168.832 52.7422L168.422 52.9404C167.295 53.4494 166.022 53.6962 164.615 53.6963C162.769 53.6963 161.091 53.3476 159.596 52.6357L159.588 52.6318L159.58 52.627C158.129 51.8838 156.963 50.8844 156.1 49.625L156.093 49.6143C155.256 48.3404 154.84 46.9034 154.84 45.3213C154.84 43.4169 155.334 41.8371 156.395 40.6592L156.6 40.4375C157.66 39.3526 159.248 38.6124 161.279 38.1611L161.693 38.0732C163.804 37.6514 166.534 37.4463 169.865 37.4463H170.99V37.0215C170.99 35.5238 170.678 34.5523 170.176 33.9736L170.073 33.8633C169.515 33.3049 168.487 32.9463 166.814 32.9463C165.898 32.9463 164.891 33.0568 163.791 33.2832C162.745 33.5053 161.624 33.8889 160.426 34.4395L160.425 34.4385C159.708 34.7768 158.988 34.9071 158.304 34.7246L158.293 34.7217C157.685 34.548 157.194 34.1925 156.845 33.668L156.833 33.6484C156.507 33.1184 156.34 32.5387 156.34 31.9209C156.34 31.3811 156.467 30.8624 156.711 30.3701L156.822 30.1611C157.172 29.516 157.745 29.0672 158.477 28.793L159.061 28.5596C160.418 28.0336 161.731 27.6485 162.998 27.4072L163.001 27.4062L163.543 27.3105C164.795 27.1018 165.953 26.9961 167.015 26.9961ZM169.915 42.2959C168.12 42.2959 166.66 42.3726 165.529 42.5205L165.064 42.5879C163.877 42.7806 163.141 43.1039 162.742 43.4775H162.741C162.4 43.7962 162.189 44.2789 162.189 45.0215C162.19 45.9575 162.508 46.686 163.137 47.2598L163.256 47.3623C163.869 47.8633 164.733 48.1465 165.915 48.1465C166.917 48.1465 167.769 47.9196 168.493 47.4854C169.265 47.0093 169.871 46.3728 170.318 45.5674L170.475 45.2627C170.814 44.5381 170.99 43.7116 170.99 42.7715V42.2959H169.915Z" fill="#4BA78A" stroke="#4BA78A" stroke-width="1.25"/>
<path d="M133.603 16.3008C134.705 16.3008 135.646 16.5956 136.33 17.2705H136.331C137.061 17.9571 137.378 18.9295 137.378 20.0762V37.0635L144.649 29.3955L144.661 29.3838C145.34 28.705 145.948 28.1639 146.483 27.7715L146.605 27.6865C147.229 27.2763 148.014 27.1006 148.903 27.1006C149.861 27.1007 150.69 27.3571 151.278 27.9678L151.487 28.1816C151.943 28.6953 152.178 29.3185 152.178 30.0254C152.178 30.8706 151.774 31.6496 151.106 32.3545L151.107 32.3555L144.026 39.8428L151.956 48.3955H151.957C152.642 49.1181 153.015 49.9395 152.925 50.8379L152.923 50.8369C152.874 51.6355 152.527 52.3148 151.912 52.8477L151.903 52.8564L151.894 52.8643C151.262 53.3694 150.482 53.6006 149.603 53.6006C148.593 53.6005 147.713 53.4028 147.014 52.9502L147.006 52.9453L146.999 52.9404C146.414 52.5383 145.781 51.9545 145.102 51.208L137.378 43.1289V49.7754C137.378 50.9359 137.092 51.9221 136.411 52.6143C135.728 53.3083 134.751 53.6006 133.603 53.6006C132.493 53.6005 131.546 53.3027 130.861 52.6182L130.848 52.6045C130.173 51.888 129.878 50.9144 129.878 49.7754V20.0762C129.878 18.9398 130.173 17.9727 130.861 17.2842L130.992 17.1602C131.665 16.563 132.562 16.3008 133.603 16.3008Z" fill="#4BA78A" stroke="#4BA78A" stroke-width="1.25"/>
<path d="M113.345 26.9961C115.964 26.9961 118.272 27.5307 120.247 28.624L120.612 28.834C122.41 29.9116 123.822 31.3947 124.844 33.2725L125.042 33.6533C126.001 35.577 126.47 37.8057 126.47 40.3213C126.47 42.3514 126.16 44.1956 125.528 45.8447C124.933 47.4853 124.056 48.9088 122.894 50.1064L122.887 50.1133C121.722 51.2777 120.331 52.1732 118.723 52.8027L118.711 52.8076C117.098 53.4036 115.307 53.6963 113.345 53.6963C110.889 53.6963 108.707 53.2263 106.816 52.2666L106.442 52.0684C104.47 50.9766 102.935 49.4228 101.846 47.4199L101.844 47.416C100.754 45.3766 100.22 43.0049 100.22 40.3213C100.22 38.2953 100.512 36.4697 101.108 34.8545L101.111 34.8477L101.232 34.542C101.853 33.03 102.709 31.7227 103.803 30.6289C104.896 29.5046 106.19 28.6455 107.678 28.0508L107.979 27.9346C109.592 27.3052 111.383 26.9961 113.345 26.9961ZM113.345 32.9961C112.217 32.9961 111.254 33.2688 110.433 33.7969L110.426 33.8008L110.419 33.8057C109.615 34.2937 108.958 35.0674 108.466 36.1748C108.012 37.2385 107.77 38.6124 107.77 40.3213C107.77 42.8728 108.32 44.7046 109.321 45.916L109.514 46.1309C110.494 47.1715 111.754 47.6963 113.345 47.6963C114.472 47.6963 115.435 47.4236 116.257 46.8955L116.554 46.6875C117.228 46.1734 117.769 45.4599 118.17 44.5244L118.174 44.5176L118.263 44.3076C118.693 43.2443 118.92 41.922 118.92 40.3213C118.92 37.727 118.366 35.9204 117.374 34.7822L117.368 34.7764L117.845 34.3711L117.368 34.7754C116.362 33.5923 115.042 32.9961 113.345 32.9961Z" fill="#4BA78A" stroke="#4BA78A" stroke-width="1.25"/>
<path d="M79.4746 16.3008C80.5769 16.3008 81.5184 16.5956 82.2021 17.2705H82.2031C82.9326 17.9571 83.25 18.9295 83.25 20.0762V37.0635L90.5215 29.3955L90.5332 29.3838C91.212 28.705 91.8203 28.1639 92.3555 27.7715L92.4775 27.6865C93.1014 27.2763 93.8864 27.1006 94.7754 27.1006C95.7332 27.1007 96.5625 27.3571 97.1504 27.9678L97.3594 28.1816C97.8152 28.6953 98.0497 29.3185 98.0498 30.0254C98.0498 30.8706 97.6462 31.6496 96.9785 32.3545L96.9795 32.3555L89.8984 39.8428L97.8281 48.3955H97.8291C98.5137 49.1181 98.8867 49.9395 98.7969 50.8379L98.7949 50.8369C98.7456 51.6355 98.3989 52.3148 97.7842 52.8477L97.7754 52.8564L97.7656 52.8643C97.1341 53.3694 96.3541 53.6006 95.4746 53.6006C94.4655 53.6005 93.5853 53.4028 92.8857 52.9502L92.8779 52.9453L92.8711 52.9404C92.2862 52.5383 91.6533 51.9545 90.9736 51.208L83.25 43.1289V49.7754C83.25 50.9359 82.9645 51.9221 82.2832 52.6143C81.6 53.3083 80.6235 53.6006 79.4746 53.6006C78.3651 53.6005 77.4182 53.3027 76.7334 52.6182L76.7197 52.6045C76.0454 51.888 75.75 50.9144 75.75 49.7754V20.0762C75.75 18.9398 76.0449 17.9727 76.7334 17.2842L76.8643 17.1602C77.5367 16.563 78.4342 16.3008 79.4746 16.3008Z" fill="#4BA78A" stroke="#4BA78A" stroke-width="1.25"/>
</svg>
