<svg width="16" height="14" viewBox="0 0 16 14" fill="none" xmlns="http://www.w3.org/2000/svg">
<path d="M7.98396 13.2022C7.8216 13.2022 7.66111 13.1729 7.5025 13.1141C7.34375 13.0554 7.20403 12.9656 7.08333 12.8449L6.12667 11.981C4.64375 10.6338 3.33521 9.3237 2.20104 8.05078C1.06701 6.77786 0.5 5.45495 0.5 4.08203C0.5 3.02217 0.86007 2.13224 1.58021 1.41224C2.30021 0.6921 3.19014 0.332031 4.25 0.332031C4.85792 0.332031 5.4909 0.485642 6.14896 0.792865C6.80715 1.09995 7.42417 1.67925 8 2.53078C8.57583 1.67925 9.19285 1.09995 9.85104 0.792865C10.5091 0.485642 11.1421 0.332031 11.75 0.332031C12.8099 0.332031 13.6998 0.6921 14.4198 1.41224C15.1399 2.13224 15.5 3.02217 15.5 4.08203C15.5 5.48689 14.9097 6.83731 13.7292 8.13328C12.5486 9.42925 11.2564 10.7134 9.8525 11.9858L8.90063 12.8449C8.77993 12.9656 8.63757 13.0554 8.47354 13.1141C8.30951 13.1729 8.14632 13.2022 7.98396 13.2022Z" fill="#FDFBF8"/>
</svg>
