<svg width="18" height="18" viewBox="0 0 18 18" fill="none" xmlns="http://www.w3.org/2000/svg">
<path d="M9 8.23047C7.96875 8.23047 7.08594 7.86328 6.35156 7.12891C5.61719 6.39453 5.25 5.51172 5.25 4.48047C5.25 3.44922 5.61719 2.56641 6.35156 1.83203C7.08594 1.09766 7.96875 0.730469 9 0.730469C10.0312 0.730469 10.9141 1.09766 11.6484 1.83203C12.3828 2.56641 12.75 3.44922 12.75 4.48047C12.75 5.51172 12.3828 6.39453 11.6484 7.12891C10.9141 7.86328 10.0312 8.23047 9 8.23047ZM0.25 15.9711V15.2114C0.25 14.6954 0.400208 14.2126 0.700625 13.763C1.00125 13.3136 1.40552 12.9646 1.91344 12.7161C3.09302 12.1505 4.27333 11.7262 5.45438 11.4433C6.63542 11.1606 7.81729 11.0192 9 11.0192C10.1827 11.0192 11.3646 11.1606 12.5456 11.4433C13.7267 11.7262 14.907 12.1505 16.0866 12.7161C16.5945 12.9646 16.9988 13.3136 17.2994 13.763C17.5998 14.2126 17.75 14.6954 17.75 15.2114V15.9711C17.75 16.338 17.6254 16.646 17.3762 16.8952C17.1271 17.1445 16.819 17.2692 16.4519 17.2692H1.54812C1.18104 17.2692 0.872917 17.1445 0.62375 16.8952C0.374584 16.646 0.25 16.338 0.25 15.9711ZM1.5 16.0192H16.5V15.2114C16.5 14.9341 16.4106 14.6737 16.2319 14.4302C16.0533 14.1866 15.8061 13.9807 15.4903 13.8123C14.4616 13.314 13.4008 12.9322 12.3081 12.667C11.2154 12.4018 10.1127 12.2692 9 12.2692C7.88729 12.2692 6.78458 12.4018 5.69188 12.667C4.59917 12.9322 3.53844 13.314 2.50969 13.8123C2.19385 13.9807 1.94667 14.1866 1.76813 14.4302C1.58938 14.6737 1.5 14.9341 1.5 15.2114V16.0192ZM9 6.98047C9.6875 6.98047 10.276 6.73568 10.7656 6.24609C11.2552 5.75651 11.5 5.16797 11.5 4.48047C11.5 3.79297 11.2552 3.20443 10.7656 2.71484C10.276 2.22526 9.6875 1.98047 9 1.98047C8.3125 1.98047 7.72396 2.22526 7.23438 2.71484C6.74479 3.20443 6.5 3.79297 6.5 4.48047C6.5 5.16797 6.74479 5.75651 7.23438 6.24609C7.72396 6.73568 8.3125 6.98047 9 6.98047Z" fill="#666666"/>
</svg>
