<svg width="25" height="24" viewBox="0 0 25 24" fill="none" xmlns="http://www.w3.org/2000/svg">
<path d="M12.4171 20.7112C12.1723 20.7112 11.9572 20.6282 11.7719 20.4622C11.5867 20.2962 11.4941 20.078 11.4941 19.8075C11.4941 19.678 11.5223 19.5347 11.5786 19.3777C11.6351 19.2206 11.7198 19.0856 11.8326 18.9727L15.5154 15.2902L14.9634 14.7382L11.2864 18.421C11.1735 18.5338 11.046 18.6184 10.9036 18.6747C10.7615 18.7311 10.6173 18.7592 10.4711 18.7592C10.2133 18.7592 9.99495 18.6698 9.81612 18.491C9.63728 18.3121 9.54787 18.0939 9.54787 17.8362C9.54787 17.6824 9.57928 17.5321 9.64212 17.3852C9.70495 17.2386 9.78445 17.1171 9.88062 17.021L13.5634 13.3382L13.0171 12.792L9.33437 16.469C9.23437 16.569 9.11003 16.6504 8.96137 16.7132C8.8127 16.7761 8.66337 16.8075 8.51337 16.8075C8.25953 16.8075 8.0422 16.7171 7.86137 16.5362C7.6807 16.3556 7.59037 16.1382 7.59037 15.8842C7.59037 15.7382 7.61853 15.5941 7.67487 15.4517C7.7312 15.3094 7.81578 15.1818 7.92862 15.069L11.3806 11.617L10.8286 11.071L7.38262 14.5227C7.28645 14.6189 7.16403 14.6984 7.01537 14.7612C6.86653 14.8241 6.7152 14.8555 6.56137 14.8555C6.29087 14.8555 6.06937 14.7692 5.89687 14.5967C5.72453 14.4244 5.63837 14.203 5.63837 13.9325C5.63837 13.7863 5.66653 13.6421 5.72287 13.4997C5.77937 13.3574 5.86403 13.2298 5.97687 13.117L10.9171 8.17672L13.0711 10.3362C13.2545 10.5196 13.4615 10.6494 13.6921 10.7257C13.923 10.8021 14.157 10.8402 14.3941 10.8402C14.8761 10.8402 15.2787 10.6816 15.6019 10.3642C15.9249 10.0469 16.0864 9.64139 16.0864 9.14772C16.0864 8.91439 16.0415 8.67914 15.9519 8.44197C15.862 8.2048 15.7216 7.99072 15.5306 7.79972L12.8826 5.15172L13.8634 4.17097C14.0825 3.95547 14.3479 3.78655 14.6594 3.66422C14.971 3.54172 15.2826 3.48047 15.5941 3.48047C15.925 3.48047 16.248 3.54172 16.5634 3.66422C16.8787 3.78655 17.148 3.9593 17.3711 4.18247L21.6536 8.47097C21.864 8.68114 22.0304 8.93755 22.1529 9.24022C22.2752 9.54272 22.3364 9.87797 22.3364 10.246C22.3364 10.5793 22.2742 10.8943 22.1499 11.191C22.0255 11.4878 21.8601 11.7395 21.6536 11.946L13.2326 20.3727C13.125 20.4804 12.9986 20.5637 12.8536 20.6227C12.7088 20.6817 12.5633 20.7112 12.4171 20.7112ZM4.82287 13.1727L3.78837 12.1382C3.50503 11.8587 3.29153 11.5228 3.14787 11.1305C3.00437 10.7381 2.93262 10.3548 2.93262 9.98047C2.93262 9.58564 2.9967 9.2273 3.12487 8.90547C3.25303 8.58364 3.41653 8.32339 3.61537 8.12472L7.55187 4.18247C7.7672 3.96697 8.00695 3.79614 8.27112 3.66997C8.53512 3.54364 8.82287 3.48047 9.13437 3.48047C9.46903 3.48047 9.77612 3.5398 10.0556 3.65847C10.3351 3.77697 10.5903 3.95164 10.8211 4.18247L14.9846 8.34597C15.0846 8.44597 15.166 8.5703 15.2286 8.71897C15.2915 8.86764 15.3229 9.00864 15.3229 9.14197C15.3229 9.40864 15.2357 9.63239 15.0614 9.81322C14.887 9.99389 14.6665 10.0842 14.3999 10.0842C14.2499 10.0842 14.1056 10.0571 13.9671 10.0027C13.8288 9.94822 13.7013 9.86264 13.5846 9.74597L10.9114 7.08422L4.82287 13.1727Z" fill="#222222"/>
</svg>
