<svg width="14" height="14" viewBox="0 0 14 14" fill="none" xmlns="http://www.w3.org/2000/svg">
<path d="M6.99997 7.70797L1.75372 12.954C1.66022 13.0476 1.54547 13.0976 1.40947 13.104C1.27364 13.1105 1.15256 13.0605 1.04622 12.954C0.939725 12.8476 0.886475 12.7297 0.886475 12.6002C0.886475 12.4707 0.939725 12.3528 1.04622 12.2465L6.29222 7.00022L1.04622 1.75397C0.952558 1.66047 0.902558 1.54572 0.896225 1.40972C0.889725 1.27388 0.939725 1.1528 1.04622 1.04647C1.15256 0.939968 1.27047 0.886719 1.39997 0.886719C1.52947 0.886719 1.64739 0.939968 1.75372 1.04647L6.99997 6.29247L12.2462 1.04647C12.3397 0.952801 12.4545 0.902801 12.5905 0.896468C12.7263 0.889968 12.8474 0.939968 12.9537 1.04647C13.0602 1.1528 13.1135 1.27072 13.1135 1.40022C13.1135 1.52972 13.0602 1.64764 12.9537 1.75397L7.70772 7.00022L12.9537 12.2465C13.0474 12.34 13.0974 12.4547 13.1037 12.5907C13.1102 12.7266 13.0602 12.8476 12.9537 12.954C12.8474 13.0605 12.7295 13.1137 12.6 13.1137C12.4705 13.1137 12.3526 13.0605 12.2462 12.954L6.99997 7.70797Z" fill="#222222"/>
</svg>
