<svg width="18" height="18" viewBox="0 0 18 18" fill="none" xmlns="http://www.w3.org/2000/svg">
<path d="M9.46875 8.80523V4.78125C9.46875 4.64844 9.42375 4.53711 9.33375 4.44727C9.24375 4.35742 9.13227 4.3125 8.9993 4.3125C8.86633 4.3125 8.75508 4.35742 8.66555 4.44727C8.57602 4.53711 8.53125 4.64844 8.53125 4.78125V8.88633C8.53125 8.98211 8.54867 9.07492 8.58352 9.16477C8.61836 9.25445 8.67664 9.34016 8.75836 9.42188L12.0865 12.75C12.1743 12.8378 12.2819 12.8847 12.4092 12.8906C12.5367 12.8966 12.6503 12.8497 12.75 12.75C12.8497 12.6503 12.8995 12.5398 12.8995 12.4184C12.8995 12.297 12.8497 12.1863 12.75 12.0865L9.46875 8.80523ZM9.00305 17.4375C7.83633 17.4375 6.73938 17.2161 5.71219 16.7733C4.68516 16.3305 3.79172 15.7295 3.03188 14.9705C2.27203 14.2114 1.67055 13.3188 1.22742 12.2925C0.78414 11.2664 0.5625 10.1699 0.5625 9.00305C0.5625 7.83633 0.783906 6.73937 1.22672 5.71219C1.66953 4.68516 2.27047 3.79172 3.02953 3.03187C3.78859 2.27203 4.68125 1.67055 5.7075 1.22742C6.73359 0.78414 7.83008 0.5625 8.99695 0.5625C10.1637 0.5625 11.2606 0.783907 12.2878 1.22672C13.3148 1.66953 14.2083 2.27047 14.9681 3.02953C15.728 3.78859 16.3295 4.68125 16.7726 5.7075C17.2159 6.73359 17.4375 7.83008 17.4375 8.99695C17.4375 10.1637 17.2161 11.2606 16.7733 12.2878C16.3305 13.3148 15.7295 14.2083 14.9705 14.9681C14.2114 15.728 13.3187 16.3295 12.2925 16.7726C11.2664 17.2159 10.1699 17.4375 9.00305 17.4375ZM9 16.5C11.0781 16.5 12.8477 15.7695 14.3086 14.3086C15.7695 12.8477 16.5 11.0781 16.5 9C16.5 6.92188 15.7695 5.15234 14.3086 3.69141C12.8477 2.23047 11.0781 1.5 9 1.5C6.92188 1.5 5.15234 2.23047 3.69141 3.69141C2.23047 5.15234 1.5 6.92188 1.5 9C1.5 11.0781 2.23047 12.8477 3.69141 14.3086C5.15234 15.7695 6.92188 16.5 9 16.5Z" fill="#222222"/>
</svg>
