<svg width="24" height="24" viewBox="0 0 24 24" fill="none" xmlns="http://www.w3.org/2000/svg">
<path d="M4.95986 4.96439C6.45486 3.46939 8.39987 2.73438 10.3699 2.73438C12.3399 2.73438 14.2849 3.46939 15.7799 4.96439C17.2749 6.45939 18.0099 8.40436 18.0099 10.3744C18.0099 11.7994 17.6049 13.2194 16.8249 14.4544L20.7649 18.4144C21.0949 18.7444 21.2649 19.1744 21.2649 19.5994C21.2649 20.0244 21.0999 20.4544 20.7649 20.7644C20.4549 21.0944 20.0299 21.2644 19.5799 21.2644C19.1549 21.2644 18.7249 21.0994 18.4149 20.7644L14.4549 16.8244C13.2199 17.6094 11.7999 18.0094 10.3749 18.0094C8.40486 18.0094 6.45987 17.2744 4.96487 15.7794C3.46987 14.2844 2.73486 12.3144 2.73486 10.3694C2.73486 8.42438 3.46987 6.45438 4.96487 4.95938L4.95986 4.96439ZM10.7999 4.44437C12.2449 4.56437 13.5499 5.22937 14.5499 6.19937C15.5249 7.17437 16.1649 8.49937 16.2799 9.94937C16.3049 10.0894 16.2549 10.2094 16.1599 10.3044C16.0649 10.4244 15.9449 10.4694 15.8049 10.4694H15.7799C15.5449 10.4694 15.3299 10.2794 15.3049 10.0444C15.2099 8.80937 14.6649 7.71937 13.8599 6.88937C13.0299 6.08437 11.9399 5.53937 10.7049 5.41937C10.4699 5.39437 10.2799 5.20437 10.2799 4.94437V4.91937C10.2799 4.79937 10.3249 4.65939 10.4199 4.58939C10.5149 4.49439 10.6549 4.44937 10.7999 4.44937V4.44437ZM16.2299 15.2644C16.1349 15.4044 16.0149 15.5244 15.8749 15.6694V15.6944H15.8499V15.7194H15.8249V15.7444L15.7799 15.7944L15.7349 15.8394H15.7099V15.8644H15.6849L15.6599 15.8894V15.9144C15.5199 16.0344 15.3999 16.1494 15.2549 16.2694L19.0999 20.0894C19.2199 20.2294 19.4099 20.3044 19.5749 20.3044C19.7649 20.3044 19.9549 20.2344 20.0749 20.0894C20.2149 19.9694 20.2899 19.7794 20.2899 19.6144C20.2899 19.4244 20.2199 19.2344 20.0749 19.1144L16.2299 15.2694V15.2644ZM10.3699 3.70938C8.65987 3.70938 6.95486 4.34936 5.64986 5.65436C4.34486 6.95936 3.70486 8.66936 3.70486 10.3744C3.70486 12.0794 4.34486 13.7894 5.64986 15.0944C6.95486 16.3744 8.66487 17.0394 10.3699 17.0394C12.0749 17.0394 13.7149 16.3994 15.0199 15.1394L15.0649 15.0944L15.0899 15.0694L15.1349 15.0244C16.3949 13.7194 17.0349 12.0594 17.0349 10.3744C17.0349 8.68936 16.3699 6.95936 15.0649 5.65436C13.7849 4.34936 12.0749 3.70938 10.3649 3.70938H10.3699Z" fill="#333333"/>
</svg>
