<svg width="25" height="24" viewBox="0 0 25 24" fill="none" xmlns="http://www.w3.org/2000/svg">
<path d="M12.125 11.2305C11.0938 11.2305 10.2109 10.8633 9.47656 10.1289C8.74219 9.39453 8.375 8.51172 8.375 7.48047C8.375 6.44922 8.74219 5.56641 9.47656 4.83203C10.2109 4.09766 11.0938 3.73047 12.125 3.73047C13.1562 3.73047 14.0391 4.09766 14.7734 4.83203C15.5078 5.56641 15.875 6.44922 15.875 7.48047C15.875 8.51172 15.5078 9.39453 14.7734 10.1289C14.0391 10.8633 13.1562 11.2305 12.125 11.2305ZM3.375 18.9711V18.2114C3.375 17.6954 3.52521 17.2126 3.82562 16.763C4.12625 16.3136 4.53052 15.9646 5.03844 15.7161C6.21802 15.1505 7.39833 14.7262 8.57938 14.4433C9.76042 14.1606 10.9423 14.0192 12.125 14.0192C13.3077 14.0192 14.4896 14.1606 15.6706 14.4433C16.8517 14.7262 18.032 15.1505 19.2116 15.7161C19.7195 15.9646 20.1238 16.3136 20.4244 16.763C20.7248 17.2126 20.875 17.6954 20.875 18.2114V18.9711C20.875 19.338 20.7504 19.646 20.5012 19.8952C20.2521 20.1445 19.944 20.2692 19.5769 20.2692H4.67312C4.30604 20.2692 3.99792 20.1445 3.74875 19.8952C3.49958 19.646 3.375 19.338 3.375 18.9711ZM4.625 19.0192H19.625V18.2114C19.625 17.9341 19.5356 17.6737 19.3569 17.4302C19.1783 17.1866 18.9311 16.9807 18.6153 16.8123C17.5866 16.314 16.5258 15.9322 15.4331 15.667C14.3404 15.4018 13.2377 15.2692 12.125 15.2692C11.0123 15.2692 9.90958 15.4018 8.81688 15.667C7.72417 15.9322 6.66344 16.314 5.63469 16.8123C5.31885 16.9807 5.07167 17.1866 4.89313 17.4302C4.71438 17.6737 4.625 17.9341 4.625 18.2114V19.0192ZM12.125 9.98047C12.8125 9.98047 13.401 9.73568 13.8906 9.24609C14.3802 8.75651 14.625 8.16797 14.625 7.48047C14.625 6.79297 14.3802 6.20443 13.8906 5.71484C13.401 5.22526 12.8125 4.98047 12.125 4.98047C11.4375 4.98047 10.849 5.22526 10.3594 5.71484C9.86979 6.20443 9.625 6.79297 9.625 7.48047C9.625 8.16797 9.86979 8.75651 10.3594 9.24609C10.849 9.73568 11.4375 9.98047 12.125 9.98047Z" fill="#666666"/>
</svg>
