<svg width="25" height="24" viewBox="0 0 25 24" fill="none" xmlns="http://www.w3.org/2000/svg">
<path d="M21.222 6.28125C21.7507 6.2813 22.2029 6.47007 22.5795 6.84668C22.9561 7.22308 23.1448 7.67524 23.1449 8.2041V20.4854C23.1449 20.5718 23.1157 20.6428 23.058 20.6982C23.0003 20.7534 22.9329 20.7812 22.8558 20.7812C22.8175 21.1018 22.6333 21.3153 22.3031 21.4209C21.9732 21.5266 21.6813 21.4523 21.4281 21.1992L19.2982 19.0693H7.37537C6.84671 19.0693 6.39358 18.8815 6.01697 18.5049C5.64038 18.1284 5.45251 17.6754 5.45251 17.1465V16.8584H18.9144C19.4695 16.8583 19.9447 16.66 20.3402 16.2646C20.7355 15.8693 20.933 15.394 20.933 14.8389V6.28125H21.222ZM16.4144 2.53125C16.9694 2.53135 17.4447 2.72883 17.8402 3.12402C18.2356 3.51944 18.433 3.99536 18.433 4.55078V12.3389C18.433 12.894 18.2355 13.3693 17.8402 13.7646C17.4447 14.16 16.9695 14.3583 16.4144 14.3584H5.45251L3.32263 16.4883C3.21378 16.5971 3.09867 16.6752 2.97693 16.7217C2.85505 16.7681 2.73154 16.791 2.60779 16.791C2.36 16.7909 2.13117 16.6991 1.92126 16.5156C1.71126 16.3321 1.60583 16.0808 1.60583 15.7627V4.55078C1.60583 3.99536 1.80396 3.51944 2.19958 3.12402C2.59493 2.72874 3.07031 2.5313 3.62537 2.53125H16.4144ZM5.88611 7.16992C5.26841 7.16992 4.77478 7.69815 4.77478 8.33301C4.77484 8.96781 5.24769 9.47461 5.88611 9.47461C6.52445 9.47452 7.01788 8.96242 7.01794 8.33301C7.01794 7.70354 6.52449 7.17001 5.88611 7.16992ZM9.95056 7.16992C9.33286 7.16992 8.83923 7.69815 8.83923 8.33301C8.83929 8.96781 9.33809 9.47461 9.95056 9.47461C10.5629 9.47446 11.0814 8.96239 11.0814 8.33301C11.0814 7.70358 10.5681 7.17007 9.95056 7.16992ZM14.015 7.16992C13.3973 7.16992 12.9037 7.69815 12.9037 8.33301C12.9037 8.96781 13.4025 9.47461 14.015 9.47461C14.6273 9.47441 15.1458 8.96235 15.1459 8.33301C15.1459 7.70361 14.6326 7.17013 14.015 7.16992Z" fill="#333333"/>
</svg>
