<svg width="25" height="24" viewBox="0 0 25 24" fill="none" xmlns="http://www.w3.org/2000/svg">
<path d="M12.3279 19.942C12.4585 19.942 12.5924 19.9125 12.7296 19.8535C12.8668 19.7946 12.9777 19.7229 13.0624 19.6382L20.8586 11.842C21.1098 11.5908 21.3037 11.3338 21.4404 11.071C21.5769 10.8081 21.6451 10.5196 21.6451 10.2055C21.6451 9.88747 21.5769 9.5788 21.4404 9.27947C21.3037 8.98014 21.1098 8.70672 20.8586 8.45922L17.1086 4.70922C16.8611 4.45805 16.6069 4.2738 16.3461 4.15647C16.0851 4.03914 15.7957 3.98047 15.4779 3.98047C15.1637 3.98047 14.872 4.03914 14.6029 4.15647C14.3335 4.2738 14.0797 4.45805 13.8414 4.70922L12.9701 5.58047L14.8201 7.43622C15.0188 7.63105 15.1669 7.85289 15.2644 8.10172C15.3617 8.35039 15.4104 8.60289 15.4104 8.85922C15.4104 9.37989 15.2402 9.81039 14.8999 10.1507C14.5595 10.4911 14.1291 10.6612 13.6086 10.6612C13.3521 10.6612 13.1018 10.6221 12.8576 10.544C12.6134 10.4658 12.3939 10.3292 12.1989 10.1342L10.2854 8.22672L5.96811 12.544C5.86694 12.6453 5.79103 12.7604 5.74036 12.8892C5.68969 13.0181 5.66436 13.1478 5.66436 13.2785C5.66436 13.5145 5.74003 13.7091 5.89136 13.8622C6.04253 14.0154 6.23611 14.092 6.47211 14.092C6.60278 14.092 6.73669 14.0625 6.87386 14.0035C7.01103 13.9446 7.12194 13.8729 7.20661 13.7882L10.3759 10.619L11.0836 11.3267L7.92011 14.496C7.81878 14.5971 7.74278 14.7121 7.69211 14.841C7.64161 14.9698 7.61636 15.0996 7.61636 15.2305C7.61636 15.4536 7.69519 15.6441 7.85286 15.8017C8.01053 15.9594 8.20086 16.0382 8.42386 16.0382C8.55469 16.0382 8.68869 16.0087 8.82586 15.9497C8.96303 15.8907 9.07394 15.8189 9.15861 15.7342L12.5586 12.3402L13.2664 13.0477L9.87211 16.4477C9.78361 16.5324 9.71086 16.6433 9.65386 16.7805C9.59669 16.9176 9.56811 17.0516 9.56811 17.1825C9.56811 17.4055 9.64694 17.5958 9.80461 17.7535C9.96244 17.9113 10.1529 17.9902 10.3759 17.9902C10.5067 17.9902 10.6365 17.9649 10.7654 17.9142C10.8942 17.8636 11.0092 17.7876 11.1104 17.6862L14.5104 14.292L15.2181 14.9997L11.8181 18.3997C11.7169 18.5011 11.641 18.6226 11.5904 18.7642C11.5397 18.9059 11.5144 19.0356 11.5144 19.1535C11.5144 19.3895 11.5974 19.5799 11.7634 19.7247C11.9294 19.8696 12.1175 19.942 12.3279 19.942ZM12.3221 20.942C11.8079 20.942 11.3679 20.7539 11.0019 20.3777C10.6359 20.0014 10.4753 19.5369 10.5201 18.9842C9.95344 18.9907 9.48161 18.8216 9.10461 18.4767C8.72778 18.1317 8.54894 17.6503 8.56811 17.0325C7.95028 17.0388 7.46344 16.8622 7.10761 16.5027C6.75178 16.1431 6.58994 15.669 6.62211 15.0805C6.06561 15.087 5.60019 14.9306 5.22586 14.6112C4.85153 14.2921 4.66436 13.8478 4.66436 13.2785C4.66436 13.0221 4.71403 12.7655 4.81336 12.5085C4.91269 12.2513 5.05978 12.0253 5.25461 11.8305L10.2854 6.80547L12.8681 9.38822C12.9528 9.47672 13.0573 9.54947 13.1816 9.60647C13.3059 9.66347 13.4464 9.69197 13.6029 9.69197C13.8169 9.69197 14.0059 9.6173 14.1701 9.46797C14.3343 9.31864 14.4164 9.12405 14.4164 8.88422C14.4164 8.72789 14.3878 8.58755 14.3306 8.46322C14.2736 8.33889 14.2009 8.23439 14.1124 8.14972L10.6721 4.70922C10.4246 4.45805 10.1672 4.2738 9.89986 4.15647C9.63253 4.03914 9.33994 3.98047 9.02211 3.98047C8.70794 3.98047 8.42269 4.03914 8.16636 4.15647C7.90986 4.2738 7.65594 4.45805 7.40461 4.70922L4.36036 7.75922C4.14636 7.97339 3.97336 8.22855 3.84136 8.52472C3.70919 8.82089 3.63928 9.12664 3.63161 9.44197C3.62394 9.66764 3.64319 9.88464 3.68936 10.093C3.73553 10.3013 3.80861 10.4971 3.90861 10.6805L3.15086 11.4382C2.98286 11.1702 2.85144 10.8616 2.75661 10.5122C2.66178 10.1629 2.61819 9.80614 2.62586 9.44197C2.63353 8.98814 2.72453 8.55322 2.89886 8.13722C3.07319 7.72122 3.32261 7.35105 3.64711 7.02672L6.67211 4.00172C7.02078 3.65672 7.38969 3.4003 7.77886 3.23247C8.16786 3.06447 8.58869 2.98047 9.04136 2.98047C9.49386 2.98047 9.91144 3.06447 10.2941 3.23247C10.6768 3.4003 11.0405 3.65672 11.3854 4.00172L12.2566 4.87272L13.1279 4.00172C13.4765 3.65672 13.8422 3.4003 14.2249 3.23247C14.6075 3.06447 15.0252 2.98047 15.4779 2.98047C15.9304 2.98047 16.3512 3.06447 16.7404 3.23247C17.1294 3.4003 17.4964 3.65672 17.8414 4.00172L21.5664 7.72672C21.9112 8.07155 22.1772 8.45872 22.3644 8.88822C22.5515 9.31772 22.6451 9.75872 22.6451 10.2112C22.6451 10.6639 22.5515 11.0816 22.3644 11.4642C22.1772 11.8469 21.9112 12.2106 21.5664 12.5555L13.7701 20.346C13.5624 20.5536 13.3364 20.7049 13.0921 20.7997C12.8479 20.8946 12.5913 20.942 12.3221 20.942Z" fill="#666666"/>
</svg>
