<svg width="24" height="24" viewBox="0 0 24 24" fill="none" xmlns="http://www.w3.org/2000/svg">
<path d="M12.0017 3.6689H12.1417C12.2367 3.6689 12.3317 3.66891 12.4517 3.69391V3.6689C12.4517 3.5489 12.3817 3.4339 12.3117 3.3589C12.2417 3.2639 12.1217 3.2189 12.0017 3.2189C11.8617 3.2189 11.7667 3.2639 11.6717 3.3589C11.6017 3.4289 11.5517 3.5489 11.5517 3.6689V3.69391C11.6467 3.66891 11.7417 3.6689 11.8617 3.6689H12.0017ZM13.4017 3.8589C14.5867 4.1689 15.6317 4.8539 16.4617 5.7789C17.6017 7.0839 18.3117 8.86391 18.3117 10.8339C18.3367 15.3189 18.9517 16.0789 19.5917 16.8139C19.9717 17.2639 20.3267 17.6939 20.6367 18.6889C20.7067 18.9489 20.5417 19.2089 20.3067 19.2839C20.2617 19.3089 20.2117 19.3089 20.1667 19.3089H14.4467C14.4467 19.9989 14.1617 20.6139 13.7367 21.0389C13.2867 21.4889 12.6667 21.7489 12.0067 21.7489C11.3467 21.7489 10.7267 21.4889 10.2767 21.0389C9.82669 20.6139 9.56668 19.9939 9.56668 19.3089H3.84668C3.56168 19.3089 3.34668 19.0939 3.34668 18.8339C3.34668 18.7639 3.34669 18.7139 3.37169 18.6439C3.65669 17.6939 4.03669 17.2439 4.41669 16.8189C5.03169 16.0839 5.65168 15.3239 5.67168 10.8389C5.69668 8.86891 6.38168 7.0889 7.52168 5.78391C8.35168 4.85891 9.39668 4.16891 10.5817 3.86391V3.6739C10.5817 3.2689 10.7217 2.91391 10.9867 2.67891C11.2467 2.41891 11.6017 2.25391 12.0067 2.25391C12.3867 2.25391 12.7417 2.41891 13.0017 2.67891C13.2617 2.91391 13.4267 3.2739 13.4267 3.6739C13.4267 3.7439 13.4267 3.79391 13.4017 3.86391V3.8589ZM13.4517 19.3039H10.5317C10.5317 19.7089 10.6967 20.0889 10.9567 20.3489C11.2167 20.6089 11.5967 20.7739 12.0017 20.7739C12.4067 20.7739 12.7617 20.6089 13.0217 20.3489C13.3067 20.0889 13.4467 19.7089 13.4467 19.3039H13.4517ZM12.0017 4.6389H11.9317C10.5067 4.6639 9.20168 5.34891 8.25168 6.44391C7.27668 7.55891 6.66169 9.09891 6.63669 10.8339C6.61169 15.6739 5.87668 16.5539 5.14168 17.4289C4.92668 17.6889 4.71669 17.9489 4.52669 18.3289H19.4517C19.2617 17.9489 19.0467 17.6889 18.8367 17.4289C18.1017 16.5489 17.3667 15.6739 17.3417 10.8339C17.3417 9.10391 16.7267 7.55891 15.7267 6.44391C14.7767 5.35391 13.4967 4.6639 12.0717 4.6389H12.0017Z" fill="#333333"/>
</svg>
