<svg width="25" height="24" viewBox="0 0 25 24" fill="none" xmlns="http://www.w3.org/2000/svg">
<path d="M22.8555 20.7812C22.8171 21.1019 22.6329 21.315 22.3027 21.4206C21.9727 21.5265 21.681 21.4528 21.4277 21.1997L19.298 19.0697H7.37484C6.84609 19.0697 6.39339 18.8814 6.01672 18.5047C5.64005 18.1282 5.45172 17.6755 5.45172 17.1466V16.8581H18.9133C19.4685 16.8581 19.9439 16.6604 20.3395 16.265C20.7349 15.8696 20.9327 15.3943 20.9327 14.8391V6.28125H21.2211C21.7498 6.28125 22.2026 6.46958 22.5792 6.84625C22.9559 7.22271 23.1442 7.67542 23.1442 8.20437V20.4856C23.1442 20.5721 23.1154 20.643 23.0577 20.6984C22.9999 20.7536 22.9326 20.7812 22.8555 20.7812ZM2.85547 15.1778L4.92547 13.1081H16.4133C16.6377 13.1081 16.8219 13.036 16.9661 12.8919C17.1105 12.7477 17.1827 12.5634 17.1827 12.3391V4.55062C17.1827 4.32625 17.1105 4.14187 16.9661 3.9975C16.8219 3.85333 16.6377 3.78125 16.4133 3.78125H3.62484C3.40047 3.78125 3.2162 3.85333 3.07203 3.9975C2.92766 4.14187 2.85547 4.32625 2.85547 4.55062V15.1778ZM2.60734 16.7909C2.35943 16.7909 2.13047 16.6992 1.92047 16.5156C1.71047 16.3321 1.60547 16.0812 1.60547 15.7631V4.55062C1.60547 3.99521 1.80328 3.51979 2.19891 3.12437C2.59432 2.72896 3.06964 2.53125 3.62484 2.53125H16.4133C16.9685 2.53125 17.4439 2.72896 17.8395 3.12437C18.2349 3.51979 18.4327 3.99521 18.4327 4.55062V12.3391C18.4327 12.8943 18.2349 13.3696 17.8395 13.765C17.4439 14.1604 16.9685 14.3581 16.4133 14.3581H5.45172L3.32203 16.4881C3.21307 16.5971 3.09766 16.6748 2.97578 16.7212C2.85391 16.7677 2.73109 16.7909 2.60734 16.7909Z" fill="#666666"/>
<path fill-rule="evenodd" clip-rule="evenodd" d="M5.88814 7.17188C6.5266 7.17188 7.01972 7.70536 7.01972 8.33488C7.01972 8.9644 6.5266 9.47656 5.88814 9.47656C5.24968 9.47656 4.77734 8.96974 4.77734 8.33488C4.77734 7.70003 5.27044 7.17188 5.88814 7.17188ZM14.0169 7.17188C14.6346 7.17188 15.1484 7.70536 15.1484 8.33488C15.1484 8.9644 14.6294 9.47656 14.0169 9.47656C13.4044 9.47656 12.906 8.96974 12.906 8.33488C12.906 7.70003 13.3992 7.17188 14.0169 7.17188ZM9.9525 7.17188C10.5702 7.17188 11.0841 7.70536 11.0841 8.33488C11.0841 8.9644 10.565 9.47656 9.9525 9.47656C9.33999 9.47656 8.84167 8.96974 8.84167 8.33488C8.84167 7.70003 9.3348 7.17188 9.9525 7.17188Z" fill="#666666"/>
</svg>
