<svg width="25" height="24" viewBox="0 0 25 24" fill="none" xmlns="http://www.w3.org/2000/svg">
<path d="M4.125 20.6759V9.81063C4.125 9.49083 4.19656 9.18792 4.33969 8.90187C4.4826 8.61583 4.68031 8.38031 4.93281 8.19531L11.6634 3.09906C12.0157 2.8299 12.4183 2.69531 12.8713 2.69531C13.3242 2.69531 13.7293 2.8299 14.0866 3.09906L20.8172 8.19531C21.0697 8.38031 21.2674 8.61583 21.4103 8.90187C21.5534 9.18792 21.625 9.49083 21.625 9.81063V20.6759C21.625 21.0109 21.5004 21.303 21.2512 21.5522C21.0021 21.8014 20.71 21.9259 20.375 21.9259H16.1444C15.8581 21.9259 15.6183 21.8292 15.425 21.6356C15.2315 21.4421 15.1347 21.2023 15.1347 20.9163V14.9547C15.1347 14.6686 15.0379 14.4289 14.8444 14.2353C14.6508 14.042 14.411 13.9453 14.125 13.9453H11.625C11.339 13.9453 11.0992 14.042 10.9056 14.2353C10.7121 14.4289 10.6153 14.6686 10.6153 14.9547V20.9163C10.6153 21.2023 10.5185 21.4421 10.325 21.6356C10.1317 21.8292 9.89188 21.9259 9.60563 21.9259H5.375C5.04 21.9259 4.74792 21.8014 4.49875 21.5522C4.24958 21.303 4.125 21.0109 4.125 20.6759Z" fill="#333333"/>
</svg>
