<svg width="16" height="14" viewBox="0 0 16 14" fill="none" xmlns="http://www.w3.org/2000/svg">
<path d="M7.98396 13.2022C7.8216 13.2022 7.66111 13.1729 7.5025 13.1141C7.34375 13.0554 7.20403 12.9656 7.08333 12.8449L6.12667 11.981C4.64375 10.6338 3.33521 9.3237 2.20104 8.05078C1.06701 6.77786 0.5 5.45495 0.5 4.08203C0.5 3.02217 0.86007 2.13224 1.58021 1.41224C2.30021 0.6921 3.19014 0.332031 4.25 0.332031C4.85792 0.332031 5.4909 0.485642 6.14896 0.792865C6.80715 1.09995 7.42417 1.67925 8 2.53078C8.57583 1.67925 9.19285 1.09995 9.85104 0.792865C10.5091 0.485642 11.1421 0.332031 11.75 0.332031C12.8099 0.332031 13.6998 0.6921 14.4198 1.41224C15.1399 2.13224 15.5 3.02217 15.5 4.08203C15.5 5.48689 14.9097 6.83731 13.7292 8.13328C12.5486 9.42925 11.2564 10.7134 9.8525 11.9858L8.90063 12.8449C8.77993 12.9656 8.63757 13.0554 8.47354 13.1141C8.30951 13.1729 8.14632 13.2022 7.98396 13.2022ZM7.59292 3.3962C7.09403 2.59161 6.57535 2.0187 6.03687 1.67745C5.4984 1.33606 4.90278 1.16536 4.25 1.16536C3.41667 1.16536 2.72222 1.44314 2.16667 1.9987C1.61111 2.55425 1.33333 3.2487 1.33333 4.08203C1.33333 4.69745 1.5075 5.32856 1.85583 5.97536C2.20403 6.62231 2.67167 7.28502 3.25875 7.96349C3.84583 8.64182 4.52056 9.33571 5.28292 10.0452C6.04514 10.7546 6.83868 11.4848 7.66354 12.2358C7.75965 12.3213 7.87181 12.3641 8 12.3641C8.12819 12.3641 8.24035 12.3213 8.33646 12.2358C9.16132 11.4848 9.95486 10.7546 10.7171 10.0452C11.4794 9.33571 12.1542 8.64182 12.7413 7.96349C13.3283 7.28502 13.796 6.62231 14.1442 5.97536C14.4925 5.32856 14.6667 4.69745 14.6667 4.08203C14.6667 3.2487 14.3889 2.55425 13.8333 1.9987C13.2778 1.44314 12.5833 1.16536 11.75 1.16536C11.0972 1.16536 10.5016 1.33606 9.96313 1.67745C9.42465 2.0187 8.90597 2.59161 8.40708 3.3962C8.36319 3.47092 8.30389 3.52696 8.22917 3.56432C8.15444 3.60182 8.07806 3.62057 8 3.62057C7.92194 3.62057 7.84556 3.60182 7.77083 3.56432C7.69611 3.52696 7.63681 3.47092 7.59292 3.3962Z" fill="#666666"/>
</svg>
