<svg width="25" height="24" viewBox="0 0 25 24" fill="none" xmlns="http://www.w3.org/2000/svg">
<path d="M5.375 20.6759H9.99031V14.3297C9.99031 14.0436 10.0871 13.8039 10.2806 13.6103C10.4742 13.417 10.714 13.3203 11 13.3203H14.75C15.036 13.3203 15.2758 13.417 15.4694 13.6103C15.6629 13.8039 15.7597 14.0436 15.7597 14.3297V20.6759H20.375V9.81063C20.375 9.68229 20.347 9.56604 20.2909 9.46188C20.2349 9.35771 20.1588 9.26562 20.0625 9.18563L13.3319 4.11344C13.2035 4.00135 13.0513 3.94531 12.875 3.94531C12.6987 3.94531 12.5465 4.00135 12.4181 4.11344L5.6875 9.18563C5.59125 9.26562 5.5151 9.35771 5.45906 9.46188C5.40302 9.56604 5.375 9.68229 5.375 9.81063V20.6759ZM4.125 20.6759V9.81063C4.125 9.49083 4.19656 9.18792 4.33969 8.90187C4.4826 8.61583 4.68031 8.38031 4.93281 8.19531L11.6634 3.09906C12.0157 2.8299 12.4183 2.69531 12.8713 2.69531C13.3242 2.69531 13.7293 2.8299 14.0866 3.09906L20.8172 8.19531C21.0697 8.38031 21.2674 8.61583 21.4103 8.90187C21.5534 9.18792 21.625 9.49083 21.625 9.81063V20.6759C21.625 21.0109 21.5004 21.303 21.2512 21.5522C21.0021 21.8014 20.71 21.9259 20.375 21.9259H15.5194C15.2331 21.9259 14.9933 21.8292 14.8 21.6356C14.6065 21.4421 14.5097 21.2023 14.5097 20.9163V14.5703H11.2403V20.9163C11.2403 21.2023 11.1435 21.4421 10.95 21.6356C10.7567 21.8292 10.5169 21.9259 10.2306 21.9259H5.375C5.04 21.9259 4.74792 21.8014 4.49875 21.5522C4.24958 21.303 4.125 21.0109 4.125 20.6759Z" fill="#666666"/>
</svg>
