<svg width="32" height="32" viewBox="0 0 32 32" fill="none" xmlns="http://www.w3.org/2000/svg">
<rect x="0.5" y="0.5" width="31" height="31" rx="15.5" fill="#F6F7F9"/>
<rect x="0.5" y="0.5" width="31" height="31" rx="15.5" stroke="#FB8C00"/>
<path d="M15.9844 5.10156C19.0094 5.10156 21.7405 6.32032 23.6968 8.27657C25.6843 10.2641 26.8969 12.9891 26.8969 15.9891C26.8969 18.9891 25.678 21.7453 23.6968 23.7016C21.7405 25.6891 19.0094 26.9016 15.9844 26.9016C12.9594 26.9016 10.2594 25.6828 8.3031 23.7016C6.3156 21.7453 5.10303 19.0141 5.10303 15.9891C5.10303 12.9641 6.32185 10.2641 8.3031 8.27657C10.2594 6.32032 12.9906 5.10156 15.9844 5.10156ZM20.0219 11.414C21.1469 11.414 22.0406 12.3016 22.0406 13.4016C22.0406 14.5016 21.1531 15.4203 20.0219 15.4203C18.8906 15.4203 18.0344 14.5328 18.0344 13.4016C18.0344 12.2703 18.9219 11.414 20.0219 11.414ZM12.103 11.3578C13.228 11.3578 14.1219 12.2453 14.1219 13.3453C14.1219 14.4453 13.2342 15.3641 12.103 15.3641C10.9717 15.3641 10.1155 14.4766 10.1155 13.3453C10.1155 12.2141 11.003 11.3578 12.103 11.3578ZM12.103 20.6391C11.778 20.6391 11.5093 20.3703 11.5093 20.0141C11.5093 19.6891 11.778 19.4203 12.103 19.4203H20.1718C20.5281 19.4203 20.7968 19.6891 20.7968 20.0141C20.7968 20.3703 20.5281 20.6391 20.1718 20.6391H12.103ZM22.8406 9.13282C21.0906 7.38282 18.6906 6.31406 15.9906 6.31406C13.2906 6.31406 10.9218 7.38282 9.17178 9.13282C7.42178 10.8828 6.32175 13.314 6.32175 15.9828C6.32175 18.6515 7.42178 21.0828 9.17178 22.8328C10.9218 24.5828 13.3219 25.6828 15.9906 25.6828C18.6594 25.6828 21.0906 24.5828 22.8406 22.8328C24.5906 21.0828 25.6906 18.6515 25.6906 15.9828C25.6906 13.314 24.5906 10.8828 22.8406 9.13282Z" fill="#FB8C00"/>
</svg>
