<svg width="180" height="208" viewBox="0 0 180 208" fill="none" xmlns="http://www.w3.org/2000/svg">
<g clip-path="url(#clip0_208_33414)">
<path d="M174.121 152.016C170.647 148.542 166.042 146.637 161.134 146.637C156.226 146.637 151.61 148.552 148.147 152.016C146.116 154.036 143.981 155.993 141.773 157.814C139.565 159.635 137.242 161.372 134.866 162.984C132.48 164.595 130 166.102 127.467 167.473C124.422 169.127 123.292 172.936 124.945 175.992C126.086 178.085 128.242 179.278 130.471 179.278C131.486 179.278 132.512 179.037 133.464 178.514C136.342 176.944 139.178 175.228 141.899 173.386C144.609 171.555 147.257 169.577 149.769 167.505C152.28 165.433 154.719 163.214 157.031 160.901C158.13 159.802 159.585 159.195 161.144 159.195C162.704 159.195 164.158 159.802 165.257 160.901C166.356 162 166.963 163.455 166.963 165.014C166.963 166.573 166.356 168.028 165.257 169.127C148.314 186.07 125.772 195.405 101.807 195.405C77.8419 195.405 55.3 186.07 38.357 169.127C21.414 152.184 12.0791 129.642 12.0791 105.677C12.0791 81.7116 21.414 59.1698 38.357 42.2267C45.3267 35.257 53.2488 29.5849 61.9663 25.2733L57.1314 39.9663L101.817 9.66977L48.6756 0L59.8314 12.3593C48.5186 17.4454 38.3256 24.4779 29.4721 33.3419C10.143 52.6605 -0.5 78.3419 -0.5 105.666C-0.5 132.991 10.143 158.672 29.4616 177.991C48.7802 197.309 74.4721 207.952 101.797 207.952C129.121 207.952 154.802 197.309 174.121 177.991C177.595 174.516 179.5 169.912 179.5 165.003C179.5 160.095 177.585 155.48 174.121 152.016Z" fill="#F98C4B"/>
<path d="M101.191 174.809C100.343 174.809 99.5057 174.746 98.6685 174.631C97.4964 174.464 96.3348 174.192 95.215 173.804C94.1057 173.417 93.0278 172.925 92.0127 172.339C89.5429 170.916 86.9685 169.587 84.3627 168.394C81.7568 167.201 79.0568 166.123 76.3464 165.192C73.6255 164.25 70.8313 163.433 68.0371 162.764C64.6673 161.958 62.5848 158.567 63.401 155.187C64.2068 151.817 67.5975 149.735 70.9778 150.551C74.1592 151.315 77.351 152.246 80.4487 153.314C83.5359 154.381 86.6022 155.606 89.5743 156.966C92.5464 158.316 95.4766 159.833 98.2917 161.466C98.6161 161.654 98.9615 161.811 99.3173 161.926C99.6731 162.052 100.039 162.136 100.406 162.188C100.782 162.24 101.159 162.251 101.536 162.23C101.923 162.209 102.321 162.146 102.708 162.042C103.095 161.937 103.461 161.801 103.817 161.623C104.152 161.456 104.477 161.257 104.77 161.016C105.063 160.786 105.335 160.535 105.575 160.242C105.827 159.959 106.036 159.656 106.224 159.321C106.413 158.996 106.57 158.661 106.685 158.306C106.81 157.95 106.894 157.583 106.946 157.217C106.999 156.84 107.009 156.464 106.988 156.087C106.967 155.689 106.905 155.302 106.8 154.915C106.695 154.538 106.559 154.161 106.381 153.816C106.214 153.481 106.005 153.157 105.774 152.853C105.555 152.571 105.293 152.288 105.01 152.047C104.728 151.807 104.424 151.587 104.1 151.399C101.62 149.965 99.0452 148.636 96.4499 147.453C93.8441 146.26 91.1441 145.182 88.4336 144.251C85.7127 143.309 82.9185 142.493 80.1243 141.823C77.2987 141.143 74.4208 140.599 71.5743 140.201C68.6859 139.803 65.7452 139.542 62.8359 139.416C59.8848 139.301 56.9022 139.332 53.9615 139.51C50.9789 139.688 47.965 140.023 45.0034 140.504C41.9999 140.986 38.9754 141.635 36.0138 142.43C32.665 143.319 29.222 141.342 28.322 137.993C27.422 134.644 29.4103 131.201 32.7592 130.301C36.1289 129.401 39.572 128.658 42.9941 128.103C46.3638 127.559 49.8068 127.172 53.208 126.973C56.5673 126.774 59.9685 126.732 63.3278 126.868C66.6557 127.004 70.015 127.297 73.301 127.758C76.5557 128.208 79.8313 128.836 83.0545 129.6C86.2359 130.364 89.4278 131.295 92.5255 132.362C95.6127 133.43 98.6789 134.654 101.651 136.015C104.613 137.365 107.543 138.872 110.368 140.504C111.394 141.09 112.357 141.781 113.236 142.545C114.136 143.319 114.952 144.188 115.674 145.119C116.417 146.082 117.066 147.108 117.61 148.186C118.165 149.295 118.605 150.457 118.929 151.66C119.253 152.864 119.452 154.099 119.525 155.323C119.599 156.526 119.546 157.74 119.379 158.944C119.212 160.116 118.939 161.278 118.552 162.397C118.175 163.496 117.684 164.574 117.098 165.6C116.511 166.625 115.821 167.588 115.057 168.467C114.282 169.357 113.414 170.183 112.482 170.916C111.53 171.659 110.505 172.308 109.427 172.842C108.317 173.396 107.145 173.836 105.952 174.16C104.749 174.485 103.514 174.683 102.289 174.757C101.923 174.778 101.557 174.788 101.201 174.788L101.191 174.809Z" fill="#F98C4B"/>
<path d="M152.563 38.6049C152.573 36.8572 151.872 35.1514 150.637 33.9061C149.413 32.6816 147.718 31.9805 145.98 31.9805H145.939C132.512 32.0747 119.88 37.3491 110.389 46.8514C104.057 53.1828 99.6199 60.9061 97.3176 69.32C96.0513 67.6979 94.6804 66.1386 93.2048 64.6526C83.7129 55.1502 71.0816 49.8758 57.6548 49.7816H57.6129C55.8757 49.7816 54.1804 50.4828 52.956 51.7072C51.7211 52.9421 51.0199 54.6584 51.0304 56.4061C51.1246 69.8328 56.399 82.4642 65.9013 91.9561C73.9909 100.046 84.3513 105.058 95.5281 106.429V120.641C95.5281 124.105 98.3432 126.92 101.807 126.92C105.271 126.92 108.086 124.105 108.086 120.641V88.6282C119.273 87.2572 129.623 82.234 137.713 74.1549C147.215 64.6526 152.49 52.0316 152.584 38.5944L152.563 38.6049ZM74.7653 83.0921C69.2083 77.5351 65.5664 70.5444 64.185 62.9677C71.7722 64.3386 78.7525 67.9805 84.3095 73.5479C89.8664 79.1049 93.5083 86.0956 94.8897 93.6723C87.3025 92.3014 80.3222 88.6595 74.7653 83.0921ZM108.683 75.8607C110.054 68.2735 113.696 61.2933 119.263 55.7363C124.82 50.1793 131.811 46.5374 139.387 45.1561C138.016 52.7433 134.375 59.7235 128.807 65.2805C123.25 70.8374 116.259 74.4793 108.683 75.8607Z" fill="#4BA78A"/>
</g>
<defs>
<clipPath id="clip0_208_33414">
<rect width="180" height="208" fill="white"/>
</clipPath>
</defs>
</svg>
